G04 #@! TF.FileFunction,Copper,L2,Inr,Signal*
%FSLAX46Y46*%
G04 Gerber Fmt 4.6, Leading zero omitted, Abs format (unit mm)*
G04 Created by KiCad (PCBNEW 4.0.0-stable) date Friday, November 04, 2016 'AMt' 11:18:16 AM*
%MOMM*%
G01*
G04 APERTURE LIST*
%ADD10C,0.100000*%
%ADD11R,2.032000X1.727200*%
%ADD12O,2.032000X1.727200*%
%ADD13C,1.727200*%
%ADD14R,1.727200X1.727200*%
%ADD15O,1.727200X1.727200*%
%ADD16C,0.600000*%
%ADD17C,0.250000*%
%ADD18C,0.203200*%
%ADD19C,0.177800*%
%ADD20C,0.254000*%
G04 APERTURE END LIST*
D10*
D11*
X52984400Y23063200D03*
D12*
X52984400Y20523200D03*
X52984400Y17983200D03*
X52984400Y15443200D03*
D10*
G36*
X50489037Y13978278D02*
X51925878Y12541437D01*
X50704563Y11320122D01*
X49267722Y12756963D01*
X50489037Y13978278D01*
X50489037Y13978278D01*
G37*
D13*
X48908512Y10745386D02*
X48692986Y10960912D01*
X47112461Y8949335D02*
X46896935Y9164861D01*
X45316409Y7153283D02*
X45100883Y7368809D01*
D10*
G36*
X6062322Y36798437D02*
X7499163Y38235278D01*
X8720478Y37013963D01*
X7283637Y35577122D01*
X6062322Y36798437D01*
X6062322Y36798437D01*
G37*
D13*
X9295214Y35217912D02*
X9079688Y35002386D01*
X11091265Y33421861D02*
X10875739Y33206335D01*
X12887317Y31625809D02*
X12671791Y31410283D01*
X14683368Y29829758D02*
X14467842Y29614232D01*
X16479419Y28033707D02*
X16263893Y27818181D01*
X18275470Y26237656D02*
X18059944Y26022130D01*
X20071522Y24441604D02*
X19855996Y24226078D01*
D10*
G36*
X7941922Y38627237D02*
X9378763Y40064078D01*
X10600078Y38842763D01*
X9163237Y37405922D01*
X7941922Y38627237D01*
X7941922Y38627237D01*
G37*
D13*
X11174814Y37046712D02*
X10959288Y36831186D01*
X12970865Y35250661D02*
X12755339Y35035135D01*
X14766917Y33454609D02*
X14551391Y33239083D01*
X16562968Y31658558D02*
X16347442Y31443032D01*
X18359019Y29862507D02*
X18143493Y29646981D01*
X20155070Y28066456D02*
X19939544Y27850930D01*
X21951122Y26270404D02*
X21735596Y26054878D01*
D14*
X21590000Y52832000D03*
D15*
X21590000Y55372000D03*
X24130000Y52832000D03*
X24130000Y55372000D03*
X26670000Y52832000D03*
X26670000Y55372000D03*
X29210000Y52832000D03*
X29210000Y55372000D03*
X31750000Y52832000D03*
X31750000Y55372000D03*
X34290000Y52832000D03*
X34290000Y55372000D03*
X36830000Y52832000D03*
X36830000Y55372000D03*
X39370000Y52832000D03*
X39370000Y55372000D03*
D16*
X52324000Y44450000D03*
X43891200Y36118800D03*
X34036000Y35915600D03*
X25908000Y36169600D03*
X16200000Y50250000D03*
X42400000Y44500000D03*
X32800000Y44500000D03*
X23000000Y44500000D03*
X32702500Y27444700D03*
X36880800Y27368500D03*
X41198800Y30111700D03*
X42392600Y27343100D03*
X16370300Y7327900D03*
X13398500Y9740900D03*
X46253400Y27863800D03*
X53314600Y33705800D03*
X46482000Y31800800D03*
X51689000Y38354000D03*
X34721800Y19583400D03*
X25806400Y3505200D03*
X30175200Y36880800D03*
X21539200Y37439600D03*
X42900000Y37875000D03*
X46355000Y23241000D03*
X52400000Y47400000D03*
X42400000Y47400000D03*
X33200000Y47425000D03*
X22900000Y47400000D03*
X18732500Y4203700D03*
X37719000Y18808700D03*
X43992800Y21907500D03*
X31496000Y11176000D03*
X25057100Y12319000D03*
X8839200Y27228800D03*
X4140200Y33274000D03*
X14897100Y22377400D03*
X7442200Y16281400D03*
X23482300Y20866100D03*
X32727900Y25882600D03*
X36893500Y25857200D03*
X38188900Y11353800D03*
X34798000Y7467600D03*
X41554400Y32994600D03*
X44825000Y41525000D03*
X37693600Y31648400D03*
X34450000Y42600000D03*
X35064700Y33007300D03*
X25000000Y42700000D03*
X33299400Y31635700D03*
X15400000Y42700000D03*
X19748500Y9144000D03*
X14249400Y13690600D03*
X12242800Y16891000D03*
X10299700Y25704800D03*
X46482000Y29210000D03*
X50673000Y26416000D03*
X31877000Y17653000D03*
X41554400Y15798800D03*
X12306300Y24091900D03*
X49072800Y21615400D03*
X22021800Y19519900D03*
X42456100Y19278600D03*
X22085300Y5588000D03*
X16852900Y10909300D03*
X56819800Y33807400D03*
X54711600Y25577800D03*
X24866600Y11125200D03*
X16065500Y57099200D03*
X16078200Y56057800D03*
X25527000Y10452100D03*
X16040100Y54902100D03*
X26212800Y9753600D03*
X26847800Y9118600D03*
X27787600Y9067800D03*
X30073600Y4978400D03*
X38328600Y20739100D03*
X21310600Y13360400D03*
X38341300Y14973300D03*
X37693600Y19913600D03*
X19939000Y14960600D03*
X18237200Y17602200D03*
X37693600Y17716500D03*
X29616400Y14579600D03*
X29616400Y15494000D03*
X29616400Y16459200D03*
X29616400Y17424400D03*
X29616400Y18288000D03*
X48800000Y50700000D03*
X42725000Y42225000D03*
X38800000Y47175000D03*
X36925000Y38775000D03*
X28375000Y47275000D03*
X24925000Y41500000D03*
X20400000Y47000000D03*
X40373300Y9080500D03*
X40043100Y19913600D03*
X8191500Y21336000D03*
X5511800Y25946100D03*
X39471600Y10109200D03*
X23634700Y17106900D03*
X17818100Y22326600D03*
X37058600Y20751800D03*
X42418000Y6146800D03*
X41630600Y5791200D03*
X40919400Y5283200D03*
X39509700Y4749800D03*
X43243500Y6311900D03*
X55105300Y27419300D03*
X44958000Y23177500D03*
X29616400Y11684000D03*
X29616400Y13614400D03*
X29616400Y12649200D03*
X31496000Y20701000D03*
X32080200Y12362118D03*
X30861000Y18288000D03*
X44650000Y55500000D03*
X50165000Y41021000D03*
X46736000Y37719000D03*
X21000000Y41300000D03*
X25550000Y34825000D03*
X39350000Y33175000D03*
X29300000Y34800000D03*
X29300000Y42400000D03*
X38800000Y42500000D03*
X38800000Y34800000D03*
X49200000Y42200000D03*
X18923000Y5842000D03*
X10668000Y14198600D03*
X20777200Y4013200D03*
X15748000Y9093200D03*
X13182600Y11658600D03*
D17*
X41554400Y32994600D02*
X41554400Y35585400D01*
X41910000Y35941000D02*
X41910000Y35935000D01*
X41554400Y35585400D02*
X41910000Y35941000D01*
X41910000Y35935000D02*
X44825000Y38850000D01*
X44825000Y38850000D02*
X44825000Y41525000D01*
X41893200Y35918200D02*
X41910000Y35935000D01*
D18*
X37693600Y39356400D02*
X37693600Y31648400D01*
X34450000Y42600000D02*
X37693600Y39356400D01*
D17*
X25372800Y42700000D02*
X25000000Y42700000D01*
X35064700Y33007300D02*
X25372800Y42700000D01*
D18*
X26464300Y31635700D02*
X33299400Y31635700D01*
X15400000Y42700000D02*
X26464300Y31635700D01*
X16065500Y57099200D02*
X17341300Y58375000D01*
X35550000Y54112000D02*
X36830000Y52832000D01*
X35550000Y56825000D02*
X35550000Y54112000D01*
X34000000Y58375000D02*
X35550000Y56825000D01*
X17341300Y58375000D02*
X34000000Y58375000D01*
X16078200Y56057800D02*
X17992198Y57971798D01*
X33025000Y54097000D02*
X34290000Y52832000D01*
X33025000Y56900000D02*
X33025000Y54097000D01*
X31953202Y57971798D02*
X33025000Y56900000D01*
X17992198Y57971798D02*
X31953202Y57971798D01*
X16040100Y54902100D02*
X18706596Y57568596D01*
X30475000Y54107000D02*
X31750000Y52832000D01*
X30475000Y56950000D02*
X30475000Y54107000D01*
X29856404Y57568596D02*
X30475000Y56950000D01*
X18706596Y57568596D02*
X29856404Y57568596D01*
D19*
X9499600Y31830196D02*
X10983502Y33314098D01*
X9499600Y29184600D02*
X9499600Y31830196D01*
X38328600Y20739100D02*
X39179500Y19888200D01*
X21310600Y12192000D02*
X21310600Y13360400D01*
X26670000Y6832600D02*
X21310600Y12192000D01*
X31810900Y6832600D02*
X26670000Y6832600D01*
X39179500Y14201200D02*
X31810900Y6832600D01*
X39179500Y19888200D02*
X39179500Y14201200D01*
X9499600Y29184600D02*
X9499600Y24333200D01*
X9499600Y24333200D02*
X10388600Y23444200D01*
X20472400Y13360400D02*
X21310600Y13360400D01*
X10388600Y23444200D02*
X20472400Y13360400D01*
X38355107Y14985824D02*
X38355107Y14985869D01*
X38342583Y14973300D02*
X38355107Y14985824D01*
X38341300Y14973300D02*
X38342583Y14973300D01*
X22174200Y14960600D02*
X19939000Y14960600D01*
X23444200Y13690600D02*
X22174200Y14960600D01*
X23444200Y10744200D02*
X23444200Y13690600D01*
X26924000Y7264400D02*
X23444200Y10744200D01*
X31292800Y7264400D02*
X26924000Y7264400D01*
X38353306Y14324906D02*
X31292800Y7264400D01*
X11633200Y23266400D02*
X19939000Y14960600D01*
X11633200Y30371692D02*
X11633200Y23266400D01*
X37706300Y19900900D02*
X38366700Y19240500D01*
X37680900Y19926300D02*
X37706300Y19900900D01*
X38366700Y19240500D02*
X38355107Y14985869D01*
X38355107Y14985869D02*
X38353306Y14324906D01*
X11633200Y30371692D02*
X12779554Y31518046D01*
X37033200Y14058900D02*
X37439600Y14465300D01*
X37439600Y14465300D02*
X37439600Y17449800D01*
X37439600Y17449800D02*
X37693600Y17716500D01*
X37033200Y14058900D02*
X37026850Y14052550D01*
X37026850Y14052550D02*
X30683200Y7721600D01*
X30683200Y7721600D02*
X27152600Y7721600D01*
X27152600Y7721600D02*
X24003000Y10871200D01*
X24003000Y10871200D02*
X24003000Y14046200D01*
X24003000Y14046200D02*
X20447000Y17602200D01*
X20447000Y17602200D02*
X18237200Y17602200D01*
X15748000Y23710186D02*
X15748000Y20091400D01*
X15748000Y20091400D02*
X18237200Y17602200D01*
X18167707Y26129893D02*
X15748000Y23710186D01*
X29616400Y14579600D02*
X29641800Y14579600D01*
X19128912Y30632400D02*
X18251256Y29754744D01*
X20243800Y30632400D02*
X19128912Y30632400D01*
X27000200Y23876000D02*
X20243800Y30632400D01*
X27000200Y17221200D02*
X27000200Y23876000D01*
X29641800Y14579600D02*
X27000200Y17221200D01*
X29616400Y15494000D02*
X29638602Y15494000D01*
X17416410Y32512000D02*
X16455205Y31550795D01*
X18973800Y32512000D02*
X17416410Y32512000D01*
X27378002Y24107798D02*
X18973800Y32512000D01*
X27378002Y17754600D02*
X27378002Y24107798D01*
X29638602Y15494000D02*
X27378002Y17754600D01*
X29616400Y16459200D02*
X29616400Y16459200D01*
X15729308Y34417000D02*
X14659154Y33346846D01*
X17703800Y34417000D02*
X15729308Y34417000D01*
X27755804Y24364996D02*
X17703800Y34417000D01*
X27755804Y18319796D02*
X27755804Y24364996D01*
X29616400Y16459200D02*
X27755804Y18319796D01*
X13864404Y36144200D02*
X12863102Y35142898D01*
X16586200Y36144200D02*
X13864404Y36144200D01*
X28133606Y24596794D02*
X16586200Y36144200D01*
X28133606Y18907194D02*
X28133606Y24596794D01*
X29616400Y17424400D02*
X29616400Y17424400D01*
X29616400Y17424400D02*
X28133606Y18907194D01*
X28511500Y24790400D02*
X15265400Y38049200D01*
X15265400Y38049200D02*
X12177302Y38049200D01*
X11067051Y36938949D02*
X12177302Y38049200D01*
X28511500Y19964400D02*
X28511500Y24790400D01*
X28511500Y19392900D02*
X28511500Y19964400D01*
X29616400Y18288000D02*
X28511500Y19392900D01*
X40043100Y19913600D02*
X40284400Y19659600D01*
X40284400Y19659600D02*
X40373300Y9080500D01*
X23634700Y17106900D02*
X23037800Y17106900D01*
X23037800Y17106900D02*
X17818100Y22326600D01*
X17894300Y22326600D02*
X17818100Y22326600D01*
X17818100Y22275800D02*
X17818100Y22326600D01*
X49212500Y27419300D02*
X44958000Y23177500D01*
X55105300Y27419300D02*
X49212500Y27419300D01*
X19963759Y24333841D02*
X24838775Y24333841D01*
X25860398Y18440400D02*
X25857200Y18440400D01*
X25860398Y23312218D02*
X25860398Y18440400D01*
X24838775Y24333841D02*
X25860398Y23312218D01*
X29616400Y11684000D02*
X29616400Y11684000D01*
X25857200Y15443200D02*
X25857200Y18440400D01*
X25857200Y18440400D02*
X25857200Y18440400D01*
X29616400Y11684000D02*
X25857200Y15443200D01*
X29616400Y13614400D02*
X29616400Y13614400D01*
X20943014Y28854400D02*
X20047307Y27958693D01*
X21386800Y28854400D02*
X20943014Y28854400D01*
X26619200Y23622000D02*
X21386800Y28854400D01*
X26619200Y16611600D02*
X26619200Y23622000D01*
X29616400Y13614400D02*
X26619200Y16611600D01*
X26238200Y16027400D02*
X29616400Y12649200D01*
X29616400Y12649200D02*
X29616400Y12649200D01*
X21843359Y26162641D02*
X23544267Y26162641D01*
X26238200Y16027400D02*
X26238200Y21767800D01*
X26238200Y23468708D02*
X26238200Y21767800D01*
X23544267Y26162641D02*
X26238200Y23468708D01*
X30861000Y18288000D02*
X30861000Y13563600D01*
X32080200Y12344400D02*
X32080200Y12362118D01*
X30861000Y13563600D02*
X32080200Y12344400D01*
D18*
X50165000Y41021000D02*
X46863000Y37719000D01*
X46863000Y37719000D02*
X46736000Y37719000D01*
D17*
X38800000Y33725000D02*
X38800000Y34800000D01*
X39350000Y33175000D02*
X38800000Y33725000D01*
D19*
X13182600Y11658600D02*
X13182600Y11684000D01*
X13182600Y11684000D02*
X10668000Y14198600D01*
X15748000Y9093200D02*
X13182600Y11658600D01*
X18923000Y5842000D02*
X18923000Y5918200D01*
X18923000Y5918200D02*
X15748000Y9093200D01*
X20751800Y4013200D02*
X18923000Y5842000D01*
X20777200Y4013200D02*
X20751800Y4013200D01*
D20*
G36*
X14737591Y38519100D02*
X12177302Y38519100D01*
X11997911Y38483417D01*
X11997479Y38483331D01*
X11845033Y38381469D01*
X11675870Y38212306D01*
X11670454Y38215925D01*
X11194167Y38310665D01*
X10717879Y38215925D01*
X10314102Y37946130D01*
X10059870Y37691898D01*
X9790075Y37288120D01*
X9695335Y36811833D01*
X9779360Y36389411D01*
X9314567Y36481865D01*
X8838279Y36387125D01*
X8434502Y36117330D01*
X8180270Y35863098D01*
X7910475Y35459320D01*
X7815735Y34983033D01*
X7910475Y34506746D01*
X8180270Y34102968D01*
X8584048Y33833173D01*
X9060335Y33738433D01*
X9536622Y33833173D01*
X9940400Y34102968D01*
X10194632Y34357200D01*
X10464427Y34760977D01*
X10559167Y35237265D01*
X10475142Y35659687D01*
X10939935Y35567233D01*
X11416222Y35661973D01*
X11820000Y35931768D01*
X12074232Y36186000D01*
X12344027Y36589777D01*
X12438767Y37066065D01*
X12344027Y37542352D01*
X12340408Y37547768D01*
X12371940Y37579300D01*
X15070629Y37579300D01*
X16034905Y36614100D01*
X13864404Y36614100D01*
X13684581Y36578331D01*
X13532135Y36476470D01*
X13471921Y36416255D01*
X13466505Y36419874D01*
X12990218Y36514614D01*
X12513930Y36419874D01*
X12110153Y36150079D01*
X11855921Y35895847D01*
X11586126Y35492069D01*
X11491386Y35015782D01*
X11575411Y34593360D01*
X11110618Y34685814D01*
X10634330Y34591074D01*
X10230553Y34321279D01*
X9976321Y34067047D01*
X9706526Y33663269D01*
X9611786Y33186982D01*
X9706526Y32710695D01*
X9710145Y32705279D01*
X9167331Y32162465D01*
X9065469Y32010019D01*
X9029700Y31830196D01*
X9029700Y27887074D01*
X8975254Y27909682D01*
X8704335Y27909918D01*
X8453948Y27806461D01*
X8262213Y27615059D01*
X8158318Y27364854D01*
X8158082Y27093935D01*
X8261539Y26843548D01*
X8452941Y26651813D01*
X8703146Y26547918D01*
X8974065Y26547682D01*
X9029700Y26570670D01*
X9029700Y24333200D01*
X9065469Y24153377D01*
X9167331Y24000931D01*
X10056331Y23111930D01*
X10056334Y23111928D01*
X20140131Y13028130D01*
X20292577Y12926269D01*
X20472400Y12890500D01*
X20817440Y12890500D01*
X20840700Y12867200D01*
X20840700Y12192000D01*
X20875655Y12016270D01*
X20876469Y12012177D01*
X20978331Y11859731D01*
X26337730Y6500331D01*
X26458461Y6419661D01*
X26490177Y6398469D01*
X26670000Y6362700D01*
X31810900Y6362700D01*
X31990723Y6398469D01*
X32143169Y6500331D01*
X32975573Y7332735D01*
X34116882Y7332735D01*
X34220339Y7082348D01*
X34411741Y6890613D01*
X34661946Y6786718D01*
X34932865Y6786482D01*
X35183252Y6889939D01*
X35374987Y7081341D01*
X35478882Y7331546D01*
X35478931Y7388162D01*
X43836930Y7388162D01*
X43931670Y6911875D01*
X44201465Y6508097D01*
X44455697Y6253865D01*
X44859474Y5984070D01*
X45335762Y5889330D01*
X45812049Y5984070D01*
X46215827Y6253865D01*
X46485622Y6657643D01*
X46580362Y7133930D01*
X46485622Y7610218D01*
X46215827Y8013995D01*
X46076154Y8153668D01*
X46280873Y8153668D01*
X46359595Y7956317D01*
X46796915Y7743796D01*
X47282274Y7714807D01*
X47737455Y7873040D01*
X47830395Y8051796D01*
X47004698Y8877493D01*
X46280873Y8153668D01*
X46076154Y8153668D01*
X45961595Y8268227D01*
X45557817Y8538022D01*
X45081530Y8632762D01*
X44605243Y8538022D01*
X44201465Y8268227D01*
X43931670Y7864449D01*
X43836930Y7388162D01*
X35478931Y7388162D01*
X35479118Y7602465D01*
X35375661Y7852852D01*
X35184259Y8044587D01*
X34934054Y8148482D01*
X34663135Y8148718D01*
X34412748Y8045261D01*
X34221013Y7853859D01*
X34117118Y7603654D01*
X34116882Y7332735D01*
X32975573Y7332735D01*
X36861773Y11218935D01*
X37507782Y11218935D01*
X37611239Y10968548D01*
X37802641Y10776813D01*
X38052846Y10672918D01*
X38323765Y10672682D01*
X38574152Y10776139D01*
X38765887Y10967541D01*
X38869782Y11217746D01*
X38870018Y11488665D01*
X38766561Y11739052D01*
X38575159Y11930787D01*
X38324954Y12034682D01*
X38054035Y12034918D01*
X37803648Y11931461D01*
X37611913Y11740059D01*
X37508018Y11489854D01*
X37507782Y11218935D01*
X36861773Y11218935D01*
X39511769Y13868930D01*
X39613631Y14021377D01*
X39617637Y14041518D01*
X39649400Y14201200D01*
X39649400Y19344067D01*
X39656841Y19336613D01*
X39817760Y19269793D01*
X39890163Y10653827D01*
X39857859Y10686187D01*
X39607654Y10790082D01*
X39336735Y10790318D01*
X39086348Y10686861D01*
X38894613Y10495459D01*
X38790718Y10245254D01*
X38790482Y9974335D01*
X38893939Y9723948D01*
X39085341Y9532213D01*
X39335546Y9428318D01*
X39606465Y9428082D01*
X39856852Y9531539D01*
X39899238Y9573851D01*
X39899274Y9569541D01*
X39796313Y9466759D01*
X39692418Y9216554D01*
X39692182Y8945635D01*
X39795639Y8695248D01*
X39987041Y8503513D01*
X40237246Y8399618D01*
X40508165Y8399382D01*
X40758552Y8502839D01*
X40950287Y8694241D01*
X41054182Y8944446D01*
X41054418Y9215365D01*
X41005121Y9334674D01*
X45662407Y9334674D01*
X45691396Y8849315D01*
X45903917Y8411995D01*
X46101268Y8333273D01*
X46825093Y9057098D01*
X47184303Y9057098D01*
X48010000Y8231401D01*
X48188756Y8324341D01*
X48346989Y8779522D01*
X48318000Y9264881D01*
X48105479Y9702201D01*
X47908128Y9780923D01*
X47184303Y9057098D01*
X46825093Y9057098D01*
X45999396Y9882795D01*
X45820640Y9789855D01*
X45662407Y9334674D01*
X41005121Y9334674D01*
X40950961Y9465752D01*
X40839037Y9577871D01*
X40834966Y10062400D01*
X46179001Y10062400D01*
X47004698Y9236703D01*
X47728523Y9960528D01*
X47649801Y10157879D01*
X47212481Y10370400D01*
X46727122Y10399389D01*
X46271941Y10241156D01*
X46179001Y10062400D01*
X40834966Y10062400D01*
X40827253Y10980265D01*
X47429033Y10980265D01*
X47523773Y10503978D01*
X47793568Y10100200D01*
X48047800Y9845968D01*
X48451577Y9576173D01*
X48927865Y9481433D01*
X49404152Y9576173D01*
X49807930Y9845968D01*
X50077725Y10249746D01*
X50172465Y10726033D01*
X50077725Y11202321D01*
X49807930Y11606098D01*
X49553698Y11860330D01*
X49149920Y12130125D01*
X48673633Y12224865D01*
X48197346Y12130125D01*
X47793568Y11860330D01*
X47523773Y11456552D01*
X47429033Y10980265D01*
X40827253Y10980265D01*
X40812278Y12762330D01*
X48879295Y12762330D01*
X48907810Y12610787D01*
X48993036Y12482277D01*
X50429877Y11045436D01*
X50548499Y10964386D01*
X50699196Y10931695D01*
X50850739Y10960210D01*
X50979249Y11045436D01*
X52200564Y12266751D01*
X52281614Y12385373D01*
X52314305Y12536070D01*
X52285790Y12687613D01*
X52200564Y12816123D01*
X50763723Y14252964D01*
X50645101Y14334014D01*
X50494404Y14366705D01*
X50342861Y14338190D01*
X50214351Y14252964D01*
X48993036Y13031649D01*
X48911986Y12913027D01*
X48879295Y12762330D01*
X40812278Y12762330D01*
X40789750Y15443200D01*
X51560031Y15443200D01*
X51654771Y14966912D01*
X51924566Y14563135D01*
X52328343Y14293340D01*
X52804631Y14198600D01*
X53164169Y14198600D01*
X53640457Y14293340D01*
X54044234Y14563135D01*
X54314029Y14966912D01*
X54408769Y15443200D01*
X54314029Y15919488D01*
X54044234Y16323265D01*
X53640457Y16593060D01*
X53164169Y16687800D01*
X52804631Y16687800D01*
X52328343Y16593060D01*
X51924566Y16323265D01*
X51654771Y15919488D01*
X51560031Y15443200D01*
X40789750Y15443200D01*
X40768405Y17983200D01*
X51560031Y17983200D01*
X51654771Y17506912D01*
X51924566Y17103135D01*
X52328343Y16833340D01*
X52804631Y16738600D01*
X53164169Y16738600D01*
X53640457Y16833340D01*
X54044234Y17103135D01*
X54314029Y17506912D01*
X54408769Y17983200D01*
X54314029Y18459488D01*
X54044234Y18863265D01*
X53640457Y19133060D01*
X53164169Y19227800D01*
X52804631Y19227800D01*
X52328343Y19133060D01*
X51924566Y18863265D01*
X51654771Y18459488D01*
X51560031Y17983200D01*
X40768405Y17983200D01*
X40754283Y19663549D01*
X40737238Y19745631D01*
X40724021Y19822302D01*
X40724218Y20048465D01*
X40620761Y20298852D01*
X40429359Y20490587D01*
X40350819Y20523200D01*
X51560031Y20523200D01*
X51654771Y20046912D01*
X51924566Y19643135D01*
X52328343Y19373340D01*
X52804631Y19278600D01*
X53164169Y19278600D01*
X53640457Y19373340D01*
X54044234Y19643135D01*
X54314029Y20046912D01*
X54408769Y20523200D01*
X54314029Y20999488D01*
X54044234Y21403265D01*
X53640457Y21673060D01*
X53164169Y21767800D01*
X52804631Y21767800D01*
X52328343Y21673060D01*
X51924566Y21403265D01*
X51654771Y20999488D01*
X51560031Y20523200D01*
X40350819Y20523200D01*
X40179154Y20594482D01*
X39908235Y20594718D01*
X39657848Y20491261D01*
X39466113Y20299859D01*
X39456216Y20276023D01*
X39009586Y20722652D01*
X39009718Y20873965D01*
X38906261Y21124352D01*
X38714859Y21316087D01*
X38464654Y21419982D01*
X38193735Y21420218D01*
X37943348Y21316761D01*
X37751613Y21125359D01*
X37696216Y20991949D01*
X37636261Y21137052D01*
X37444859Y21328787D01*
X37194654Y21432682D01*
X36923735Y21432918D01*
X36673348Y21329461D01*
X36481613Y21138059D01*
X36377718Y20887854D01*
X36377482Y20616935D01*
X36480939Y20366548D01*
X36672341Y20174813D01*
X36922546Y20070918D01*
X37021512Y20070832D01*
X37012718Y20049654D01*
X37012482Y19778735D01*
X37115939Y19528348D01*
X37295648Y19348327D01*
X37142013Y19194959D01*
X37038118Y18944754D01*
X37037882Y18673835D01*
X37141339Y18423448D01*
X37289342Y18275188D01*
X37116613Y18102759D01*
X37012718Y17852554D01*
X37012533Y17640195D01*
X37005469Y17629623D01*
X37004332Y17623908D01*
X37001213Y17618984D01*
X36986488Y17534198D01*
X36969700Y17449800D01*
X36969700Y14659939D01*
X36700933Y14391171D01*
X36700930Y14391169D01*
X36694914Y14385152D01*
X30488837Y8191500D01*
X27347239Y8191500D01*
X27066583Y8472156D01*
X27233052Y8540939D01*
X27292280Y8600064D01*
X27401341Y8490813D01*
X27651546Y8386918D01*
X27922465Y8386682D01*
X28172852Y8490139D01*
X28364587Y8681541D01*
X28468482Y8931746D01*
X28468718Y9202665D01*
X28365261Y9453052D01*
X28173859Y9644787D01*
X27923654Y9748682D01*
X27652735Y9748918D01*
X27402348Y9645461D01*
X27343120Y9586336D01*
X27234059Y9695587D01*
X26983854Y9799482D01*
X26893841Y9799560D01*
X26893918Y9888465D01*
X26790461Y10138852D01*
X26599059Y10330587D01*
X26348854Y10434482D01*
X26207985Y10434605D01*
X26208118Y10586965D01*
X26104661Y10837352D01*
X25913259Y11029087D01*
X25663054Y11132982D01*
X25547607Y11133083D01*
X25547718Y11260065D01*
X25444261Y11510452D01*
X25280524Y11674474D01*
X25442352Y11741339D01*
X25634087Y11932741D01*
X25737982Y12182946D01*
X25738218Y12453865D01*
X25634761Y12704252D01*
X25443359Y12895987D01*
X25193154Y12999882D01*
X24922235Y13000118D01*
X24671848Y12896661D01*
X24480113Y12705259D01*
X24472900Y12687888D01*
X24472900Y14046200D01*
X24437131Y14226023D01*
X24422893Y14247331D01*
X24335269Y14378470D01*
X20779269Y17934469D01*
X20626823Y18036331D01*
X20605517Y18040569D01*
X20447000Y18072100D01*
X18730360Y18072100D01*
X18623459Y18179187D01*
X18373254Y18283082D01*
X18220724Y18283215D01*
X16217900Y20286038D01*
X16217900Y22191735D01*
X17136982Y22191735D01*
X17240439Y21941348D01*
X17431841Y21749613D01*
X17682046Y21645718D01*
X17834577Y21645585D01*
X22705531Y16774630D01*
X22857977Y16672769D01*
X23037800Y16637000D01*
X23141540Y16637000D01*
X23248441Y16529913D01*
X23498646Y16426018D01*
X23769565Y16425782D01*
X24019952Y16529239D01*
X24211687Y16720641D01*
X24315582Y16970846D01*
X24315818Y17241765D01*
X24212361Y17492152D01*
X24020959Y17683887D01*
X23770754Y17787782D01*
X23499835Y17788018D01*
X23249448Y17684561D01*
X23187009Y17622230D01*
X20078004Y20731235D01*
X22801182Y20731235D01*
X22904639Y20480848D01*
X23096041Y20289113D01*
X23346246Y20185218D01*
X23617165Y20184982D01*
X23867552Y20288439D01*
X24059287Y20479841D01*
X24163182Y20730046D01*
X24163418Y21000965D01*
X24059961Y21251352D01*
X23868559Y21443087D01*
X23618354Y21546982D01*
X23347435Y21547218D01*
X23097048Y21443761D01*
X22905313Y21252359D01*
X22801418Y21002154D01*
X22801182Y20731235D01*
X20078004Y20731235D01*
X18499086Y22310152D01*
X18499218Y22461465D01*
X18395761Y22711852D01*
X18204359Y22903587D01*
X17954154Y23007482D01*
X17683235Y23007718D01*
X17432848Y22904261D01*
X17241113Y22712859D01*
X17137218Y22462654D01*
X17136982Y22191735D01*
X16217900Y22191735D01*
X16217900Y23515548D01*
X17558888Y24856536D01*
X17564304Y24852917D01*
X18040591Y24758177D01*
X18516878Y24852917D01*
X18920656Y25122712D01*
X19174888Y25376944D01*
X19444683Y25780721D01*
X19539423Y26257009D01*
X19455398Y26679431D01*
X19920191Y26586977D01*
X20396478Y26681717D01*
X20800256Y26951512D01*
X21054488Y27205744D01*
X21324283Y27609521D01*
X21419023Y28085809D01*
X21401187Y28175475D01*
X22060141Y27516521D01*
X21970475Y27534357D01*
X21494187Y27439617D01*
X21090410Y27169822D01*
X20836178Y26915590D01*
X20566383Y26511812D01*
X20471643Y26035525D01*
X20555668Y25613103D01*
X20090875Y25705557D01*
X19614587Y25610817D01*
X19210810Y25341022D01*
X18956578Y25086790D01*
X18686783Y24683012D01*
X18592043Y24206725D01*
X18686783Y23730438D01*
X18956578Y23326660D01*
X19360356Y23056865D01*
X19836643Y22962125D01*
X20312930Y23056865D01*
X20716708Y23326660D01*
X20970940Y23580892D01*
X21160067Y23863941D01*
X24644137Y23863941D01*
X25390498Y23117579D01*
X25390498Y18456477D01*
X25387300Y18440400D01*
X25387300Y15443200D01*
X25417203Y15292869D01*
X25423069Y15263377D01*
X25524931Y15110931D01*
X28935414Y11700447D01*
X28935282Y11549135D01*
X29038739Y11298748D01*
X29230141Y11107013D01*
X29480346Y11003118D01*
X29751265Y11002882D01*
X30001652Y11106339D01*
X30193387Y11297741D01*
X30297282Y11547946D01*
X30297518Y11818865D01*
X30194061Y12069252D01*
X30096880Y12166602D01*
X30193387Y12262941D01*
X30297282Y12513146D01*
X30297518Y12784065D01*
X30194061Y13034452D01*
X30096880Y13131802D01*
X30193387Y13228141D01*
X30297282Y13478346D01*
X30297518Y13749265D01*
X30194061Y13999652D01*
X30096880Y14097002D01*
X30193387Y14193341D01*
X30297282Y14443546D01*
X30297518Y14714465D01*
X30194061Y14964852D01*
X30122280Y15036758D01*
X30193387Y15107741D01*
X30297282Y15357946D01*
X30297518Y15628865D01*
X30194061Y15879252D01*
X30096880Y15976602D01*
X30193387Y16072941D01*
X30297282Y16323146D01*
X30297518Y16594065D01*
X30194061Y16844452D01*
X30096880Y16941802D01*
X30193387Y17038141D01*
X30297282Y17288346D01*
X30297518Y17559265D01*
X30194061Y17809652D01*
X30147680Y17856114D01*
X30193387Y17901741D01*
X30238683Y18010825D01*
X30283339Y17902748D01*
X30391100Y17794800D01*
X30391100Y13563600D01*
X30426869Y13383777D01*
X30528731Y13231331D01*
X31399198Y12360863D01*
X31399082Y12227253D01*
X31502539Y11976866D01*
X31622306Y11856890D01*
X31361135Y11857118D01*
X31110748Y11753661D01*
X30919013Y11562259D01*
X30815118Y11312054D01*
X30814882Y11041135D01*
X30918339Y10790748D01*
X31109741Y10599013D01*
X31359946Y10495118D01*
X31630865Y10494882D01*
X31881252Y10598339D01*
X32072987Y10789741D01*
X32176882Y11039946D01*
X32177118Y11310865D01*
X32073661Y11561252D01*
X31953894Y11681228D01*
X32215065Y11681000D01*
X32465452Y11784457D01*
X32657187Y11975859D01*
X32761082Y12226064D01*
X32761318Y12496983D01*
X32657861Y12747370D01*
X32466459Y12939105D01*
X32216254Y13043000D01*
X32045990Y13043148D01*
X31330900Y13758238D01*
X31330900Y17794840D01*
X31437987Y17901741D01*
X31541882Y18151946D01*
X31542118Y18422865D01*
X31438661Y18673252D01*
X31247259Y18864987D01*
X30997054Y18968882D01*
X30726135Y18969118D01*
X30475748Y18865661D01*
X30284013Y18674259D01*
X30238717Y18565175D01*
X30194061Y18673252D01*
X30002659Y18864987D01*
X29752454Y18968882D01*
X29599924Y18969015D01*
X29120404Y19448535D01*
X34040682Y19448535D01*
X34144139Y19198148D01*
X34335541Y19006413D01*
X34585746Y18902518D01*
X34856665Y18902282D01*
X35107052Y19005739D01*
X35298787Y19197141D01*
X35402682Y19447346D01*
X35402918Y19718265D01*
X35299461Y19968652D01*
X35108059Y20160387D01*
X34857854Y20264282D01*
X34586935Y20264518D01*
X34336548Y20161061D01*
X34144813Y19969659D01*
X34040918Y19719454D01*
X34040682Y19448535D01*
X29120404Y19448535D01*
X28981400Y19587538D01*
X28981400Y20566135D01*
X30814882Y20566135D01*
X30918339Y20315748D01*
X31109741Y20124013D01*
X31359946Y20020118D01*
X31630865Y20019882D01*
X31881252Y20123339D01*
X32072987Y20314741D01*
X32176882Y20564946D01*
X32177118Y20835865D01*
X32073661Y21086252D01*
X31882259Y21277987D01*
X31632054Y21381882D01*
X31361135Y21382118D01*
X31110748Y21278661D01*
X30919013Y21087259D01*
X30815118Y20837054D01*
X30814882Y20566135D01*
X28981400Y20566135D01*
X28981400Y21413315D01*
X41618272Y21450301D01*
X41667652Y21460451D01*
X41709193Y21489013D01*
X41736349Y21531487D01*
X41744900Y21577300D01*
X41744900Y21772635D01*
X43311682Y21772635D01*
X43415139Y21522248D01*
X43606541Y21330513D01*
X43856746Y21226618D01*
X44127665Y21226382D01*
X44378052Y21329839D01*
X44569787Y21521241D01*
X44673682Y21771446D01*
X44673918Y22042365D01*
X44570461Y22292752D01*
X44379059Y22484487D01*
X44128854Y22588382D01*
X43857935Y22588618D01*
X43607548Y22485161D01*
X43415813Y22293759D01*
X43311918Y22043554D01*
X43311682Y21772635D01*
X41744900Y21772635D01*
X41744900Y23042635D01*
X44276882Y23042635D01*
X44380339Y22792248D01*
X44571741Y22600513D01*
X44821946Y22496618D01*
X45092865Y22496382D01*
X45343252Y22599839D01*
X45534987Y22791241D01*
X45638882Y23041446D01*
X45639014Y23192933D01*
X45673988Y23227803D01*
X45673882Y23106135D01*
X45777339Y22855748D01*
X45968741Y22664013D01*
X46218946Y22560118D01*
X46489865Y22559882D01*
X46740252Y22663339D01*
X46931987Y22854741D01*
X47035882Y23104946D01*
X47036118Y23375865D01*
X46932661Y23626252D01*
X46741259Y23817987D01*
X46491054Y23921882D01*
X46370251Y23921987D01*
X46375078Y23926800D01*
X51579936Y23926800D01*
X51579936Y22199600D01*
X51606503Y22058410D01*
X51689946Y21928735D01*
X51817266Y21841741D01*
X51968400Y21811136D01*
X54000400Y21811136D01*
X54141590Y21837703D01*
X54271265Y21921146D01*
X54358259Y22048466D01*
X54388864Y22199600D01*
X54388864Y23926800D01*
X54362297Y24067990D01*
X54278854Y24197665D01*
X54151534Y24284659D01*
X54000400Y24315264D01*
X51968400Y24315264D01*
X51827210Y24288697D01*
X51697535Y24205254D01*
X51610541Y24077934D01*
X51579936Y23926800D01*
X46375078Y23926800D01*
X47895751Y25442935D01*
X54030482Y25442935D01*
X54133939Y25192548D01*
X54325341Y25000813D01*
X54575546Y24896918D01*
X54846465Y24896682D01*
X55096852Y25000139D01*
X55288587Y25191541D01*
X55392482Y25441746D01*
X55392718Y25712665D01*
X55289261Y25963052D01*
X55097859Y26154787D01*
X54847654Y26258682D01*
X54576735Y26258918D01*
X54326348Y26155461D01*
X54134613Y25964059D01*
X54030718Y25713854D01*
X54030482Y25442935D01*
X47895751Y25442935D01*
X49406727Y26949400D01*
X54612140Y26949400D01*
X54719041Y26842313D01*
X54969246Y26738418D01*
X55240165Y26738182D01*
X55490552Y26841639D01*
X55682287Y27033041D01*
X55786182Y27283246D01*
X55786418Y27554165D01*
X55682961Y27804552D01*
X55491559Y27996287D01*
X55241354Y28100182D01*
X54970435Y28100418D01*
X54720048Y27996961D01*
X54612100Y27889200D01*
X49212500Y27889200D01*
X49122707Y27871339D01*
X49033326Y27853699D01*
X49033029Y27853501D01*
X49032677Y27853431D01*
X48956856Y27802769D01*
X48880728Y27752066D01*
X44975490Y23858485D01*
X44823135Y23858618D01*
X44572748Y23755161D01*
X44381013Y23563759D01*
X44277118Y23313554D01*
X44276882Y23042635D01*
X41744900Y23042635D01*
X41744900Y24550396D01*
X44095702Y24574507D01*
X44145007Y24585019D01*
X44186338Y24613885D01*
X44213182Y24656557D01*
X44221399Y24701993D01*
X44209644Y27728935D01*
X45572282Y27728935D01*
X45675739Y27478548D01*
X45867141Y27286813D01*
X46117346Y27182918D01*
X46388265Y27182682D01*
X46638652Y27286139D01*
X46830387Y27477541D01*
X46934282Y27727746D01*
X46934518Y27998665D01*
X46831061Y28249052D01*
X46639659Y28440787D01*
X46389454Y28544682D01*
X46118535Y28544918D01*
X45868148Y28441461D01*
X45676413Y28250059D01*
X45572518Y27999854D01*
X45572282Y27728935D01*
X44209644Y27728935D01*
X44205877Y28699029D01*
X58322856Y28699029D01*
X58449102Y28393491D01*
X58682662Y28159523D01*
X58987979Y28032745D01*
X59318571Y28032456D01*
X59624109Y28158702D01*
X59858077Y28392262D01*
X59984855Y28697579D01*
X59985144Y29028171D01*
X59858898Y29333709D01*
X59625338Y29567677D01*
X59320021Y29694455D01*
X58989429Y29694744D01*
X58683891Y29568498D01*
X58449923Y29334938D01*
X58323145Y29029621D01*
X58322856Y28699029D01*
X44205877Y28699029D01*
X44196204Y31189598D01*
X44672541Y31665935D01*
X45800882Y31665935D01*
X45904339Y31415548D01*
X46095741Y31223813D01*
X46345946Y31119918D01*
X46616865Y31119682D01*
X46867252Y31223139D01*
X47058987Y31414541D01*
X47162882Y31664746D01*
X47162911Y31699029D01*
X58322856Y31699029D01*
X58449102Y31393491D01*
X58682662Y31159523D01*
X58987979Y31032745D01*
X59318571Y31032456D01*
X59624109Y31158702D01*
X59858077Y31392262D01*
X59984855Y31697579D01*
X59985144Y32028171D01*
X59858898Y32333709D01*
X59625338Y32567677D01*
X59320021Y32694455D01*
X58989429Y32694744D01*
X58683891Y32568498D01*
X58449923Y32334938D01*
X58323145Y32029621D01*
X58322856Y31699029D01*
X47162911Y31699029D01*
X47163118Y31935665D01*
X47059661Y32186052D01*
X46868259Y32377787D01*
X46618054Y32481682D01*
X46347135Y32481918D01*
X46096748Y32378461D01*
X45905013Y32187059D01*
X45801118Y31936854D01*
X45800882Y31665935D01*
X44672541Y31665935D01*
X46577541Y33570935D01*
X52633482Y33570935D01*
X52736939Y33320548D01*
X52928341Y33128813D01*
X53178546Y33024918D01*
X53449465Y33024682D01*
X53699852Y33128139D01*
X53891587Y33319541D01*
X53995482Y33569746D01*
X53995571Y33672535D01*
X56138682Y33672535D01*
X56242139Y33422148D01*
X56433541Y33230413D01*
X56683746Y33126518D01*
X56954665Y33126282D01*
X57205052Y33229739D01*
X57396787Y33421141D01*
X57500682Y33671346D01*
X57500918Y33942265D01*
X57397461Y34192652D01*
X57206059Y34384387D01*
X56955854Y34488282D01*
X56684935Y34488518D01*
X56434548Y34385061D01*
X56242813Y34193659D01*
X56138918Y33943454D01*
X56138682Y33672535D01*
X53995571Y33672535D01*
X53995718Y33840665D01*
X53892261Y34091052D01*
X53700859Y34282787D01*
X53450654Y34386682D01*
X53179735Y34386918D01*
X52929348Y34283461D01*
X52737613Y34092059D01*
X52633718Y33841854D01*
X52633482Y33570935D01*
X46577541Y33570935D01*
X47804806Y34798200D01*
X60656400Y34847065D01*
X60656400Y21467621D01*
X60067689Y22348689D01*
X59136919Y22970610D01*
X58039000Y23189000D01*
X56941081Y22970610D01*
X56010311Y22348689D01*
X55388390Y21417919D01*
X55170000Y20320000D01*
X55388390Y19222081D01*
X56010311Y18291311D01*
X56941081Y17669390D01*
X58039000Y17451000D01*
X59136919Y17669390D01*
X60067689Y18291311D01*
X60656400Y19172379D01*
X60656400Y18045082D01*
X47171012Y4559694D01*
X45477023Y4521194D01*
X42125683Y4508500D01*
X40146880Y4508500D01*
X40190582Y4613746D01*
X40190818Y4884665D01*
X40087361Y5135052D01*
X40074102Y5148335D01*
X40238282Y5148335D01*
X40341739Y4897948D01*
X40533141Y4706213D01*
X40783346Y4602318D01*
X41054265Y4602082D01*
X41304652Y4705539D01*
X41496387Y4896941D01*
X41584957Y5110239D01*
X41765465Y5110082D01*
X42015852Y5213539D01*
X42207587Y5404941D01*
X42240119Y5483286D01*
X42281946Y5465918D01*
X42552865Y5465682D01*
X42803252Y5569139D01*
X42936391Y5702047D01*
X43107446Y5631018D01*
X43378365Y5630782D01*
X43628752Y5734239D01*
X43820487Y5925641D01*
X43924382Y6175846D01*
X43924618Y6446765D01*
X43821161Y6697152D01*
X43629759Y6888887D01*
X43379554Y6992782D01*
X43108635Y6993018D01*
X42858248Y6889561D01*
X42725109Y6756653D01*
X42554054Y6827682D01*
X42283135Y6827918D01*
X42032748Y6724461D01*
X41841013Y6533059D01*
X41808481Y6454714D01*
X41766654Y6472082D01*
X41495735Y6472318D01*
X41245348Y6368861D01*
X41053613Y6177459D01*
X40965043Y5964161D01*
X40784535Y5964318D01*
X40534148Y5860861D01*
X40342413Y5669459D01*
X40238518Y5419254D01*
X40238282Y5148335D01*
X40074102Y5148335D01*
X39895959Y5326787D01*
X39645754Y5430682D01*
X39374835Y5430918D01*
X39124448Y5327461D01*
X38932713Y5136059D01*
X38828818Y4885854D01*
X38828582Y4614935D01*
X38872560Y4508500D01*
X31788100Y4508500D01*
X31738690Y4498494D01*
X31697065Y4470053D01*
X31669785Y4427659D01*
X31661100Y4381500D01*
X31661100Y405200D01*
X17994282Y405200D01*
X14330647Y4068835D01*
X18051382Y4068835D01*
X18154839Y3818448D01*
X18346241Y3626713D01*
X18596446Y3522818D01*
X18867365Y3522582D01*
X19117752Y3626039D01*
X19309487Y3817441D01*
X19413382Y4067646D01*
X19413618Y4338565D01*
X19310161Y4588952D01*
X19118759Y4780687D01*
X18868554Y4884582D01*
X18597635Y4884818D01*
X18347248Y4781361D01*
X18155513Y4589959D01*
X18051618Y4339754D01*
X18051382Y4068835D01*
X14330647Y4068835D01*
X8793447Y9606035D01*
X12717382Y9606035D01*
X12820839Y9355648D01*
X13012241Y9163913D01*
X13262446Y9060018D01*
X13533365Y9059782D01*
X13783752Y9163239D01*
X13975487Y9354641D01*
X14079382Y9604846D01*
X14079618Y9875765D01*
X13976161Y10126152D01*
X13784759Y10317887D01*
X13534554Y10421782D01*
X13263635Y10422018D01*
X13013248Y10318561D01*
X12821513Y10127159D01*
X12717618Y9876954D01*
X12717382Y9606035D01*
X8793447Y9606035D01*
X4956164Y13443318D01*
X8686281Y13443318D01*
X8812527Y13137780D01*
X9046087Y12903812D01*
X9351404Y12777034D01*
X9681996Y12776745D01*
X9987534Y12902991D01*
X10221502Y13136551D01*
X10348280Y13441868D01*
X10348413Y13593928D01*
X10531946Y13517718D01*
X10684477Y13517585D01*
X12501636Y11700425D01*
X12501482Y11523735D01*
X12604939Y11273348D01*
X12796341Y11081613D01*
X13046546Y10977718D01*
X13199077Y10977585D01*
X15067014Y9109647D01*
X15066882Y8958335D01*
X15139715Y8782065D01*
X15009708Y8782179D01*
X14704170Y8655933D01*
X14470202Y8422373D01*
X14343424Y8117056D01*
X14343135Y7786464D01*
X14469381Y7480926D01*
X14702941Y7246958D01*
X15008258Y7120180D01*
X15338850Y7119891D01*
X15644388Y7246137D01*
X15689267Y7290938D01*
X15689182Y7193035D01*
X15792639Y6942648D01*
X15984041Y6750913D01*
X16234246Y6647018D01*
X16505165Y6646782D01*
X16755552Y6750239D01*
X16947287Y6941641D01*
X17031710Y7144952D01*
X18242080Y5934581D01*
X18241882Y5707135D01*
X18345339Y5456748D01*
X18536741Y5265013D01*
X18786946Y5161118D01*
X18939477Y5160985D01*
X20096192Y4004269D01*
X20096082Y3878335D01*
X20199539Y3627948D01*
X20390941Y3436213D01*
X20641146Y3332318D01*
X20912065Y3332082D01*
X21004645Y3370335D01*
X25125282Y3370335D01*
X25228739Y3119948D01*
X25420141Y2928213D01*
X25670346Y2824318D01*
X25941265Y2824082D01*
X26191652Y2927539D01*
X26383387Y3118941D01*
X26487282Y3369146D01*
X26487518Y3640065D01*
X26384061Y3890452D01*
X26192659Y4082187D01*
X25942454Y4186082D01*
X25671535Y4186318D01*
X25421148Y4082861D01*
X25229413Y3891459D01*
X25125518Y3641254D01*
X25125282Y3370335D01*
X21004645Y3370335D01*
X21162452Y3435539D01*
X21354187Y3626941D01*
X21458082Y3877146D01*
X21458318Y4148065D01*
X21354861Y4398452D01*
X21163459Y4590187D01*
X20913254Y4694082D01*
X20735302Y4694237D01*
X20586004Y4843535D01*
X29392482Y4843535D01*
X29495939Y4593148D01*
X29687341Y4401413D01*
X29937546Y4297518D01*
X30208465Y4297282D01*
X30458852Y4400739D01*
X30650587Y4592141D01*
X30754482Y4842346D01*
X30754718Y5113265D01*
X30651261Y5363652D01*
X30459859Y5555387D01*
X30209654Y5659282D01*
X29938735Y5659518D01*
X29688348Y5556061D01*
X29496613Y5364659D01*
X29392718Y5114454D01*
X29392482Y4843535D01*
X20586004Y4843535D01*
X19603986Y5825552D01*
X19604118Y5976865D01*
X19500661Y6227252D01*
X19309259Y6418987D01*
X19059054Y6522882D01*
X18982790Y6522948D01*
X16428986Y9076752D01*
X16429118Y9228065D01*
X16325661Y9478452D01*
X16134259Y9670187D01*
X15884054Y9774082D01*
X15731524Y9774215D01*
X13863586Y11642152D01*
X13863718Y11793465D01*
X13760261Y12043852D01*
X13568859Y12235587D01*
X13318654Y12339482D01*
X13191546Y12339593D01*
X11348986Y14182152D01*
X11349118Y14333465D01*
X11245661Y14583852D01*
X11054259Y14775587D01*
X10804054Y14879482D01*
X10533135Y14879718D01*
X10282748Y14776261D01*
X10091013Y14584859D01*
X9987118Y14334654D01*
X9987099Y14312657D01*
X9683446Y14438744D01*
X9352854Y14439033D01*
X9047316Y14312787D01*
X8813348Y14079227D01*
X8686570Y13773910D01*
X8686281Y13443318D01*
X4956164Y13443318D01*
X2252947Y16146535D01*
X6761082Y16146535D01*
X6864539Y15896148D01*
X7055941Y15704413D01*
X7306146Y15600518D01*
X7577065Y15600282D01*
X7827452Y15703739D01*
X8019187Y15895141D01*
X8123082Y16145346D01*
X8123318Y16416265D01*
X8019861Y16666652D01*
X7828459Y16858387D01*
X7578254Y16962282D01*
X7307335Y16962518D01*
X7056948Y16859061D01*
X6865213Y16667659D01*
X6761318Y16417454D01*
X6761082Y16146535D01*
X2252947Y16146535D01*
X354400Y18045082D01*
X354400Y20076677D01*
X524390Y19222081D01*
X1146311Y18291311D01*
X2077081Y17669390D01*
X3175000Y17451000D01*
X4272919Y17669390D01*
X5203689Y18291311D01*
X5825610Y19222081D01*
X6044000Y20320000D01*
X5868732Y21201135D01*
X7510382Y21201135D01*
X7613839Y20950748D01*
X7805241Y20759013D01*
X8055446Y20655118D01*
X8326365Y20654882D01*
X8576752Y20758339D01*
X8768487Y20949741D01*
X8872382Y21199946D01*
X8872618Y21470865D01*
X8769161Y21721252D01*
X8577759Y21912987D01*
X8327554Y22016882D01*
X8056635Y22017118D01*
X7806248Y21913661D01*
X7614513Y21722259D01*
X7510618Y21472054D01*
X7510382Y21201135D01*
X5868732Y21201135D01*
X5825610Y21417919D01*
X5203689Y22348689D01*
X4272919Y22970610D01*
X3175000Y23189000D01*
X2077081Y22970610D01*
X1146311Y22348689D01*
X524390Y21417919D01*
X354400Y20563323D01*
X354400Y25811235D01*
X4830682Y25811235D01*
X4934139Y25560848D01*
X5125541Y25369113D01*
X5375746Y25265218D01*
X5646665Y25264982D01*
X5897052Y25368439D01*
X6088787Y25559841D01*
X6192682Y25810046D01*
X6192918Y26080965D01*
X6089461Y26331352D01*
X5898059Y26523087D01*
X5647854Y26626982D01*
X5376935Y26627218D01*
X5126548Y26523761D01*
X4934813Y26332359D01*
X4830918Y26082154D01*
X4830682Y25811235D01*
X354400Y25811235D01*
X354400Y33139135D01*
X3459082Y33139135D01*
X3562539Y32888748D01*
X3753941Y32697013D01*
X4004146Y32593118D01*
X4275065Y32592882D01*
X4525452Y32696339D01*
X4717187Y32887741D01*
X4821082Y33137946D01*
X4821318Y33408865D01*
X4717861Y33659252D01*
X4526459Y33850987D01*
X4276254Y33954882D01*
X4005335Y33955118D01*
X3754948Y33851661D01*
X3563213Y33660259D01*
X3459318Y33410054D01*
X3459082Y33139135D01*
X354400Y33139135D01*
X354400Y35895921D01*
X6560726Y35895921D01*
X6560726Y35761217D01*
X7067818Y35254126D01*
X7207852Y35196122D01*
X7359423Y35196122D01*
X7499457Y35254126D01*
X7606633Y35361303D01*
X8114311Y35868980D01*
X8114311Y36003684D01*
X7391400Y36726595D01*
X6560726Y35895921D01*
X354400Y35895921D01*
X354400Y36874223D01*
X5681322Y36874223D01*
X5681322Y36722652D01*
X5739326Y36582618D01*
X6246417Y36075526D01*
X6381121Y36075526D01*
X7211795Y36906200D01*
X6488884Y37629111D01*
X6354180Y37629111D01*
X5846503Y37121433D01*
X5739326Y37014257D01*
X5681322Y36874223D01*
X354400Y36874223D01*
X354400Y40396677D01*
X524390Y39542081D01*
X1146311Y38611311D01*
X2077081Y37989390D01*
X3175000Y37771000D01*
X4041812Y37943420D01*
X6668489Y37943420D01*
X6668489Y37808716D01*
X7391400Y37085805D01*
X7405543Y37099947D01*
X7585148Y36920342D01*
X7571005Y36906200D01*
X8293916Y36183289D01*
X8428620Y36183289D01*
X8936297Y36690967D01*
X9043474Y36798143D01*
X9101478Y36938177D01*
X9101478Y37029728D01*
X9157870Y37017495D01*
X9309413Y37046010D01*
X9437923Y37131236D01*
X10874764Y38568077D01*
X10955814Y38686699D01*
X10988505Y38837396D01*
X10959990Y38988939D01*
X10874764Y39117449D01*
X9653449Y40338764D01*
X9534827Y40419814D01*
X9384130Y40452505D01*
X9232587Y40423990D01*
X9104077Y40338764D01*
X7667236Y38901923D01*
X7586186Y38783301D01*
X7553495Y38632604D01*
X7556567Y38616278D01*
X7423377Y38616278D01*
X7283343Y38558274D01*
X7176167Y38451097D01*
X6668489Y37943420D01*
X4041812Y37943420D01*
X4272919Y37989390D01*
X5203689Y38611311D01*
X5825610Y39542081D01*
X6044000Y40640000D01*
X5825610Y41737919D01*
X5203689Y42668689D01*
X4272919Y43290610D01*
X3175000Y43509000D01*
X2077081Y43290610D01*
X1146311Y42668689D01*
X524390Y41737919D01*
X354400Y40883323D01*
X354400Y43067318D01*
X5274451Y47987369D01*
X14737591Y38519100D01*
X14737591Y38519100D01*
G37*
X14737591Y38519100D02*
X12177302Y38519100D01*
X11997911Y38483417D01*
X11997479Y38483331D01*
X11845033Y38381469D01*
X11675870Y38212306D01*
X11670454Y38215925D01*
X11194167Y38310665D01*
X10717879Y38215925D01*
X10314102Y37946130D01*
X10059870Y37691898D01*
X9790075Y37288120D01*
X9695335Y36811833D01*
X9779360Y36389411D01*
X9314567Y36481865D01*
X8838279Y36387125D01*
X8434502Y36117330D01*
X8180270Y35863098D01*
X7910475Y35459320D01*
X7815735Y34983033D01*
X7910475Y34506746D01*
X8180270Y34102968D01*
X8584048Y33833173D01*
X9060335Y33738433D01*
X9536622Y33833173D01*
X9940400Y34102968D01*
X10194632Y34357200D01*
X10464427Y34760977D01*
X10559167Y35237265D01*
X10475142Y35659687D01*
X10939935Y35567233D01*
X11416222Y35661973D01*
X11820000Y35931768D01*
X12074232Y36186000D01*
X12344027Y36589777D01*
X12438767Y37066065D01*
X12344027Y37542352D01*
X12340408Y37547768D01*
X12371940Y37579300D01*
X15070629Y37579300D01*
X16034905Y36614100D01*
X13864404Y36614100D01*
X13684581Y36578331D01*
X13532135Y36476470D01*
X13471921Y36416255D01*
X13466505Y36419874D01*
X12990218Y36514614D01*
X12513930Y36419874D01*
X12110153Y36150079D01*
X11855921Y35895847D01*
X11586126Y35492069D01*
X11491386Y35015782D01*
X11575411Y34593360D01*
X11110618Y34685814D01*
X10634330Y34591074D01*
X10230553Y34321279D01*
X9976321Y34067047D01*
X9706526Y33663269D01*
X9611786Y33186982D01*
X9706526Y32710695D01*
X9710145Y32705279D01*
X9167331Y32162465D01*
X9065469Y32010019D01*
X9029700Y31830196D01*
X9029700Y27887074D01*
X8975254Y27909682D01*
X8704335Y27909918D01*
X8453948Y27806461D01*
X8262213Y27615059D01*
X8158318Y27364854D01*
X8158082Y27093935D01*
X8261539Y26843548D01*
X8452941Y26651813D01*
X8703146Y26547918D01*
X8974065Y26547682D01*
X9029700Y26570670D01*
X9029700Y24333200D01*
X9065469Y24153377D01*
X9167331Y24000931D01*
X10056331Y23111930D01*
X10056334Y23111928D01*
X20140131Y13028130D01*
X20292577Y12926269D01*
X20472400Y12890500D01*
X20817440Y12890500D01*
X20840700Y12867200D01*
X20840700Y12192000D01*
X20875655Y12016270D01*
X20876469Y12012177D01*
X20978331Y11859731D01*
X26337730Y6500331D01*
X26458461Y6419661D01*
X26490177Y6398469D01*
X26670000Y6362700D01*
X31810900Y6362700D01*
X31990723Y6398469D01*
X32143169Y6500331D01*
X32975573Y7332735D01*
X34116882Y7332735D01*
X34220339Y7082348D01*
X34411741Y6890613D01*
X34661946Y6786718D01*
X34932865Y6786482D01*
X35183252Y6889939D01*
X35374987Y7081341D01*
X35478882Y7331546D01*
X35478931Y7388162D01*
X43836930Y7388162D01*
X43931670Y6911875D01*
X44201465Y6508097D01*
X44455697Y6253865D01*
X44859474Y5984070D01*
X45335762Y5889330D01*
X45812049Y5984070D01*
X46215827Y6253865D01*
X46485622Y6657643D01*
X46580362Y7133930D01*
X46485622Y7610218D01*
X46215827Y8013995D01*
X46076154Y8153668D01*
X46280873Y8153668D01*
X46359595Y7956317D01*
X46796915Y7743796D01*
X47282274Y7714807D01*
X47737455Y7873040D01*
X47830395Y8051796D01*
X47004698Y8877493D01*
X46280873Y8153668D01*
X46076154Y8153668D01*
X45961595Y8268227D01*
X45557817Y8538022D01*
X45081530Y8632762D01*
X44605243Y8538022D01*
X44201465Y8268227D01*
X43931670Y7864449D01*
X43836930Y7388162D01*
X35478931Y7388162D01*
X35479118Y7602465D01*
X35375661Y7852852D01*
X35184259Y8044587D01*
X34934054Y8148482D01*
X34663135Y8148718D01*
X34412748Y8045261D01*
X34221013Y7853859D01*
X34117118Y7603654D01*
X34116882Y7332735D01*
X32975573Y7332735D01*
X36861773Y11218935D01*
X37507782Y11218935D01*
X37611239Y10968548D01*
X37802641Y10776813D01*
X38052846Y10672918D01*
X38323765Y10672682D01*
X38574152Y10776139D01*
X38765887Y10967541D01*
X38869782Y11217746D01*
X38870018Y11488665D01*
X38766561Y11739052D01*
X38575159Y11930787D01*
X38324954Y12034682D01*
X38054035Y12034918D01*
X37803648Y11931461D01*
X37611913Y11740059D01*
X37508018Y11489854D01*
X37507782Y11218935D01*
X36861773Y11218935D01*
X39511769Y13868930D01*
X39613631Y14021377D01*
X39617637Y14041518D01*
X39649400Y14201200D01*
X39649400Y19344067D01*
X39656841Y19336613D01*
X39817760Y19269793D01*
X39890163Y10653827D01*
X39857859Y10686187D01*
X39607654Y10790082D01*
X39336735Y10790318D01*
X39086348Y10686861D01*
X38894613Y10495459D01*
X38790718Y10245254D01*
X38790482Y9974335D01*
X38893939Y9723948D01*
X39085341Y9532213D01*
X39335546Y9428318D01*
X39606465Y9428082D01*
X39856852Y9531539D01*
X39899238Y9573851D01*
X39899274Y9569541D01*
X39796313Y9466759D01*
X39692418Y9216554D01*
X39692182Y8945635D01*
X39795639Y8695248D01*
X39987041Y8503513D01*
X40237246Y8399618D01*
X40508165Y8399382D01*
X40758552Y8502839D01*
X40950287Y8694241D01*
X41054182Y8944446D01*
X41054418Y9215365D01*
X41005121Y9334674D01*
X45662407Y9334674D01*
X45691396Y8849315D01*
X45903917Y8411995D01*
X46101268Y8333273D01*
X46825093Y9057098D01*
X47184303Y9057098D01*
X48010000Y8231401D01*
X48188756Y8324341D01*
X48346989Y8779522D01*
X48318000Y9264881D01*
X48105479Y9702201D01*
X47908128Y9780923D01*
X47184303Y9057098D01*
X46825093Y9057098D01*
X45999396Y9882795D01*
X45820640Y9789855D01*
X45662407Y9334674D01*
X41005121Y9334674D01*
X40950961Y9465752D01*
X40839037Y9577871D01*
X40834966Y10062400D01*
X46179001Y10062400D01*
X47004698Y9236703D01*
X47728523Y9960528D01*
X47649801Y10157879D01*
X47212481Y10370400D01*
X46727122Y10399389D01*
X46271941Y10241156D01*
X46179001Y10062400D01*
X40834966Y10062400D01*
X40827253Y10980265D01*
X47429033Y10980265D01*
X47523773Y10503978D01*
X47793568Y10100200D01*
X48047800Y9845968D01*
X48451577Y9576173D01*
X48927865Y9481433D01*
X49404152Y9576173D01*
X49807930Y9845968D01*
X50077725Y10249746D01*
X50172465Y10726033D01*
X50077725Y11202321D01*
X49807930Y11606098D01*
X49553698Y11860330D01*
X49149920Y12130125D01*
X48673633Y12224865D01*
X48197346Y12130125D01*
X47793568Y11860330D01*
X47523773Y11456552D01*
X47429033Y10980265D01*
X40827253Y10980265D01*
X40812278Y12762330D01*
X48879295Y12762330D01*
X48907810Y12610787D01*
X48993036Y12482277D01*
X50429877Y11045436D01*
X50548499Y10964386D01*
X50699196Y10931695D01*
X50850739Y10960210D01*
X50979249Y11045436D01*
X52200564Y12266751D01*
X52281614Y12385373D01*
X52314305Y12536070D01*
X52285790Y12687613D01*
X52200564Y12816123D01*
X50763723Y14252964D01*
X50645101Y14334014D01*
X50494404Y14366705D01*
X50342861Y14338190D01*
X50214351Y14252964D01*
X48993036Y13031649D01*
X48911986Y12913027D01*
X48879295Y12762330D01*
X40812278Y12762330D01*
X40789750Y15443200D01*
X51560031Y15443200D01*
X51654771Y14966912D01*
X51924566Y14563135D01*
X52328343Y14293340D01*
X52804631Y14198600D01*
X53164169Y14198600D01*
X53640457Y14293340D01*
X54044234Y14563135D01*
X54314029Y14966912D01*
X54408769Y15443200D01*
X54314029Y15919488D01*
X54044234Y16323265D01*
X53640457Y16593060D01*
X53164169Y16687800D01*
X52804631Y16687800D01*
X52328343Y16593060D01*
X51924566Y16323265D01*
X51654771Y15919488D01*
X51560031Y15443200D01*
X40789750Y15443200D01*
X40768405Y17983200D01*
X51560031Y17983200D01*
X51654771Y17506912D01*
X51924566Y17103135D01*
X52328343Y16833340D01*
X52804631Y16738600D01*
X53164169Y16738600D01*
X53640457Y16833340D01*
X54044234Y17103135D01*
X54314029Y17506912D01*
X54408769Y17983200D01*
X54314029Y18459488D01*
X54044234Y18863265D01*
X53640457Y19133060D01*
X53164169Y19227800D01*
X52804631Y19227800D01*
X52328343Y19133060D01*
X51924566Y18863265D01*
X51654771Y18459488D01*
X51560031Y17983200D01*
X40768405Y17983200D01*
X40754283Y19663549D01*
X40737238Y19745631D01*
X40724021Y19822302D01*
X40724218Y20048465D01*
X40620761Y20298852D01*
X40429359Y20490587D01*
X40350819Y20523200D01*
X51560031Y20523200D01*
X51654771Y20046912D01*
X51924566Y19643135D01*
X52328343Y19373340D01*
X52804631Y19278600D01*
X53164169Y19278600D01*
X53640457Y19373340D01*
X54044234Y19643135D01*
X54314029Y20046912D01*
X54408769Y20523200D01*
X54314029Y20999488D01*
X54044234Y21403265D01*
X53640457Y21673060D01*
X53164169Y21767800D01*
X52804631Y21767800D01*
X52328343Y21673060D01*
X51924566Y21403265D01*
X51654771Y20999488D01*
X51560031Y20523200D01*
X40350819Y20523200D01*
X40179154Y20594482D01*
X39908235Y20594718D01*
X39657848Y20491261D01*
X39466113Y20299859D01*
X39456216Y20276023D01*
X39009586Y20722652D01*
X39009718Y20873965D01*
X38906261Y21124352D01*
X38714859Y21316087D01*
X38464654Y21419982D01*
X38193735Y21420218D01*
X37943348Y21316761D01*
X37751613Y21125359D01*
X37696216Y20991949D01*
X37636261Y21137052D01*
X37444859Y21328787D01*
X37194654Y21432682D01*
X36923735Y21432918D01*
X36673348Y21329461D01*
X36481613Y21138059D01*
X36377718Y20887854D01*
X36377482Y20616935D01*
X36480939Y20366548D01*
X36672341Y20174813D01*
X36922546Y20070918D01*
X37021512Y20070832D01*
X37012718Y20049654D01*
X37012482Y19778735D01*
X37115939Y19528348D01*
X37295648Y19348327D01*
X37142013Y19194959D01*
X37038118Y18944754D01*
X37037882Y18673835D01*
X37141339Y18423448D01*
X37289342Y18275188D01*
X37116613Y18102759D01*
X37012718Y17852554D01*
X37012533Y17640195D01*
X37005469Y17629623D01*
X37004332Y17623908D01*
X37001213Y17618984D01*
X36986488Y17534198D01*
X36969700Y17449800D01*
X36969700Y14659939D01*
X36700933Y14391171D01*
X36700930Y14391169D01*
X36694914Y14385152D01*
X30488837Y8191500D01*
X27347239Y8191500D01*
X27066583Y8472156D01*
X27233052Y8540939D01*
X27292280Y8600064D01*
X27401341Y8490813D01*
X27651546Y8386918D01*
X27922465Y8386682D01*
X28172852Y8490139D01*
X28364587Y8681541D01*
X28468482Y8931746D01*
X28468718Y9202665D01*
X28365261Y9453052D01*
X28173859Y9644787D01*
X27923654Y9748682D01*
X27652735Y9748918D01*
X27402348Y9645461D01*
X27343120Y9586336D01*
X27234059Y9695587D01*
X26983854Y9799482D01*
X26893841Y9799560D01*
X26893918Y9888465D01*
X26790461Y10138852D01*
X26599059Y10330587D01*
X26348854Y10434482D01*
X26207985Y10434605D01*
X26208118Y10586965D01*
X26104661Y10837352D01*
X25913259Y11029087D01*
X25663054Y11132982D01*
X25547607Y11133083D01*
X25547718Y11260065D01*
X25444261Y11510452D01*
X25280524Y11674474D01*
X25442352Y11741339D01*
X25634087Y11932741D01*
X25737982Y12182946D01*
X25738218Y12453865D01*
X25634761Y12704252D01*
X25443359Y12895987D01*
X25193154Y12999882D01*
X24922235Y13000118D01*
X24671848Y12896661D01*
X24480113Y12705259D01*
X24472900Y12687888D01*
X24472900Y14046200D01*
X24437131Y14226023D01*
X24422893Y14247331D01*
X24335269Y14378470D01*
X20779269Y17934469D01*
X20626823Y18036331D01*
X20605517Y18040569D01*
X20447000Y18072100D01*
X18730360Y18072100D01*
X18623459Y18179187D01*
X18373254Y18283082D01*
X18220724Y18283215D01*
X16217900Y20286038D01*
X16217900Y22191735D01*
X17136982Y22191735D01*
X17240439Y21941348D01*
X17431841Y21749613D01*
X17682046Y21645718D01*
X17834577Y21645585D01*
X22705531Y16774630D01*
X22857977Y16672769D01*
X23037800Y16637000D01*
X23141540Y16637000D01*
X23248441Y16529913D01*
X23498646Y16426018D01*
X23769565Y16425782D01*
X24019952Y16529239D01*
X24211687Y16720641D01*
X24315582Y16970846D01*
X24315818Y17241765D01*
X24212361Y17492152D01*
X24020959Y17683887D01*
X23770754Y17787782D01*
X23499835Y17788018D01*
X23249448Y17684561D01*
X23187009Y17622230D01*
X20078004Y20731235D01*
X22801182Y20731235D01*
X22904639Y20480848D01*
X23096041Y20289113D01*
X23346246Y20185218D01*
X23617165Y20184982D01*
X23867552Y20288439D01*
X24059287Y20479841D01*
X24163182Y20730046D01*
X24163418Y21000965D01*
X24059961Y21251352D01*
X23868559Y21443087D01*
X23618354Y21546982D01*
X23347435Y21547218D01*
X23097048Y21443761D01*
X22905313Y21252359D01*
X22801418Y21002154D01*
X22801182Y20731235D01*
X20078004Y20731235D01*
X18499086Y22310152D01*
X18499218Y22461465D01*
X18395761Y22711852D01*
X18204359Y22903587D01*
X17954154Y23007482D01*
X17683235Y23007718D01*
X17432848Y22904261D01*
X17241113Y22712859D01*
X17137218Y22462654D01*
X17136982Y22191735D01*
X16217900Y22191735D01*
X16217900Y23515548D01*
X17558888Y24856536D01*
X17564304Y24852917D01*
X18040591Y24758177D01*
X18516878Y24852917D01*
X18920656Y25122712D01*
X19174888Y25376944D01*
X19444683Y25780721D01*
X19539423Y26257009D01*
X19455398Y26679431D01*
X19920191Y26586977D01*
X20396478Y26681717D01*
X20800256Y26951512D01*
X21054488Y27205744D01*
X21324283Y27609521D01*
X21419023Y28085809D01*
X21401187Y28175475D01*
X22060141Y27516521D01*
X21970475Y27534357D01*
X21494187Y27439617D01*
X21090410Y27169822D01*
X20836178Y26915590D01*
X20566383Y26511812D01*
X20471643Y26035525D01*
X20555668Y25613103D01*
X20090875Y25705557D01*
X19614587Y25610817D01*
X19210810Y25341022D01*
X18956578Y25086790D01*
X18686783Y24683012D01*
X18592043Y24206725D01*
X18686783Y23730438D01*
X18956578Y23326660D01*
X19360356Y23056865D01*
X19836643Y22962125D01*
X20312930Y23056865D01*
X20716708Y23326660D01*
X20970940Y23580892D01*
X21160067Y23863941D01*
X24644137Y23863941D01*
X25390498Y23117579D01*
X25390498Y18456477D01*
X25387300Y18440400D01*
X25387300Y15443200D01*
X25417203Y15292869D01*
X25423069Y15263377D01*
X25524931Y15110931D01*
X28935414Y11700447D01*
X28935282Y11549135D01*
X29038739Y11298748D01*
X29230141Y11107013D01*
X29480346Y11003118D01*
X29751265Y11002882D01*
X30001652Y11106339D01*
X30193387Y11297741D01*
X30297282Y11547946D01*
X30297518Y11818865D01*
X30194061Y12069252D01*
X30096880Y12166602D01*
X30193387Y12262941D01*
X30297282Y12513146D01*
X30297518Y12784065D01*
X30194061Y13034452D01*
X30096880Y13131802D01*
X30193387Y13228141D01*
X30297282Y13478346D01*
X30297518Y13749265D01*
X30194061Y13999652D01*
X30096880Y14097002D01*
X30193387Y14193341D01*
X30297282Y14443546D01*
X30297518Y14714465D01*
X30194061Y14964852D01*
X30122280Y15036758D01*
X30193387Y15107741D01*
X30297282Y15357946D01*
X30297518Y15628865D01*
X30194061Y15879252D01*
X30096880Y15976602D01*
X30193387Y16072941D01*
X30297282Y16323146D01*
X30297518Y16594065D01*
X30194061Y16844452D01*
X30096880Y16941802D01*
X30193387Y17038141D01*
X30297282Y17288346D01*
X30297518Y17559265D01*
X30194061Y17809652D01*
X30147680Y17856114D01*
X30193387Y17901741D01*
X30238683Y18010825D01*
X30283339Y17902748D01*
X30391100Y17794800D01*
X30391100Y13563600D01*
X30426869Y13383777D01*
X30528731Y13231331D01*
X31399198Y12360863D01*
X31399082Y12227253D01*
X31502539Y11976866D01*
X31622306Y11856890D01*
X31361135Y11857118D01*
X31110748Y11753661D01*
X30919013Y11562259D01*
X30815118Y11312054D01*
X30814882Y11041135D01*
X30918339Y10790748D01*
X31109741Y10599013D01*
X31359946Y10495118D01*
X31630865Y10494882D01*
X31881252Y10598339D01*
X32072987Y10789741D01*
X32176882Y11039946D01*
X32177118Y11310865D01*
X32073661Y11561252D01*
X31953894Y11681228D01*
X32215065Y11681000D01*
X32465452Y11784457D01*
X32657187Y11975859D01*
X32761082Y12226064D01*
X32761318Y12496983D01*
X32657861Y12747370D01*
X32466459Y12939105D01*
X32216254Y13043000D01*
X32045990Y13043148D01*
X31330900Y13758238D01*
X31330900Y17794840D01*
X31437987Y17901741D01*
X31541882Y18151946D01*
X31542118Y18422865D01*
X31438661Y18673252D01*
X31247259Y18864987D01*
X30997054Y18968882D01*
X30726135Y18969118D01*
X30475748Y18865661D01*
X30284013Y18674259D01*
X30238717Y18565175D01*
X30194061Y18673252D01*
X30002659Y18864987D01*
X29752454Y18968882D01*
X29599924Y18969015D01*
X29120404Y19448535D01*
X34040682Y19448535D01*
X34144139Y19198148D01*
X34335541Y19006413D01*
X34585746Y18902518D01*
X34856665Y18902282D01*
X35107052Y19005739D01*
X35298787Y19197141D01*
X35402682Y19447346D01*
X35402918Y19718265D01*
X35299461Y19968652D01*
X35108059Y20160387D01*
X34857854Y20264282D01*
X34586935Y20264518D01*
X34336548Y20161061D01*
X34144813Y19969659D01*
X34040918Y19719454D01*
X34040682Y19448535D01*
X29120404Y19448535D01*
X28981400Y19587538D01*
X28981400Y20566135D01*
X30814882Y20566135D01*
X30918339Y20315748D01*
X31109741Y20124013D01*
X31359946Y20020118D01*
X31630865Y20019882D01*
X31881252Y20123339D01*
X32072987Y20314741D01*
X32176882Y20564946D01*
X32177118Y20835865D01*
X32073661Y21086252D01*
X31882259Y21277987D01*
X31632054Y21381882D01*
X31361135Y21382118D01*
X31110748Y21278661D01*
X30919013Y21087259D01*
X30815118Y20837054D01*
X30814882Y20566135D01*
X28981400Y20566135D01*
X28981400Y21413315D01*
X41618272Y21450301D01*
X41667652Y21460451D01*
X41709193Y21489013D01*
X41736349Y21531487D01*
X41744900Y21577300D01*
X41744900Y21772635D01*
X43311682Y21772635D01*
X43415139Y21522248D01*
X43606541Y21330513D01*
X43856746Y21226618D01*
X44127665Y21226382D01*
X44378052Y21329839D01*
X44569787Y21521241D01*
X44673682Y21771446D01*
X44673918Y22042365D01*
X44570461Y22292752D01*
X44379059Y22484487D01*
X44128854Y22588382D01*
X43857935Y22588618D01*
X43607548Y22485161D01*
X43415813Y22293759D01*
X43311918Y22043554D01*
X43311682Y21772635D01*
X41744900Y21772635D01*
X41744900Y23042635D01*
X44276882Y23042635D01*
X44380339Y22792248D01*
X44571741Y22600513D01*
X44821946Y22496618D01*
X45092865Y22496382D01*
X45343252Y22599839D01*
X45534987Y22791241D01*
X45638882Y23041446D01*
X45639014Y23192933D01*
X45673988Y23227803D01*
X45673882Y23106135D01*
X45777339Y22855748D01*
X45968741Y22664013D01*
X46218946Y22560118D01*
X46489865Y22559882D01*
X46740252Y22663339D01*
X46931987Y22854741D01*
X47035882Y23104946D01*
X47036118Y23375865D01*
X46932661Y23626252D01*
X46741259Y23817987D01*
X46491054Y23921882D01*
X46370251Y23921987D01*
X46375078Y23926800D01*
X51579936Y23926800D01*
X51579936Y22199600D01*
X51606503Y22058410D01*
X51689946Y21928735D01*
X51817266Y21841741D01*
X51968400Y21811136D01*
X54000400Y21811136D01*
X54141590Y21837703D01*
X54271265Y21921146D01*
X54358259Y22048466D01*
X54388864Y22199600D01*
X54388864Y23926800D01*
X54362297Y24067990D01*
X54278854Y24197665D01*
X54151534Y24284659D01*
X54000400Y24315264D01*
X51968400Y24315264D01*
X51827210Y24288697D01*
X51697535Y24205254D01*
X51610541Y24077934D01*
X51579936Y23926800D01*
X46375078Y23926800D01*
X47895751Y25442935D01*
X54030482Y25442935D01*
X54133939Y25192548D01*
X54325341Y25000813D01*
X54575546Y24896918D01*
X54846465Y24896682D01*
X55096852Y25000139D01*
X55288587Y25191541D01*
X55392482Y25441746D01*
X55392718Y25712665D01*
X55289261Y25963052D01*
X55097859Y26154787D01*
X54847654Y26258682D01*
X54576735Y26258918D01*
X54326348Y26155461D01*
X54134613Y25964059D01*
X54030718Y25713854D01*
X54030482Y25442935D01*
X47895751Y25442935D01*
X49406727Y26949400D01*
X54612140Y26949400D01*
X54719041Y26842313D01*
X54969246Y26738418D01*
X55240165Y26738182D01*
X55490552Y26841639D01*
X55682287Y27033041D01*
X55786182Y27283246D01*
X55786418Y27554165D01*
X55682961Y27804552D01*
X55491559Y27996287D01*
X55241354Y28100182D01*
X54970435Y28100418D01*
X54720048Y27996961D01*
X54612100Y27889200D01*
X49212500Y27889200D01*
X49122707Y27871339D01*
X49033326Y27853699D01*
X49033029Y27853501D01*
X49032677Y27853431D01*
X48956856Y27802769D01*
X48880728Y27752066D01*
X44975490Y23858485D01*
X44823135Y23858618D01*
X44572748Y23755161D01*
X44381013Y23563759D01*
X44277118Y23313554D01*
X44276882Y23042635D01*
X41744900Y23042635D01*
X41744900Y24550396D01*
X44095702Y24574507D01*
X44145007Y24585019D01*
X44186338Y24613885D01*
X44213182Y24656557D01*
X44221399Y24701993D01*
X44209644Y27728935D01*
X45572282Y27728935D01*
X45675739Y27478548D01*
X45867141Y27286813D01*
X46117346Y27182918D01*
X46388265Y27182682D01*
X46638652Y27286139D01*
X46830387Y27477541D01*
X46934282Y27727746D01*
X46934518Y27998665D01*
X46831061Y28249052D01*
X46639659Y28440787D01*
X46389454Y28544682D01*
X46118535Y28544918D01*
X45868148Y28441461D01*
X45676413Y28250059D01*
X45572518Y27999854D01*
X45572282Y27728935D01*
X44209644Y27728935D01*
X44205877Y28699029D01*
X58322856Y28699029D01*
X58449102Y28393491D01*
X58682662Y28159523D01*
X58987979Y28032745D01*
X59318571Y28032456D01*
X59624109Y28158702D01*
X59858077Y28392262D01*
X59984855Y28697579D01*
X59985144Y29028171D01*
X59858898Y29333709D01*
X59625338Y29567677D01*
X59320021Y29694455D01*
X58989429Y29694744D01*
X58683891Y29568498D01*
X58449923Y29334938D01*
X58323145Y29029621D01*
X58322856Y28699029D01*
X44205877Y28699029D01*
X44196204Y31189598D01*
X44672541Y31665935D01*
X45800882Y31665935D01*
X45904339Y31415548D01*
X46095741Y31223813D01*
X46345946Y31119918D01*
X46616865Y31119682D01*
X46867252Y31223139D01*
X47058987Y31414541D01*
X47162882Y31664746D01*
X47162911Y31699029D01*
X58322856Y31699029D01*
X58449102Y31393491D01*
X58682662Y31159523D01*
X58987979Y31032745D01*
X59318571Y31032456D01*
X59624109Y31158702D01*
X59858077Y31392262D01*
X59984855Y31697579D01*
X59985144Y32028171D01*
X59858898Y32333709D01*
X59625338Y32567677D01*
X59320021Y32694455D01*
X58989429Y32694744D01*
X58683891Y32568498D01*
X58449923Y32334938D01*
X58323145Y32029621D01*
X58322856Y31699029D01*
X47162911Y31699029D01*
X47163118Y31935665D01*
X47059661Y32186052D01*
X46868259Y32377787D01*
X46618054Y32481682D01*
X46347135Y32481918D01*
X46096748Y32378461D01*
X45905013Y32187059D01*
X45801118Y31936854D01*
X45800882Y31665935D01*
X44672541Y31665935D01*
X46577541Y33570935D01*
X52633482Y33570935D01*
X52736939Y33320548D01*
X52928341Y33128813D01*
X53178546Y33024918D01*
X53449465Y33024682D01*
X53699852Y33128139D01*
X53891587Y33319541D01*
X53995482Y33569746D01*
X53995571Y33672535D01*
X56138682Y33672535D01*
X56242139Y33422148D01*
X56433541Y33230413D01*
X56683746Y33126518D01*
X56954665Y33126282D01*
X57205052Y33229739D01*
X57396787Y33421141D01*
X57500682Y33671346D01*
X57500918Y33942265D01*
X57397461Y34192652D01*
X57206059Y34384387D01*
X56955854Y34488282D01*
X56684935Y34488518D01*
X56434548Y34385061D01*
X56242813Y34193659D01*
X56138918Y33943454D01*
X56138682Y33672535D01*
X53995571Y33672535D01*
X53995718Y33840665D01*
X53892261Y34091052D01*
X53700859Y34282787D01*
X53450654Y34386682D01*
X53179735Y34386918D01*
X52929348Y34283461D01*
X52737613Y34092059D01*
X52633718Y33841854D01*
X52633482Y33570935D01*
X46577541Y33570935D01*
X47804806Y34798200D01*
X60656400Y34847065D01*
X60656400Y21467621D01*
X60067689Y22348689D01*
X59136919Y22970610D01*
X58039000Y23189000D01*
X56941081Y22970610D01*
X56010311Y22348689D01*
X55388390Y21417919D01*
X55170000Y20320000D01*
X55388390Y19222081D01*
X56010311Y18291311D01*
X56941081Y17669390D01*
X58039000Y17451000D01*
X59136919Y17669390D01*
X60067689Y18291311D01*
X60656400Y19172379D01*
X60656400Y18045082D01*
X47171012Y4559694D01*
X45477023Y4521194D01*
X42125683Y4508500D01*
X40146880Y4508500D01*
X40190582Y4613746D01*
X40190818Y4884665D01*
X40087361Y5135052D01*
X40074102Y5148335D01*
X40238282Y5148335D01*
X40341739Y4897948D01*
X40533141Y4706213D01*
X40783346Y4602318D01*
X41054265Y4602082D01*
X41304652Y4705539D01*
X41496387Y4896941D01*
X41584957Y5110239D01*
X41765465Y5110082D01*
X42015852Y5213539D01*
X42207587Y5404941D01*
X42240119Y5483286D01*
X42281946Y5465918D01*
X42552865Y5465682D01*
X42803252Y5569139D01*
X42936391Y5702047D01*
X43107446Y5631018D01*
X43378365Y5630782D01*
X43628752Y5734239D01*
X43820487Y5925641D01*
X43924382Y6175846D01*
X43924618Y6446765D01*
X43821161Y6697152D01*
X43629759Y6888887D01*
X43379554Y6992782D01*
X43108635Y6993018D01*
X42858248Y6889561D01*
X42725109Y6756653D01*
X42554054Y6827682D01*
X42283135Y6827918D01*
X42032748Y6724461D01*
X41841013Y6533059D01*
X41808481Y6454714D01*
X41766654Y6472082D01*
X41495735Y6472318D01*
X41245348Y6368861D01*
X41053613Y6177459D01*
X40965043Y5964161D01*
X40784535Y5964318D01*
X40534148Y5860861D01*
X40342413Y5669459D01*
X40238518Y5419254D01*
X40238282Y5148335D01*
X40074102Y5148335D01*
X39895959Y5326787D01*
X39645754Y5430682D01*
X39374835Y5430918D01*
X39124448Y5327461D01*
X38932713Y5136059D01*
X38828818Y4885854D01*
X38828582Y4614935D01*
X38872560Y4508500D01*
X31788100Y4508500D01*
X31738690Y4498494D01*
X31697065Y4470053D01*
X31669785Y4427659D01*
X31661100Y4381500D01*
X31661100Y405200D01*
X17994282Y405200D01*
X14330647Y4068835D01*
X18051382Y4068835D01*
X18154839Y3818448D01*
X18346241Y3626713D01*
X18596446Y3522818D01*
X18867365Y3522582D01*
X19117752Y3626039D01*
X19309487Y3817441D01*
X19413382Y4067646D01*
X19413618Y4338565D01*
X19310161Y4588952D01*
X19118759Y4780687D01*
X18868554Y4884582D01*
X18597635Y4884818D01*
X18347248Y4781361D01*
X18155513Y4589959D01*
X18051618Y4339754D01*
X18051382Y4068835D01*
X14330647Y4068835D01*
X8793447Y9606035D01*
X12717382Y9606035D01*
X12820839Y9355648D01*
X13012241Y9163913D01*
X13262446Y9060018D01*
X13533365Y9059782D01*
X13783752Y9163239D01*
X13975487Y9354641D01*
X14079382Y9604846D01*
X14079618Y9875765D01*
X13976161Y10126152D01*
X13784759Y10317887D01*
X13534554Y10421782D01*
X13263635Y10422018D01*
X13013248Y10318561D01*
X12821513Y10127159D01*
X12717618Y9876954D01*
X12717382Y9606035D01*
X8793447Y9606035D01*
X4956164Y13443318D01*
X8686281Y13443318D01*
X8812527Y13137780D01*
X9046087Y12903812D01*
X9351404Y12777034D01*
X9681996Y12776745D01*
X9987534Y12902991D01*
X10221502Y13136551D01*
X10348280Y13441868D01*
X10348413Y13593928D01*
X10531946Y13517718D01*
X10684477Y13517585D01*
X12501636Y11700425D01*
X12501482Y11523735D01*
X12604939Y11273348D01*
X12796341Y11081613D01*
X13046546Y10977718D01*
X13199077Y10977585D01*
X15067014Y9109647D01*
X15066882Y8958335D01*
X15139715Y8782065D01*
X15009708Y8782179D01*
X14704170Y8655933D01*
X14470202Y8422373D01*
X14343424Y8117056D01*
X14343135Y7786464D01*
X14469381Y7480926D01*
X14702941Y7246958D01*
X15008258Y7120180D01*
X15338850Y7119891D01*
X15644388Y7246137D01*
X15689267Y7290938D01*
X15689182Y7193035D01*
X15792639Y6942648D01*
X15984041Y6750913D01*
X16234246Y6647018D01*
X16505165Y6646782D01*
X16755552Y6750239D01*
X16947287Y6941641D01*
X17031710Y7144952D01*
X18242080Y5934581D01*
X18241882Y5707135D01*
X18345339Y5456748D01*
X18536741Y5265013D01*
X18786946Y5161118D01*
X18939477Y5160985D01*
X20096192Y4004269D01*
X20096082Y3878335D01*
X20199539Y3627948D01*
X20390941Y3436213D01*
X20641146Y3332318D01*
X20912065Y3332082D01*
X21004645Y3370335D01*
X25125282Y3370335D01*
X25228739Y3119948D01*
X25420141Y2928213D01*
X25670346Y2824318D01*
X25941265Y2824082D01*
X26191652Y2927539D01*
X26383387Y3118941D01*
X26487282Y3369146D01*
X26487518Y3640065D01*
X26384061Y3890452D01*
X26192659Y4082187D01*
X25942454Y4186082D01*
X25671535Y4186318D01*
X25421148Y4082861D01*
X25229413Y3891459D01*
X25125518Y3641254D01*
X25125282Y3370335D01*
X21004645Y3370335D01*
X21162452Y3435539D01*
X21354187Y3626941D01*
X21458082Y3877146D01*
X21458318Y4148065D01*
X21354861Y4398452D01*
X21163459Y4590187D01*
X20913254Y4694082D01*
X20735302Y4694237D01*
X20586004Y4843535D01*
X29392482Y4843535D01*
X29495939Y4593148D01*
X29687341Y4401413D01*
X29937546Y4297518D01*
X30208465Y4297282D01*
X30458852Y4400739D01*
X30650587Y4592141D01*
X30754482Y4842346D01*
X30754718Y5113265D01*
X30651261Y5363652D01*
X30459859Y5555387D01*
X30209654Y5659282D01*
X29938735Y5659518D01*
X29688348Y5556061D01*
X29496613Y5364659D01*
X29392718Y5114454D01*
X29392482Y4843535D01*
X20586004Y4843535D01*
X19603986Y5825552D01*
X19604118Y5976865D01*
X19500661Y6227252D01*
X19309259Y6418987D01*
X19059054Y6522882D01*
X18982790Y6522948D01*
X16428986Y9076752D01*
X16429118Y9228065D01*
X16325661Y9478452D01*
X16134259Y9670187D01*
X15884054Y9774082D01*
X15731524Y9774215D01*
X13863586Y11642152D01*
X13863718Y11793465D01*
X13760261Y12043852D01*
X13568859Y12235587D01*
X13318654Y12339482D01*
X13191546Y12339593D01*
X11348986Y14182152D01*
X11349118Y14333465D01*
X11245661Y14583852D01*
X11054259Y14775587D01*
X10804054Y14879482D01*
X10533135Y14879718D01*
X10282748Y14776261D01*
X10091013Y14584859D01*
X9987118Y14334654D01*
X9987099Y14312657D01*
X9683446Y14438744D01*
X9352854Y14439033D01*
X9047316Y14312787D01*
X8813348Y14079227D01*
X8686570Y13773910D01*
X8686281Y13443318D01*
X4956164Y13443318D01*
X2252947Y16146535D01*
X6761082Y16146535D01*
X6864539Y15896148D01*
X7055941Y15704413D01*
X7306146Y15600518D01*
X7577065Y15600282D01*
X7827452Y15703739D01*
X8019187Y15895141D01*
X8123082Y16145346D01*
X8123318Y16416265D01*
X8019861Y16666652D01*
X7828459Y16858387D01*
X7578254Y16962282D01*
X7307335Y16962518D01*
X7056948Y16859061D01*
X6865213Y16667659D01*
X6761318Y16417454D01*
X6761082Y16146535D01*
X2252947Y16146535D01*
X354400Y18045082D01*
X354400Y20076677D01*
X524390Y19222081D01*
X1146311Y18291311D01*
X2077081Y17669390D01*
X3175000Y17451000D01*
X4272919Y17669390D01*
X5203689Y18291311D01*
X5825610Y19222081D01*
X6044000Y20320000D01*
X5868732Y21201135D01*
X7510382Y21201135D01*
X7613839Y20950748D01*
X7805241Y20759013D01*
X8055446Y20655118D01*
X8326365Y20654882D01*
X8576752Y20758339D01*
X8768487Y20949741D01*
X8872382Y21199946D01*
X8872618Y21470865D01*
X8769161Y21721252D01*
X8577759Y21912987D01*
X8327554Y22016882D01*
X8056635Y22017118D01*
X7806248Y21913661D01*
X7614513Y21722259D01*
X7510618Y21472054D01*
X7510382Y21201135D01*
X5868732Y21201135D01*
X5825610Y21417919D01*
X5203689Y22348689D01*
X4272919Y22970610D01*
X3175000Y23189000D01*
X2077081Y22970610D01*
X1146311Y22348689D01*
X524390Y21417919D01*
X354400Y20563323D01*
X354400Y25811235D01*
X4830682Y25811235D01*
X4934139Y25560848D01*
X5125541Y25369113D01*
X5375746Y25265218D01*
X5646665Y25264982D01*
X5897052Y25368439D01*
X6088787Y25559841D01*
X6192682Y25810046D01*
X6192918Y26080965D01*
X6089461Y26331352D01*
X5898059Y26523087D01*
X5647854Y26626982D01*
X5376935Y26627218D01*
X5126548Y26523761D01*
X4934813Y26332359D01*
X4830918Y26082154D01*
X4830682Y25811235D01*
X354400Y25811235D01*
X354400Y33139135D01*
X3459082Y33139135D01*
X3562539Y32888748D01*
X3753941Y32697013D01*
X4004146Y32593118D01*
X4275065Y32592882D01*
X4525452Y32696339D01*
X4717187Y32887741D01*
X4821082Y33137946D01*
X4821318Y33408865D01*
X4717861Y33659252D01*
X4526459Y33850987D01*
X4276254Y33954882D01*
X4005335Y33955118D01*
X3754948Y33851661D01*
X3563213Y33660259D01*
X3459318Y33410054D01*
X3459082Y33139135D01*
X354400Y33139135D01*
X354400Y35895921D01*
X6560726Y35895921D01*
X6560726Y35761217D01*
X7067818Y35254126D01*
X7207852Y35196122D01*
X7359423Y35196122D01*
X7499457Y35254126D01*
X7606633Y35361303D01*
X8114311Y35868980D01*
X8114311Y36003684D01*
X7391400Y36726595D01*
X6560726Y35895921D01*
X354400Y35895921D01*
X354400Y36874223D01*
X5681322Y36874223D01*
X5681322Y36722652D01*
X5739326Y36582618D01*
X6246417Y36075526D01*
X6381121Y36075526D01*
X7211795Y36906200D01*
X6488884Y37629111D01*
X6354180Y37629111D01*
X5846503Y37121433D01*
X5739326Y37014257D01*
X5681322Y36874223D01*
X354400Y36874223D01*
X354400Y40396677D01*
X524390Y39542081D01*
X1146311Y38611311D01*
X2077081Y37989390D01*
X3175000Y37771000D01*
X4041812Y37943420D01*
X6668489Y37943420D01*
X6668489Y37808716D01*
X7391400Y37085805D01*
X7405543Y37099947D01*
X7585148Y36920342D01*
X7571005Y36906200D01*
X8293916Y36183289D01*
X8428620Y36183289D01*
X8936297Y36690967D01*
X9043474Y36798143D01*
X9101478Y36938177D01*
X9101478Y37029728D01*
X9157870Y37017495D01*
X9309413Y37046010D01*
X9437923Y37131236D01*
X10874764Y38568077D01*
X10955814Y38686699D01*
X10988505Y38837396D01*
X10959990Y38988939D01*
X10874764Y39117449D01*
X9653449Y40338764D01*
X9534827Y40419814D01*
X9384130Y40452505D01*
X9232587Y40423990D01*
X9104077Y40338764D01*
X7667236Y38901923D01*
X7586186Y38783301D01*
X7553495Y38632604D01*
X7556567Y38616278D01*
X7423377Y38616278D01*
X7283343Y38558274D01*
X7176167Y38451097D01*
X6668489Y37943420D01*
X4041812Y37943420D01*
X4272919Y37989390D01*
X5203689Y38611311D01*
X5825610Y39542081D01*
X6044000Y40640000D01*
X5825610Y41737919D01*
X5203689Y42668689D01*
X4272919Y43290610D01*
X3175000Y43509000D01*
X2077081Y43290610D01*
X1146311Y42668689D01*
X524390Y41737919D01*
X354400Y40883323D01*
X354400Y43067318D01*
X5274451Y47987369D01*
X14737591Y38519100D01*
G36*
X18474362Y32981900D02*
X17416410Y32981900D01*
X17236587Y32946131D01*
X17084140Y32844269D01*
X17064024Y32824152D01*
X17058608Y32827771D01*
X16582321Y32922511D01*
X16106033Y32827771D01*
X15702256Y32557976D01*
X15448024Y32303744D01*
X15178229Y31899966D01*
X15083489Y31423679D01*
X15167514Y31001257D01*
X14702721Y31093711D01*
X14226433Y30998971D01*
X13822656Y30729176D01*
X13568424Y30474944D01*
X13298629Y30071166D01*
X13203889Y29594879D01*
X13298629Y29118592D01*
X13568424Y28714814D01*
X13972202Y28445019D01*
X14448489Y28350279D01*
X14924776Y28445019D01*
X15328554Y28714814D01*
X15582786Y28969046D01*
X15852581Y29372823D01*
X15947321Y29849111D01*
X15863296Y30271533D01*
X16328089Y30179079D01*
X16804376Y30273819D01*
X17208154Y30543614D01*
X17462386Y30797846D01*
X17732181Y31201623D01*
X17826921Y31677911D01*
X17754479Y32042100D01*
X18779162Y32042100D01*
X19718962Y31102300D01*
X19128912Y31102300D01*
X18949089Y31066531D01*
X18875825Y31017577D01*
X18854659Y31031720D01*
X18378372Y31126460D01*
X17902084Y31031720D01*
X17498307Y30761925D01*
X17244075Y30507693D01*
X16974280Y30103915D01*
X16879540Y29627628D01*
X16963565Y29205206D01*
X16498772Y29297660D01*
X16022484Y29202920D01*
X15618707Y28933125D01*
X15364475Y28678893D01*
X15094680Y28275115D01*
X14999940Y27798828D01*
X15094680Y27322541D01*
X15364475Y26918763D01*
X15768253Y26648968D01*
X16244540Y26554228D01*
X16720827Y26648968D01*
X17124605Y26918763D01*
X17378837Y27172995D01*
X17648632Y27576772D01*
X17743372Y28053060D01*
X17659347Y28475482D01*
X18124140Y28383028D01*
X18600427Y28477768D01*
X19004205Y28747563D01*
X19258437Y29001795D01*
X19528232Y29405572D01*
X19622972Y29881860D01*
X19567149Y30162500D01*
X20049162Y30162500D01*
X20896595Y29315067D01*
X20763191Y29288531D01*
X20667394Y29224521D01*
X20650710Y29235669D01*
X20174423Y29330409D01*
X19698135Y29235669D01*
X19294358Y28965874D01*
X19040126Y28711642D01*
X18770331Y28307864D01*
X18675591Y27831577D01*
X18759616Y27409155D01*
X18294823Y27501609D01*
X17818535Y27406869D01*
X17414758Y27137074D01*
X17160526Y26882842D01*
X16890731Y26479064D01*
X16795991Y26002777D01*
X16890731Y25526490D01*
X16894350Y25521074D01*
X15415731Y24042455D01*
X15313869Y23890009D01*
X15278100Y23710186D01*
X15278100Y22956571D01*
X15033154Y23058282D01*
X14762235Y23058518D01*
X14511848Y22955061D01*
X14320113Y22763659D01*
X14216218Y22513454D01*
X14215982Y22242535D01*
X14319439Y21992148D01*
X14510841Y21800413D01*
X14761046Y21696518D01*
X15031965Y21696282D01*
X15278100Y21797982D01*
X15278100Y20286038D01*
X12103100Y23461038D01*
X12103100Y30177054D01*
X12170735Y30244689D01*
X12176151Y30241070D01*
X12652438Y30146330D01*
X13128725Y30241070D01*
X13532503Y30510865D01*
X13786735Y30765097D01*
X14056530Y31168874D01*
X14151270Y31645162D01*
X14067245Y32067584D01*
X14532038Y31975130D01*
X15008325Y32069870D01*
X15412103Y32339665D01*
X15666335Y32593897D01*
X15936130Y32997674D01*
X16030870Y33473962D01*
X15936756Y33947100D01*
X17509162Y33947100D01*
X18474362Y32981900D01*
X18474362Y32981900D01*
G37*
X18474362Y32981900D02*
X17416410Y32981900D01*
X17236587Y32946131D01*
X17084140Y32844269D01*
X17064024Y32824152D01*
X17058608Y32827771D01*
X16582321Y32922511D01*
X16106033Y32827771D01*
X15702256Y32557976D01*
X15448024Y32303744D01*
X15178229Y31899966D01*
X15083489Y31423679D01*
X15167514Y31001257D01*
X14702721Y31093711D01*
X14226433Y30998971D01*
X13822656Y30729176D01*
X13568424Y30474944D01*
X13298629Y30071166D01*
X13203889Y29594879D01*
X13298629Y29118592D01*
X13568424Y28714814D01*
X13972202Y28445019D01*
X14448489Y28350279D01*
X14924776Y28445019D01*
X15328554Y28714814D01*
X15582786Y28969046D01*
X15852581Y29372823D01*
X15947321Y29849111D01*
X15863296Y30271533D01*
X16328089Y30179079D01*
X16804376Y30273819D01*
X17208154Y30543614D01*
X17462386Y30797846D01*
X17732181Y31201623D01*
X17826921Y31677911D01*
X17754479Y32042100D01*
X18779162Y32042100D01*
X19718962Y31102300D01*
X19128912Y31102300D01*
X18949089Y31066531D01*
X18875825Y31017577D01*
X18854659Y31031720D01*
X18378372Y31126460D01*
X17902084Y31031720D01*
X17498307Y30761925D01*
X17244075Y30507693D01*
X16974280Y30103915D01*
X16879540Y29627628D01*
X16963565Y29205206D01*
X16498772Y29297660D01*
X16022484Y29202920D01*
X15618707Y28933125D01*
X15364475Y28678893D01*
X15094680Y28275115D01*
X14999940Y27798828D01*
X15094680Y27322541D01*
X15364475Y26918763D01*
X15768253Y26648968D01*
X16244540Y26554228D01*
X16720827Y26648968D01*
X17124605Y26918763D01*
X17378837Y27172995D01*
X17648632Y27576772D01*
X17743372Y28053060D01*
X17659347Y28475482D01*
X18124140Y28383028D01*
X18600427Y28477768D01*
X19004205Y28747563D01*
X19258437Y29001795D01*
X19528232Y29405572D01*
X19622972Y29881860D01*
X19567149Y30162500D01*
X20049162Y30162500D01*
X20896595Y29315067D01*
X20763191Y29288531D01*
X20667394Y29224521D01*
X20650710Y29235669D01*
X20174423Y29330409D01*
X19698135Y29235669D01*
X19294358Y28965874D01*
X19040126Y28711642D01*
X18770331Y28307864D01*
X18675591Y27831577D01*
X18759616Y27409155D01*
X18294823Y27501609D01*
X17818535Y27406869D01*
X17414758Y27137074D01*
X17160526Y26882842D01*
X16890731Y26479064D01*
X16795991Y26002777D01*
X16890731Y25526490D01*
X16894350Y25521074D01*
X15415731Y24042455D01*
X15313869Y23890009D01*
X15278100Y23710186D01*
X15278100Y22956571D01*
X15033154Y23058282D01*
X14762235Y23058518D01*
X14511848Y22955061D01*
X14320113Y22763659D01*
X14216218Y22513454D01*
X14215982Y22242535D01*
X14319439Y21992148D01*
X14510841Y21800413D01*
X14761046Y21696518D01*
X15031965Y21696282D01*
X15278100Y21797982D01*
X15278100Y20286038D01*
X12103100Y23461038D01*
X12103100Y30177054D01*
X12170735Y30244689D01*
X12176151Y30241070D01*
X12652438Y30146330D01*
X13128725Y30241070D01*
X13532503Y30510865D01*
X13786735Y30765097D01*
X14056530Y31168874D01*
X14151270Y31645162D01*
X14067245Y32067584D01*
X14532038Y31975130D01*
X15008325Y32069870D01*
X15412103Y32339665D01*
X15666335Y32593897D01*
X15936130Y32997674D01*
X16030870Y33473962D01*
X15936756Y33947100D01*
X17509162Y33947100D01*
X18474362Y32981900D01*
G36*
X17178962Y34886900D02*
X15729308Y34886900D01*
X15549485Y34851131D01*
X15397038Y34749269D01*
X15267973Y34620203D01*
X15262557Y34623822D01*
X14786270Y34718562D01*
X14309982Y34623822D01*
X13906205Y34354027D01*
X13651973Y34099795D01*
X13382178Y33696017D01*
X13287438Y33219730D01*
X13371463Y32797308D01*
X12906670Y32889762D01*
X12430382Y32795022D01*
X12026605Y32525227D01*
X11772373Y32270995D01*
X11502578Y31867217D01*
X11407838Y31390930D01*
X11502578Y30914643D01*
X11506197Y30909227D01*
X11300931Y30703961D01*
X11199069Y30551515D01*
X11163300Y30371692D01*
X11163300Y23334038D01*
X10720872Y23776466D01*
X10720870Y23776469D01*
X9969500Y24527838D01*
X9969500Y31635558D01*
X10374683Y32040741D01*
X10380099Y32037122D01*
X10856386Y31942382D01*
X11332673Y32037122D01*
X11736451Y32306917D01*
X11990683Y32561149D01*
X12260478Y32964926D01*
X12355218Y33441214D01*
X12271193Y33863636D01*
X12735986Y33771182D01*
X13212273Y33865922D01*
X13616051Y34135717D01*
X13870283Y34389949D01*
X14140078Y34793726D01*
X14234818Y35270014D01*
X14154400Y35674300D01*
X16391562Y35674300D01*
X17178962Y34886900D01*
X17178962Y34886900D01*
G37*
X17178962Y34886900D02*
X15729308Y34886900D01*
X15549485Y34851131D01*
X15397038Y34749269D01*
X15267973Y34620203D01*
X15262557Y34623822D01*
X14786270Y34718562D01*
X14309982Y34623822D01*
X13906205Y34354027D01*
X13651973Y34099795D01*
X13382178Y33696017D01*
X13287438Y33219730D01*
X13371463Y32797308D01*
X12906670Y32889762D01*
X12430382Y32795022D01*
X12026605Y32525227D01*
X11772373Y32270995D01*
X11502578Y31867217D01*
X11407838Y31390930D01*
X11502578Y30914643D01*
X11506197Y30909227D01*
X11300931Y30703961D01*
X11199069Y30551515D01*
X11163300Y30371692D01*
X11163300Y23334038D01*
X10720872Y23776466D01*
X10720870Y23776469D01*
X9969500Y24527838D01*
X9969500Y31635558D01*
X10374683Y32040741D01*
X10380099Y32037122D01*
X10856386Y31942382D01*
X11332673Y32037122D01*
X11736451Y32306917D01*
X11990683Y32561149D01*
X12260478Y32964926D01*
X12355218Y33441214D01*
X12271193Y33863636D01*
X12735986Y33771182D01*
X13212273Y33865922D01*
X13616051Y34135717D01*
X13870283Y34389949D01*
X14140078Y34793726D01*
X14234818Y35270014D01*
X14154400Y35674300D01*
X16391562Y35674300D01*
X17178962Y34886900D01*
G36*
X60656400Y43067318D02*
X60656400Y41787621D01*
X60067689Y42668689D01*
X59136919Y43290610D01*
X58039000Y43509000D01*
X56941081Y43290610D01*
X56010311Y42668689D01*
X55388390Y41737919D01*
X55170000Y40640000D01*
X55388390Y39542081D01*
X56010311Y38611311D01*
X56941081Y37989390D01*
X58039000Y37771000D01*
X59136919Y37989390D01*
X60067689Y38611311D01*
X60656400Y39492379D01*
X60656400Y35560000D01*
X47498000Y35560000D01*
X47448590Y35549994D01*
X47408197Y35522803D01*
X43598197Y31712803D01*
X43570334Y31670789D01*
X43561004Y31624002D01*
X43511198Y25311100D01*
X41135300Y25311100D01*
X41085890Y25301094D01*
X41044265Y25272653D01*
X41016985Y25230259D01*
X41008304Y25185073D01*
X40983870Y21996400D01*
X29108400Y21996400D01*
X29108400Y25107900D01*
X29098394Y25157310D01*
X29071227Y25197678D01*
X28521466Y25747735D01*
X32046782Y25747735D01*
X32150239Y25497348D01*
X32341641Y25305613D01*
X32591846Y25201718D01*
X32862765Y25201482D01*
X33113152Y25304939D01*
X33304887Y25496341D01*
X33398728Y25722335D01*
X36212382Y25722335D01*
X36315839Y25471948D01*
X36507241Y25280213D01*
X36757446Y25176318D01*
X37028365Y25176082D01*
X37278752Y25279539D01*
X37470487Y25470941D01*
X37574382Y25721146D01*
X37574618Y25992065D01*
X37471161Y26242452D01*
X37279759Y26434187D01*
X37029554Y26538082D01*
X36758635Y26538318D01*
X36508248Y26434861D01*
X36316513Y26243459D01*
X36212618Y25993254D01*
X36212382Y25722335D01*
X33398728Y25722335D01*
X33408782Y25746546D01*
X33409018Y26017465D01*
X33305561Y26267852D01*
X33114159Y26459587D01*
X32863954Y26563482D01*
X32593035Y26563718D01*
X32342648Y26460261D01*
X32150913Y26268859D01*
X32047018Y26018654D01*
X32046782Y25747735D01*
X28521466Y25747735D01*
X11713104Y42565135D01*
X14718882Y42565135D01*
X14822339Y42314748D01*
X15013741Y42123013D01*
X15263946Y42019118D01*
X15398499Y42019001D01*
X26123050Y31294450D01*
X26279617Y31189836D01*
X26464300Y31153100D01*
X32818918Y31153100D01*
X32913141Y31058713D01*
X33163346Y30954818D01*
X33434265Y30954582D01*
X33684652Y31058039D01*
X33876387Y31249441D01*
X33980282Y31499646D01*
X33980518Y31770565D01*
X33877061Y32020952D01*
X33685659Y32212687D01*
X33435454Y32316582D01*
X33164535Y32316818D01*
X32914148Y32213361D01*
X32818922Y32118300D01*
X26664200Y32118300D01*
X24092365Y34690135D01*
X24868882Y34690135D01*
X24972339Y34439748D01*
X25163741Y34248013D01*
X25413946Y34144118D01*
X25684865Y34143882D01*
X25935252Y34247339D01*
X26126987Y34438741D01*
X26220994Y34665135D01*
X28618882Y34665135D01*
X28722339Y34414748D01*
X28913741Y34223013D01*
X29163946Y34119118D01*
X29434865Y34118882D01*
X29685252Y34222339D01*
X29876987Y34413741D01*
X29980882Y34663946D01*
X29981118Y34934865D01*
X29877661Y35185252D01*
X29686259Y35376987D01*
X29436054Y35480882D01*
X29165135Y35481118D01*
X28914748Y35377661D01*
X28723013Y35186259D01*
X28619118Y34936054D01*
X28618882Y34665135D01*
X26220994Y34665135D01*
X26230882Y34688946D01*
X26231118Y34959865D01*
X26127661Y35210252D01*
X25936259Y35401987D01*
X25686054Y35505882D01*
X25415135Y35506118D01*
X25164748Y35402661D01*
X24973013Y35211259D01*
X24869118Y34961054D01*
X24868882Y34690135D01*
X24092365Y34690135D01*
X21921699Y36860801D01*
X21924452Y36861939D01*
X22116187Y37053341D01*
X22220082Y37303546D01*
X22220318Y37574465D01*
X22116861Y37824852D01*
X21925459Y38016587D01*
X21675254Y38120482D01*
X21404335Y38120718D01*
X21153948Y38017261D01*
X20962213Y37825859D01*
X20960578Y37821922D01*
X17617365Y41165135D01*
X20318882Y41165135D01*
X20422339Y40914748D01*
X20613741Y40723013D01*
X20863946Y40619118D01*
X21134865Y40618882D01*
X21385252Y40722339D01*
X21576987Y40913741D01*
X21680882Y41163946D01*
X21681057Y41365135D01*
X24243882Y41365135D01*
X24347339Y41114748D01*
X24538741Y40923013D01*
X24788946Y40819118D01*
X25059865Y40818882D01*
X25310252Y40922339D01*
X25501987Y41113741D01*
X25605882Y41363946D01*
X25606118Y41634865D01*
X25524311Y41832855D01*
X29866653Y37490155D01*
X29789948Y37458461D01*
X29598213Y37267059D01*
X29494318Y37016854D01*
X29494082Y36745935D01*
X29597539Y36495548D01*
X29788941Y36303813D01*
X30039146Y36199918D01*
X30310065Y36199682D01*
X30560452Y36303139D01*
X30752187Y36494541D01*
X30784463Y36572269D01*
X34383669Y32972765D01*
X34383582Y32872435D01*
X34487039Y32622048D01*
X34678441Y32430313D01*
X34928646Y32326418D01*
X35199565Y32326182D01*
X35449952Y32429639D01*
X35641687Y32621041D01*
X35745582Y32871246D01*
X35745818Y33142165D01*
X35642361Y33392552D01*
X35450959Y33584287D01*
X35200754Y33688182D01*
X35099348Y33688270D01*
X26523192Y42265135D01*
X28618882Y42265135D01*
X28722339Y42014748D01*
X28913741Y41823013D01*
X29163946Y41719118D01*
X29434865Y41718882D01*
X29685252Y41822339D01*
X29876987Y42013741D01*
X29980882Y42263946D01*
X29981057Y42465135D01*
X33768882Y42465135D01*
X33872339Y42214748D01*
X34063741Y42023013D01*
X34313946Y41919118D01*
X34448499Y41919001D01*
X36911488Y39456012D01*
X36790135Y39456118D01*
X36539748Y39352661D01*
X36348013Y39161259D01*
X36244118Y38911054D01*
X36243882Y38640135D01*
X36347339Y38389748D01*
X36538741Y38198013D01*
X36788946Y38094118D01*
X37059865Y38093882D01*
X37211000Y38156329D01*
X37211000Y32128882D01*
X37116613Y32034659D01*
X37012718Y31784454D01*
X37012482Y31513535D01*
X37115939Y31263148D01*
X37307341Y31071413D01*
X37557546Y30967518D01*
X37828465Y30967282D01*
X38078852Y31070739D01*
X38270587Y31262141D01*
X38374482Y31512346D01*
X38374718Y31783265D01*
X38271261Y32033652D01*
X38176200Y32128878D01*
X38176200Y34526414D01*
X38222339Y34414748D01*
X38294000Y34342962D01*
X38294000Y33725000D01*
X38332517Y33531362D01*
X38442204Y33367204D01*
X38668969Y33140439D01*
X38668882Y33040135D01*
X38772339Y32789748D01*
X38963741Y32598013D01*
X39213946Y32494118D01*
X39484865Y32493882D01*
X39735252Y32597339D01*
X39926987Y32788741D01*
X39956466Y32859735D01*
X40873282Y32859735D01*
X40976739Y32609348D01*
X41168141Y32417613D01*
X41418346Y32313718D01*
X41689265Y32313482D01*
X41939652Y32416939D01*
X42131387Y32608341D01*
X42235282Y32858546D01*
X42235518Y33129465D01*
X42132061Y33379852D01*
X42060400Y33451638D01*
X42060400Y35375808D01*
X42232914Y35548322D01*
X42250996Y35560404D01*
X44274727Y37584135D01*
X46054882Y37584135D01*
X46158339Y37333748D01*
X46349741Y37142013D01*
X46599946Y37038118D01*
X46870865Y37037882D01*
X47121252Y37141339D01*
X47312987Y37332741D01*
X47416882Y37582946D01*
X47416888Y37590388D01*
X48045635Y38219135D01*
X51007882Y38219135D01*
X51111339Y37968748D01*
X51302741Y37777013D01*
X51552946Y37673118D01*
X51823865Y37672882D01*
X52074252Y37776339D01*
X52265987Y37967741D01*
X52369882Y38217946D01*
X52370118Y38488865D01*
X52266661Y38739252D01*
X52075259Y38930987D01*
X51825054Y39034882D01*
X51554135Y39035118D01*
X51303748Y38931661D01*
X51112013Y38740259D01*
X51008118Y38490054D01*
X51007882Y38219135D01*
X48045635Y38219135D01*
X50166498Y40339998D01*
X50299865Y40339882D01*
X50550252Y40443339D01*
X50741987Y40634741D01*
X50845882Y40884946D01*
X50846118Y41155865D01*
X50742661Y41406252D01*
X50551259Y41597987D01*
X50301054Y41701882D01*
X50030135Y41702118D01*
X49779748Y41598661D01*
X49588013Y41407259D01*
X49484118Y41157054D01*
X49484001Y41022501D01*
X46861391Y38399891D01*
X46601135Y38400118D01*
X46350748Y38296661D01*
X46159013Y38105259D01*
X46055118Y37855054D01*
X46054882Y37584135D01*
X44274727Y37584135D01*
X45182796Y38492204D01*
X45225502Y38556118D01*
X45292483Y38656362D01*
X45331000Y38850000D01*
X45331000Y41067877D01*
X45401987Y41138741D01*
X45505882Y41388946D01*
X45506118Y41659865D01*
X45402661Y41910252D01*
X45248047Y42065135D01*
X48518882Y42065135D01*
X48622339Y41814748D01*
X48813741Y41623013D01*
X49063946Y41519118D01*
X49334865Y41518882D01*
X49585252Y41622339D01*
X49776987Y41813741D01*
X49880882Y42063946D01*
X49881118Y42334865D01*
X49777661Y42585252D01*
X49586259Y42776987D01*
X49336054Y42880882D01*
X49065135Y42881118D01*
X48814748Y42777661D01*
X48623013Y42586259D01*
X48519118Y42336054D01*
X48518882Y42065135D01*
X45248047Y42065135D01*
X45211259Y42101987D01*
X44961054Y42205882D01*
X44690135Y42206118D01*
X44439748Y42102661D01*
X44248013Y41911259D01*
X44144118Y41661054D01*
X44143882Y41390135D01*
X44247339Y41139748D01*
X44319000Y41067962D01*
X44319000Y39059592D01*
X43489941Y38230533D01*
X43477661Y38260252D01*
X43286259Y38451987D01*
X43036054Y38555882D01*
X42765135Y38556118D01*
X42514748Y38452661D01*
X42323013Y38261259D01*
X42219118Y38011054D01*
X42218882Y37740135D01*
X42322339Y37489748D01*
X42513741Y37298013D01*
X42544605Y37285197D01*
X41570286Y36310878D01*
X41552204Y36298796D01*
X41196604Y35943196D01*
X41086917Y35779038D01*
X41048400Y35585400D01*
X41048400Y33451723D01*
X40977413Y33380859D01*
X40873518Y33130654D01*
X40873282Y32859735D01*
X39956466Y32859735D01*
X40030882Y33038946D01*
X40031118Y33309865D01*
X39927661Y33560252D01*
X39736259Y33751987D01*
X39486054Y33855882D01*
X39384622Y33855970D01*
X39306000Y33934592D01*
X39306000Y34342877D01*
X39376987Y34413741D01*
X39480882Y34663946D01*
X39481118Y34934865D01*
X39377661Y35185252D01*
X39186259Y35376987D01*
X38936054Y35480882D01*
X38665135Y35481118D01*
X38414748Y35377661D01*
X38223013Y35186259D01*
X38176200Y35073522D01*
X38176200Y39356400D01*
X38139464Y39541083D01*
X38034850Y39697650D01*
X35367365Y42365135D01*
X38118882Y42365135D01*
X38222339Y42114748D01*
X38413741Y41923013D01*
X38663946Y41819118D01*
X38934865Y41818882D01*
X39185252Y41922339D01*
X39353339Y42090135D01*
X42043882Y42090135D01*
X42147339Y41839748D01*
X42338741Y41648013D01*
X42588946Y41544118D01*
X42859865Y41543882D01*
X43110252Y41647339D01*
X43301987Y41838741D01*
X43405882Y42088946D01*
X43406118Y42359865D01*
X43302661Y42610252D01*
X43111259Y42801987D01*
X42861054Y42905882D01*
X42590135Y42906118D01*
X42339748Y42802661D01*
X42148013Y42611259D01*
X42044118Y42361054D01*
X42043882Y42090135D01*
X39353339Y42090135D01*
X39376987Y42113741D01*
X39480882Y42363946D01*
X39481118Y42634865D01*
X39377661Y42885252D01*
X39186259Y43076987D01*
X38936054Y43180882D01*
X38665135Y43181118D01*
X38414748Y43077661D01*
X38223013Y42886259D01*
X38119118Y42636054D01*
X38118882Y42365135D01*
X35367365Y42365135D01*
X35131002Y42601498D01*
X35131118Y42734865D01*
X35027661Y42985252D01*
X34836259Y43176987D01*
X34586054Y43280882D01*
X34315135Y43281118D01*
X34064748Y43177661D01*
X33873013Y42986259D01*
X33769118Y42736054D01*
X33768882Y42465135D01*
X29981057Y42465135D01*
X29981118Y42534865D01*
X29877661Y42785252D01*
X29686259Y42976987D01*
X29436054Y43080882D01*
X29165135Y43081118D01*
X28914748Y42977661D01*
X28723013Y42786259D01*
X28619118Y42536054D01*
X28618882Y42265135D01*
X26523192Y42265135D01*
X25730611Y43057781D01*
X25730602Y43057787D01*
X25730596Y43057796D01*
X25646142Y43114226D01*
X25566457Y43167475D01*
X25566447Y43167477D01*
X25566438Y43167483D01*
X25478015Y43185071D01*
X25386259Y43276987D01*
X25136054Y43380882D01*
X24865135Y43381118D01*
X24614748Y43277661D01*
X24423013Y43086259D01*
X24319118Y42836054D01*
X24318882Y42565135D01*
X24422339Y42314748D01*
X24613741Y42123013D01*
X24631581Y42115605D01*
X24539748Y42077661D01*
X24348013Y41886259D01*
X24244118Y41636054D01*
X24243882Y41365135D01*
X21681057Y41365135D01*
X21681118Y41434865D01*
X21577661Y41685252D01*
X21386259Y41876987D01*
X21136054Y41980882D01*
X20865135Y41981118D01*
X20614748Y41877661D01*
X20423013Y41686259D01*
X20319118Y41436054D01*
X20318882Y41165135D01*
X17617365Y41165135D01*
X16081002Y42701498D01*
X16081118Y42834865D01*
X15977661Y43085252D01*
X15786259Y43276987D01*
X15536054Y43380882D01*
X15265135Y43381118D01*
X15014748Y43277661D01*
X14823013Y43086259D01*
X14719118Y42836054D01*
X14718882Y42565135D01*
X11713104Y42565135D01*
X7415415Y46865135D01*
X19718882Y46865135D01*
X19822339Y46614748D01*
X20013741Y46423013D01*
X20263946Y46319118D01*
X20534865Y46318882D01*
X20785252Y46422339D01*
X20976987Y46613741D01*
X21080882Y46863946D01*
X21081118Y47134865D01*
X21027292Y47265135D01*
X22218882Y47265135D01*
X22322339Y47014748D01*
X22513741Y46823013D01*
X22763946Y46719118D01*
X23034865Y46718882D01*
X23285252Y46822339D01*
X23476987Y47013741D01*
X23529470Y47140135D01*
X27693882Y47140135D01*
X27797339Y46889748D01*
X27988741Y46698013D01*
X28238946Y46594118D01*
X28509865Y46593882D01*
X28760252Y46697339D01*
X28951987Y46888741D01*
X29055882Y47138946D01*
X29056013Y47290135D01*
X32518882Y47290135D01*
X32622339Y47039748D01*
X32813741Y46848013D01*
X33063946Y46744118D01*
X33334865Y46743882D01*
X33585252Y46847339D01*
X33776987Y47038741D01*
X33777565Y47040135D01*
X38118882Y47040135D01*
X38222339Y46789748D01*
X38413741Y46598013D01*
X38663946Y46494118D01*
X38934865Y46493882D01*
X39185252Y46597339D01*
X39376987Y46788741D01*
X39480882Y47038946D01*
X39481079Y47265135D01*
X41718882Y47265135D01*
X41822339Y47014748D01*
X42013741Y46823013D01*
X42263946Y46719118D01*
X42534865Y46718882D01*
X42785252Y46822339D01*
X42976987Y47013741D01*
X43080882Y47263946D01*
X43080883Y47265135D01*
X51718882Y47265135D01*
X51822339Y47014748D01*
X52013741Y46823013D01*
X52263946Y46719118D01*
X52534865Y46718882D01*
X52785252Y46822339D01*
X52976987Y47013741D01*
X53080882Y47263946D01*
X53081118Y47534865D01*
X52977661Y47785252D01*
X52786259Y47976987D01*
X52536054Y48080882D01*
X52265135Y48081118D01*
X52014748Y47977661D01*
X51823013Y47786259D01*
X51719118Y47536054D01*
X51718882Y47265135D01*
X43080883Y47265135D01*
X43081118Y47534865D01*
X42977661Y47785252D01*
X42786259Y47976987D01*
X42536054Y48080882D01*
X42265135Y48081118D01*
X42014748Y47977661D01*
X41823013Y47786259D01*
X41719118Y47536054D01*
X41718882Y47265135D01*
X39481079Y47265135D01*
X39481118Y47309865D01*
X39377661Y47560252D01*
X39186259Y47751987D01*
X38936054Y47855882D01*
X38665135Y47856118D01*
X38414748Y47752661D01*
X38223013Y47561259D01*
X38119118Y47311054D01*
X38118882Y47040135D01*
X33777565Y47040135D01*
X33880882Y47288946D01*
X33881118Y47559865D01*
X33777661Y47810252D01*
X33586259Y48001987D01*
X33336054Y48105882D01*
X33065135Y48106118D01*
X32814748Y48002661D01*
X32623013Y47811259D01*
X32519118Y47561054D01*
X32518882Y47290135D01*
X29056013Y47290135D01*
X29056118Y47409865D01*
X28952661Y47660252D01*
X28761259Y47851987D01*
X28511054Y47955882D01*
X28240135Y47956118D01*
X27989748Y47852661D01*
X27798013Y47661259D01*
X27694118Y47411054D01*
X27693882Y47140135D01*
X23529470Y47140135D01*
X23580882Y47263946D01*
X23581118Y47534865D01*
X23477661Y47785252D01*
X23286259Y47976987D01*
X23036054Y48080882D01*
X22765135Y48081118D01*
X22514748Y47977661D01*
X22323013Y47786259D01*
X22219118Y47536054D01*
X22218882Y47265135D01*
X21027292Y47265135D01*
X20977661Y47385252D01*
X20786259Y47576987D01*
X20536054Y47680882D01*
X20265135Y47681118D01*
X20014748Y47577661D01*
X19823013Y47386259D01*
X19719118Y47136054D01*
X19718882Y46865135D01*
X7415415Y46865135D01*
X5784254Y48497172D01*
X7852217Y50565135D01*
X48118882Y50565135D01*
X48222339Y50314748D01*
X48413741Y50123013D01*
X48663946Y50019118D01*
X48934865Y50018882D01*
X49185252Y50122339D01*
X49376987Y50313741D01*
X49480882Y50563946D01*
X49481118Y50834865D01*
X49377661Y51085252D01*
X49186259Y51276987D01*
X48936054Y51380882D01*
X48665135Y51381118D01*
X48414748Y51277661D01*
X48223013Y51086259D01*
X48119118Y50836054D01*
X48118882Y50565135D01*
X7852217Y50565135D01*
X10982682Y53695600D01*
X20337936Y53695600D01*
X20337936Y51968400D01*
X20364503Y51827210D01*
X20447946Y51697535D01*
X20575266Y51610541D01*
X20726400Y51579936D01*
X22453600Y51579936D01*
X22594790Y51606503D01*
X22724465Y51689946D01*
X22811459Y51817266D01*
X22842064Y51968400D01*
X22842064Y52856383D01*
X22885400Y52856383D01*
X22885400Y52807617D01*
X22980140Y52331329D01*
X23249935Y51927552D01*
X23653712Y51657757D01*
X24130000Y51563017D01*
X24606288Y51657757D01*
X25010065Y51927552D01*
X25279860Y52331329D01*
X25374600Y52807617D01*
X25374600Y52856383D01*
X25425400Y52856383D01*
X25425400Y52807617D01*
X25520140Y52331329D01*
X25789935Y51927552D01*
X26193712Y51657757D01*
X26670000Y51563017D01*
X27146288Y51657757D01*
X27550065Y51927552D01*
X27819860Y52331329D01*
X27914600Y52807617D01*
X27914600Y52856383D01*
X27965400Y52856383D01*
X27965400Y52807617D01*
X28060140Y52331329D01*
X28329935Y51927552D01*
X28733712Y51657757D01*
X29210000Y51563017D01*
X29686288Y51657757D01*
X30090065Y51927552D01*
X30359860Y52331329D01*
X30454600Y52807617D01*
X30454600Y52856383D01*
X30359860Y53332671D01*
X30090065Y53736448D01*
X29686288Y54006243D01*
X29210000Y54100983D01*
X28733712Y54006243D01*
X28329935Y53736448D01*
X28060140Y53332671D01*
X27965400Y52856383D01*
X27914600Y52856383D01*
X27819860Y53332671D01*
X27550065Y53736448D01*
X27146288Y54006243D01*
X26670000Y54100983D01*
X26193712Y54006243D01*
X25789935Y53736448D01*
X25520140Y53332671D01*
X25425400Y52856383D01*
X25374600Y52856383D01*
X25279860Y53332671D01*
X25010065Y53736448D01*
X24606288Y54006243D01*
X24130000Y54100983D01*
X23653712Y54006243D01*
X23249935Y53736448D01*
X22980140Y53332671D01*
X22885400Y52856383D01*
X22842064Y52856383D01*
X22842064Y53695600D01*
X22815497Y53836790D01*
X22732054Y53966465D01*
X22604734Y54053459D01*
X22453600Y54084064D01*
X20726400Y54084064D01*
X20585210Y54057497D01*
X20455535Y53974054D01*
X20368541Y53846734D01*
X20337936Y53695600D01*
X10982682Y53695600D01*
X12054317Y54767235D01*
X15358982Y54767235D01*
X15462439Y54516848D01*
X15653841Y54325113D01*
X15904046Y54221218D01*
X16174965Y54220982D01*
X16425352Y54324439D01*
X16617087Y54515841D01*
X16720982Y54766046D01*
X16721099Y54900599D01*
X17216883Y55396383D01*
X20345400Y55396383D01*
X20345400Y55347617D01*
X20440140Y54871329D01*
X20709935Y54467552D01*
X21113712Y54197757D01*
X21590000Y54103017D01*
X22066288Y54197757D01*
X22470065Y54467552D01*
X22739860Y54871329D01*
X22834600Y55347617D01*
X22834600Y55396383D01*
X22885400Y55396383D01*
X22885400Y55347617D01*
X22980140Y54871329D01*
X23249935Y54467552D01*
X23653712Y54197757D01*
X24130000Y54103017D01*
X24606288Y54197757D01*
X25010065Y54467552D01*
X25279860Y54871329D01*
X25374600Y55347617D01*
X25374600Y55396383D01*
X25425400Y55396383D01*
X25425400Y55347617D01*
X25520140Y54871329D01*
X25789935Y54467552D01*
X26193712Y54197757D01*
X26670000Y54103017D01*
X27146288Y54197757D01*
X27550065Y54467552D01*
X27819860Y54871329D01*
X27914600Y55347617D01*
X27914600Y55396383D01*
X27819860Y55872671D01*
X27550065Y56276448D01*
X27146288Y56546243D01*
X26670000Y56640983D01*
X26193712Y56546243D01*
X25789935Y56276448D01*
X25520140Y55872671D01*
X25425400Y55396383D01*
X25374600Y55396383D01*
X25279860Y55872671D01*
X25010065Y56276448D01*
X24606288Y56546243D01*
X24130000Y56640983D01*
X23653712Y56546243D01*
X23249935Y56276448D01*
X22980140Y55872671D01*
X22885400Y55396383D01*
X22834600Y55396383D01*
X22739860Y55872671D01*
X22470065Y56276448D01*
X22066288Y56546243D01*
X21590000Y56640983D01*
X21113712Y56546243D01*
X20709935Y56276448D01*
X20440140Y55872671D01*
X20345400Y55396383D01*
X17216883Y55396383D01*
X18906496Y57085996D01*
X29656504Y57085996D01*
X29992400Y56750100D01*
X29992400Y56341706D01*
X29686288Y56546243D01*
X29210000Y56640983D01*
X28733712Y56546243D01*
X28329935Y56276448D01*
X28060140Y55872671D01*
X27965400Y55396383D01*
X27965400Y55347617D01*
X28060140Y54871329D01*
X28329935Y54467552D01*
X28733712Y54197757D01*
X29210000Y54103017D01*
X29686288Y54197757D01*
X29992400Y54402294D01*
X29992400Y54107000D01*
X30029136Y53922317D01*
X30133750Y53765750D01*
X30594613Y53304887D01*
X30505400Y52856383D01*
X30505400Y52807617D01*
X30600140Y52331329D01*
X30869935Y51927552D01*
X31273712Y51657757D01*
X31750000Y51563017D01*
X32226288Y51657757D01*
X32630065Y51927552D01*
X32899860Y52331329D01*
X32994600Y52807617D01*
X32994600Y52856383D01*
X32899860Y53332671D01*
X32630065Y53736448D01*
X32226288Y54006243D01*
X31750000Y54100983D01*
X31273712Y54006243D01*
X31264447Y54000053D01*
X30957600Y54306900D01*
X30957600Y54408976D01*
X31273712Y54197757D01*
X31750000Y54103017D01*
X32226288Y54197757D01*
X32542400Y54408976D01*
X32542400Y54097000D01*
X32579136Y53912317D01*
X32683750Y53755750D01*
X33134613Y53304887D01*
X33045400Y52856383D01*
X33045400Y52807617D01*
X33140140Y52331329D01*
X33409935Y51927552D01*
X33813712Y51657757D01*
X34290000Y51563017D01*
X34766288Y51657757D01*
X35170065Y51927552D01*
X35439860Y52331329D01*
X35534600Y52807617D01*
X35534600Y52856383D01*
X35439860Y53332671D01*
X35170065Y53736448D01*
X34766288Y54006243D01*
X34290000Y54100983D01*
X33813712Y54006243D01*
X33804447Y54000053D01*
X33507600Y54296900D01*
X33507600Y54402294D01*
X33813712Y54197757D01*
X34290000Y54103017D01*
X34766288Y54197757D01*
X35067400Y54398953D01*
X35067400Y54112000D01*
X35104136Y53927317D01*
X35208750Y53770750D01*
X35674613Y53304887D01*
X35585400Y52856383D01*
X35585400Y52807617D01*
X35680140Y52331329D01*
X35949935Y51927552D01*
X36353712Y51657757D01*
X36830000Y51563017D01*
X37306288Y51657757D01*
X37710065Y51927552D01*
X37979860Y52331329D01*
X38015972Y52512880D01*
X38166995Y52512880D01*
X38380690Y52076801D01*
X38744999Y51755695D01*
X39050882Y51629007D01*
X39243000Y51689688D01*
X39243000Y52705000D01*
X39497000Y52705000D01*
X39497000Y51689688D01*
X39689118Y51629007D01*
X39995001Y51755695D01*
X40359310Y52076801D01*
X40573005Y52512880D01*
X40512865Y52705000D01*
X39497000Y52705000D01*
X39243000Y52705000D01*
X38227135Y52705000D01*
X38166995Y52512880D01*
X38015972Y52512880D01*
X38074600Y52807617D01*
X38074600Y52856383D01*
X38015973Y53151120D01*
X38166995Y53151120D01*
X38227135Y52959000D01*
X39243000Y52959000D01*
X39243000Y53974312D01*
X39497000Y53974312D01*
X39497000Y52959000D01*
X40512865Y52959000D01*
X40573005Y53151120D01*
X40359310Y53587199D01*
X39995001Y53908305D01*
X39689118Y54034993D01*
X39497000Y53974312D01*
X39243000Y53974312D01*
X39050882Y54034993D01*
X38744999Y53908305D01*
X38380690Y53587199D01*
X38166995Y53151120D01*
X38015973Y53151120D01*
X37979860Y53332671D01*
X37710065Y53736448D01*
X37306288Y54006243D01*
X36830000Y54100983D01*
X36353712Y54006243D01*
X36344447Y54000052D01*
X36032600Y54311900D01*
X36032600Y54412317D01*
X36353712Y54197757D01*
X36830000Y54103017D01*
X37306288Y54197757D01*
X37710065Y54467552D01*
X37979860Y54871329D01*
X38015972Y55052880D01*
X38166995Y55052880D01*
X38380690Y54616801D01*
X38744999Y54295695D01*
X39050882Y54169007D01*
X39243000Y54229688D01*
X39243000Y55245000D01*
X39497000Y55245000D01*
X39497000Y54229688D01*
X39689118Y54169007D01*
X39995001Y54295695D01*
X40359310Y54616801D01*
X40573005Y55052880D01*
X40512865Y55245000D01*
X39497000Y55245000D01*
X39243000Y55245000D01*
X38227135Y55245000D01*
X38166995Y55052880D01*
X38015972Y55052880D01*
X38074600Y55347617D01*
X38074600Y55365135D01*
X43968882Y55365135D01*
X44072339Y55114748D01*
X44263741Y54923013D01*
X44513946Y54819118D01*
X44784865Y54818882D01*
X45035252Y54922339D01*
X45226987Y55113741D01*
X45330882Y55363946D01*
X45331118Y55634865D01*
X45227661Y55885252D01*
X45036259Y56076987D01*
X44786054Y56180882D01*
X44515135Y56181118D01*
X44264748Y56077661D01*
X44073013Y55886259D01*
X43969118Y55636054D01*
X43968882Y55365135D01*
X38074600Y55365135D01*
X38074600Y55396383D01*
X38015973Y55691120D01*
X38166995Y55691120D01*
X38227135Y55499000D01*
X39243000Y55499000D01*
X39243000Y56514312D01*
X39497000Y56514312D01*
X39497000Y55499000D01*
X40512865Y55499000D01*
X40573005Y55691120D01*
X40359310Y56127199D01*
X39995001Y56448305D01*
X39689118Y56574993D01*
X39497000Y56514312D01*
X39243000Y56514312D01*
X39050882Y56574993D01*
X38744999Y56448305D01*
X38380690Y56127199D01*
X38166995Y55691120D01*
X38015973Y55691120D01*
X37979860Y55872671D01*
X37710065Y56276448D01*
X37306288Y56546243D01*
X36830000Y56640983D01*
X36353712Y56546243D01*
X36032600Y56331683D01*
X36032600Y56825000D01*
X35995864Y57009683D01*
X35891250Y57166250D01*
X34341250Y58716250D01*
X34184683Y58820864D01*
X34000000Y58857600D01*
X17341305Y58857600D01*
X17341300Y58857601D01*
X17156617Y58820864D01*
X17000050Y58716250D01*
X17000048Y58716247D01*
X16064002Y57780202D01*
X15930635Y57780318D01*
X15680248Y57676861D01*
X15488513Y57485459D01*
X15384618Y57235254D01*
X15384382Y56964335D01*
X15487839Y56713948D01*
X15629459Y56572082D01*
X15501213Y56444059D01*
X15397318Y56193854D01*
X15397082Y55922935D01*
X15500539Y55672548D01*
X15681853Y55490919D01*
X15654848Y55479761D01*
X15463113Y55288359D01*
X15359218Y55038154D01*
X15358982Y54767235D01*
X12054317Y54767235D01*
X17994282Y60707200D01*
X43016518Y60707200D01*
X60656400Y43067318D01*
X60656400Y43067318D01*
G37*
X60656400Y43067318D02*
X60656400Y41787621D01*
X60067689Y42668689D01*
X59136919Y43290610D01*
X58039000Y43509000D01*
X56941081Y43290610D01*
X56010311Y42668689D01*
X55388390Y41737919D01*
X55170000Y40640000D01*
X55388390Y39542081D01*
X56010311Y38611311D01*
X56941081Y37989390D01*
X58039000Y37771000D01*
X59136919Y37989390D01*
X60067689Y38611311D01*
X60656400Y39492379D01*
X60656400Y35560000D01*
X47498000Y35560000D01*
X47448590Y35549994D01*
X47408197Y35522803D01*
X43598197Y31712803D01*
X43570334Y31670789D01*
X43561004Y31624002D01*
X43511198Y25311100D01*
X41135300Y25311100D01*
X41085890Y25301094D01*
X41044265Y25272653D01*
X41016985Y25230259D01*
X41008304Y25185073D01*
X40983870Y21996400D01*
X29108400Y21996400D01*
X29108400Y25107900D01*
X29098394Y25157310D01*
X29071227Y25197678D01*
X28521466Y25747735D01*
X32046782Y25747735D01*
X32150239Y25497348D01*
X32341641Y25305613D01*
X32591846Y25201718D01*
X32862765Y25201482D01*
X33113152Y25304939D01*
X33304887Y25496341D01*
X33398728Y25722335D01*
X36212382Y25722335D01*
X36315839Y25471948D01*
X36507241Y25280213D01*
X36757446Y25176318D01*
X37028365Y25176082D01*
X37278752Y25279539D01*
X37470487Y25470941D01*
X37574382Y25721146D01*
X37574618Y25992065D01*
X37471161Y26242452D01*
X37279759Y26434187D01*
X37029554Y26538082D01*
X36758635Y26538318D01*
X36508248Y26434861D01*
X36316513Y26243459D01*
X36212618Y25993254D01*
X36212382Y25722335D01*
X33398728Y25722335D01*
X33408782Y25746546D01*
X33409018Y26017465D01*
X33305561Y26267852D01*
X33114159Y26459587D01*
X32863954Y26563482D01*
X32593035Y26563718D01*
X32342648Y26460261D01*
X32150913Y26268859D01*
X32047018Y26018654D01*
X32046782Y25747735D01*
X28521466Y25747735D01*
X11713104Y42565135D01*
X14718882Y42565135D01*
X14822339Y42314748D01*
X15013741Y42123013D01*
X15263946Y42019118D01*
X15398499Y42019001D01*
X26123050Y31294450D01*
X26279617Y31189836D01*
X26464300Y31153100D01*
X32818918Y31153100D01*
X32913141Y31058713D01*
X33163346Y30954818D01*
X33434265Y30954582D01*
X33684652Y31058039D01*
X33876387Y31249441D01*
X33980282Y31499646D01*
X33980518Y31770565D01*
X33877061Y32020952D01*
X33685659Y32212687D01*
X33435454Y32316582D01*
X33164535Y32316818D01*
X32914148Y32213361D01*
X32818922Y32118300D01*
X26664200Y32118300D01*
X24092365Y34690135D01*
X24868882Y34690135D01*
X24972339Y34439748D01*
X25163741Y34248013D01*
X25413946Y34144118D01*
X25684865Y34143882D01*
X25935252Y34247339D01*
X26126987Y34438741D01*
X26220994Y34665135D01*
X28618882Y34665135D01*
X28722339Y34414748D01*
X28913741Y34223013D01*
X29163946Y34119118D01*
X29434865Y34118882D01*
X29685252Y34222339D01*
X29876987Y34413741D01*
X29980882Y34663946D01*
X29981118Y34934865D01*
X29877661Y35185252D01*
X29686259Y35376987D01*
X29436054Y35480882D01*
X29165135Y35481118D01*
X28914748Y35377661D01*
X28723013Y35186259D01*
X28619118Y34936054D01*
X28618882Y34665135D01*
X26220994Y34665135D01*
X26230882Y34688946D01*
X26231118Y34959865D01*
X26127661Y35210252D01*
X25936259Y35401987D01*
X25686054Y35505882D01*
X25415135Y35506118D01*
X25164748Y35402661D01*
X24973013Y35211259D01*
X24869118Y34961054D01*
X24868882Y34690135D01*
X24092365Y34690135D01*
X21921699Y36860801D01*
X21924452Y36861939D01*
X22116187Y37053341D01*
X22220082Y37303546D01*
X22220318Y37574465D01*
X22116861Y37824852D01*
X21925459Y38016587D01*
X21675254Y38120482D01*
X21404335Y38120718D01*
X21153948Y38017261D01*
X20962213Y37825859D01*
X20960578Y37821922D01*
X17617365Y41165135D01*
X20318882Y41165135D01*
X20422339Y40914748D01*
X20613741Y40723013D01*
X20863946Y40619118D01*
X21134865Y40618882D01*
X21385252Y40722339D01*
X21576987Y40913741D01*
X21680882Y41163946D01*
X21681057Y41365135D01*
X24243882Y41365135D01*
X24347339Y41114748D01*
X24538741Y40923013D01*
X24788946Y40819118D01*
X25059865Y40818882D01*
X25310252Y40922339D01*
X25501987Y41113741D01*
X25605882Y41363946D01*
X25606118Y41634865D01*
X25524311Y41832855D01*
X29866653Y37490155D01*
X29789948Y37458461D01*
X29598213Y37267059D01*
X29494318Y37016854D01*
X29494082Y36745935D01*
X29597539Y36495548D01*
X29788941Y36303813D01*
X30039146Y36199918D01*
X30310065Y36199682D01*
X30560452Y36303139D01*
X30752187Y36494541D01*
X30784463Y36572269D01*
X34383669Y32972765D01*
X34383582Y32872435D01*
X34487039Y32622048D01*
X34678441Y32430313D01*
X34928646Y32326418D01*
X35199565Y32326182D01*
X35449952Y32429639D01*
X35641687Y32621041D01*
X35745582Y32871246D01*
X35745818Y33142165D01*
X35642361Y33392552D01*
X35450959Y33584287D01*
X35200754Y33688182D01*
X35099348Y33688270D01*
X26523192Y42265135D01*
X28618882Y42265135D01*
X28722339Y42014748D01*
X28913741Y41823013D01*
X29163946Y41719118D01*
X29434865Y41718882D01*
X29685252Y41822339D01*
X29876987Y42013741D01*
X29980882Y42263946D01*
X29981057Y42465135D01*
X33768882Y42465135D01*
X33872339Y42214748D01*
X34063741Y42023013D01*
X34313946Y41919118D01*
X34448499Y41919001D01*
X36911488Y39456012D01*
X36790135Y39456118D01*
X36539748Y39352661D01*
X36348013Y39161259D01*
X36244118Y38911054D01*
X36243882Y38640135D01*
X36347339Y38389748D01*
X36538741Y38198013D01*
X36788946Y38094118D01*
X37059865Y38093882D01*
X37211000Y38156329D01*
X37211000Y32128882D01*
X37116613Y32034659D01*
X37012718Y31784454D01*
X37012482Y31513535D01*
X37115939Y31263148D01*
X37307341Y31071413D01*
X37557546Y30967518D01*
X37828465Y30967282D01*
X38078852Y31070739D01*
X38270587Y31262141D01*
X38374482Y31512346D01*
X38374718Y31783265D01*
X38271261Y32033652D01*
X38176200Y32128878D01*
X38176200Y34526414D01*
X38222339Y34414748D01*
X38294000Y34342962D01*
X38294000Y33725000D01*
X38332517Y33531362D01*
X38442204Y33367204D01*
X38668969Y33140439D01*
X38668882Y33040135D01*
X38772339Y32789748D01*
X38963741Y32598013D01*
X39213946Y32494118D01*
X39484865Y32493882D01*
X39735252Y32597339D01*
X39926987Y32788741D01*
X39956466Y32859735D01*
X40873282Y32859735D01*
X40976739Y32609348D01*
X41168141Y32417613D01*
X41418346Y32313718D01*
X41689265Y32313482D01*
X41939652Y32416939D01*
X42131387Y32608341D01*
X42235282Y32858546D01*
X42235518Y33129465D01*
X42132061Y33379852D01*
X42060400Y33451638D01*
X42060400Y35375808D01*
X42232914Y35548322D01*
X42250996Y35560404D01*
X44274727Y37584135D01*
X46054882Y37584135D01*
X46158339Y37333748D01*
X46349741Y37142013D01*
X46599946Y37038118D01*
X46870865Y37037882D01*
X47121252Y37141339D01*
X47312987Y37332741D01*
X47416882Y37582946D01*
X47416888Y37590388D01*
X48045635Y38219135D01*
X51007882Y38219135D01*
X51111339Y37968748D01*
X51302741Y37777013D01*
X51552946Y37673118D01*
X51823865Y37672882D01*
X52074252Y37776339D01*
X52265987Y37967741D01*
X52369882Y38217946D01*
X52370118Y38488865D01*
X52266661Y38739252D01*
X52075259Y38930987D01*
X51825054Y39034882D01*
X51554135Y39035118D01*
X51303748Y38931661D01*
X51112013Y38740259D01*
X51008118Y38490054D01*
X51007882Y38219135D01*
X48045635Y38219135D01*
X50166498Y40339998D01*
X50299865Y40339882D01*
X50550252Y40443339D01*
X50741987Y40634741D01*
X50845882Y40884946D01*
X50846118Y41155865D01*
X50742661Y41406252D01*
X50551259Y41597987D01*
X50301054Y41701882D01*
X50030135Y41702118D01*
X49779748Y41598661D01*
X49588013Y41407259D01*
X49484118Y41157054D01*
X49484001Y41022501D01*
X46861391Y38399891D01*
X46601135Y38400118D01*
X46350748Y38296661D01*
X46159013Y38105259D01*
X46055118Y37855054D01*
X46054882Y37584135D01*
X44274727Y37584135D01*
X45182796Y38492204D01*
X45225502Y38556118D01*
X45292483Y38656362D01*
X45331000Y38850000D01*
X45331000Y41067877D01*
X45401987Y41138741D01*
X45505882Y41388946D01*
X45506118Y41659865D01*
X45402661Y41910252D01*
X45248047Y42065135D01*
X48518882Y42065135D01*
X48622339Y41814748D01*
X48813741Y41623013D01*
X49063946Y41519118D01*
X49334865Y41518882D01*
X49585252Y41622339D01*
X49776987Y41813741D01*
X49880882Y42063946D01*
X49881118Y42334865D01*
X49777661Y42585252D01*
X49586259Y42776987D01*
X49336054Y42880882D01*
X49065135Y42881118D01*
X48814748Y42777661D01*
X48623013Y42586259D01*
X48519118Y42336054D01*
X48518882Y42065135D01*
X45248047Y42065135D01*
X45211259Y42101987D01*
X44961054Y42205882D01*
X44690135Y42206118D01*
X44439748Y42102661D01*
X44248013Y41911259D01*
X44144118Y41661054D01*
X44143882Y41390135D01*
X44247339Y41139748D01*
X44319000Y41067962D01*
X44319000Y39059592D01*
X43489941Y38230533D01*
X43477661Y38260252D01*
X43286259Y38451987D01*
X43036054Y38555882D01*
X42765135Y38556118D01*
X42514748Y38452661D01*
X42323013Y38261259D01*
X42219118Y38011054D01*
X42218882Y37740135D01*
X42322339Y37489748D01*
X42513741Y37298013D01*
X42544605Y37285197D01*
X41570286Y36310878D01*
X41552204Y36298796D01*
X41196604Y35943196D01*
X41086917Y35779038D01*
X41048400Y35585400D01*
X41048400Y33451723D01*
X40977413Y33380859D01*
X40873518Y33130654D01*
X40873282Y32859735D01*
X39956466Y32859735D01*
X40030882Y33038946D01*
X40031118Y33309865D01*
X39927661Y33560252D01*
X39736259Y33751987D01*
X39486054Y33855882D01*
X39384622Y33855970D01*
X39306000Y33934592D01*
X39306000Y34342877D01*
X39376987Y34413741D01*
X39480882Y34663946D01*
X39481118Y34934865D01*
X39377661Y35185252D01*
X39186259Y35376987D01*
X38936054Y35480882D01*
X38665135Y35481118D01*
X38414748Y35377661D01*
X38223013Y35186259D01*
X38176200Y35073522D01*
X38176200Y39356400D01*
X38139464Y39541083D01*
X38034850Y39697650D01*
X35367365Y42365135D01*
X38118882Y42365135D01*
X38222339Y42114748D01*
X38413741Y41923013D01*
X38663946Y41819118D01*
X38934865Y41818882D01*
X39185252Y41922339D01*
X39353339Y42090135D01*
X42043882Y42090135D01*
X42147339Y41839748D01*
X42338741Y41648013D01*
X42588946Y41544118D01*
X42859865Y41543882D01*
X43110252Y41647339D01*
X43301987Y41838741D01*
X43405882Y42088946D01*
X43406118Y42359865D01*
X43302661Y42610252D01*
X43111259Y42801987D01*
X42861054Y42905882D01*
X42590135Y42906118D01*
X42339748Y42802661D01*
X42148013Y42611259D01*
X42044118Y42361054D01*
X42043882Y42090135D01*
X39353339Y42090135D01*
X39376987Y42113741D01*
X39480882Y42363946D01*
X39481118Y42634865D01*
X39377661Y42885252D01*
X39186259Y43076987D01*
X38936054Y43180882D01*
X38665135Y43181118D01*
X38414748Y43077661D01*
X38223013Y42886259D01*
X38119118Y42636054D01*
X38118882Y42365135D01*
X35367365Y42365135D01*
X35131002Y42601498D01*
X35131118Y42734865D01*
X35027661Y42985252D01*
X34836259Y43176987D01*
X34586054Y43280882D01*
X34315135Y43281118D01*
X34064748Y43177661D01*
X33873013Y42986259D01*
X33769118Y42736054D01*
X33768882Y42465135D01*
X29981057Y42465135D01*
X29981118Y42534865D01*
X29877661Y42785252D01*
X29686259Y42976987D01*
X29436054Y43080882D01*
X29165135Y43081118D01*
X28914748Y42977661D01*
X28723013Y42786259D01*
X28619118Y42536054D01*
X28618882Y42265135D01*
X26523192Y42265135D01*
X25730611Y43057781D01*
X25730602Y43057787D01*
X25730596Y43057796D01*
X25646142Y43114226D01*
X25566457Y43167475D01*
X25566447Y43167477D01*
X25566438Y43167483D01*
X25478015Y43185071D01*
X25386259Y43276987D01*
X25136054Y43380882D01*
X24865135Y43381118D01*
X24614748Y43277661D01*
X24423013Y43086259D01*
X24319118Y42836054D01*
X24318882Y42565135D01*
X24422339Y42314748D01*
X24613741Y42123013D01*
X24631581Y42115605D01*
X24539748Y42077661D01*
X24348013Y41886259D01*
X24244118Y41636054D01*
X24243882Y41365135D01*
X21681057Y41365135D01*
X21681118Y41434865D01*
X21577661Y41685252D01*
X21386259Y41876987D01*
X21136054Y41980882D01*
X20865135Y41981118D01*
X20614748Y41877661D01*
X20423013Y41686259D01*
X20319118Y41436054D01*
X20318882Y41165135D01*
X17617365Y41165135D01*
X16081002Y42701498D01*
X16081118Y42834865D01*
X15977661Y43085252D01*
X15786259Y43276987D01*
X15536054Y43380882D01*
X15265135Y43381118D01*
X15014748Y43277661D01*
X14823013Y43086259D01*
X14719118Y42836054D01*
X14718882Y42565135D01*
X11713104Y42565135D01*
X7415415Y46865135D01*
X19718882Y46865135D01*
X19822339Y46614748D01*
X20013741Y46423013D01*
X20263946Y46319118D01*
X20534865Y46318882D01*
X20785252Y46422339D01*
X20976987Y46613741D01*
X21080882Y46863946D01*
X21081118Y47134865D01*
X21027292Y47265135D01*
X22218882Y47265135D01*
X22322339Y47014748D01*
X22513741Y46823013D01*
X22763946Y46719118D01*
X23034865Y46718882D01*
X23285252Y46822339D01*
X23476987Y47013741D01*
X23529470Y47140135D01*
X27693882Y47140135D01*
X27797339Y46889748D01*
X27988741Y46698013D01*
X28238946Y46594118D01*
X28509865Y46593882D01*
X28760252Y46697339D01*
X28951987Y46888741D01*
X29055882Y47138946D01*
X29056013Y47290135D01*
X32518882Y47290135D01*
X32622339Y47039748D01*
X32813741Y46848013D01*
X33063946Y46744118D01*
X33334865Y46743882D01*
X33585252Y46847339D01*
X33776987Y47038741D01*
X33777565Y47040135D01*
X38118882Y47040135D01*
X38222339Y46789748D01*
X38413741Y46598013D01*
X38663946Y46494118D01*
X38934865Y46493882D01*
X39185252Y46597339D01*
X39376987Y46788741D01*
X39480882Y47038946D01*
X39481079Y47265135D01*
X41718882Y47265135D01*
X41822339Y47014748D01*
X42013741Y46823013D01*
X42263946Y46719118D01*
X42534865Y46718882D01*
X42785252Y46822339D01*
X42976987Y47013741D01*
X43080882Y47263946D01*
X43080883Y47265135D01*
X51718882Y47265135D01*
X51822339Y47014748D01*
X52013741Y46823013D01*
X52263946Y46719118D01*
X52534865Y46718882D01*
X52785252Y46822339D01*
X52976987Y47013741D01*
X53080882Y47263946D01*
X53081118Y47534865D01*
X52977661Y47785252D01*
X52786259Y47976987D01*
X52536054Y48080882D01*
X52265135Y48081118D01*
X52014748Y47977661D01*
X51823013Y47786259D01*
X51719118Y47536054D01*
X51718882Y47265135D01*
X43080883Y47265135D01*
X43081118Y47534865D01*
X42977661Y47785252D01*
X42786259Y47976987D01*
X42536054Y48080882D01*
X42265135Y48081118D01*
X42014748Y47977661D01*
X41823013Y47786259D01*
X41719118Y47536054D01*
X41718882Y47265135D01*
X39481079Y47265135D01*
X39481118Y47309865D01*
X39377661Y47560252D01*
X39186259Y47751987D01*
X38936054Y47855882D01*
X38665135Y47856118D01*
X38414748Y47752661D01*
X38223013Y47561259D01*
X38119118Y47311054D01*
X38118882Y47040135D01*
X33777565Y47040135D01*
X33880882Y47288946D01*
X33881118Y47559865D01*
X33777661Y47810252D01*
X33586259Y48001987D01*
X33336054Y48105882D01*
X33065135Y48106118D01*
X32814748Y48002661D01*
X32623013Y47811259D01*
X32519118Y47561054D01*
X32518882Y47290135D01*
X29056013Y47290135D01*
X29056118Y47409865D01*
X28952661Y47660252D01*
X28761259Y47851987D01*
X28511054Y47955882D01*
X28240135Y47956118D01*
X27989748Y47852661D01*
X27798013Y47661259D01*
X27694118Y47411054D01*
X27693882Y47140135D01*
X23529470Y47140135D01*
X23580882Y47263946D01*
X23581118Y47534865D01*
X23477661Y47785252D01*
X23286259Y47976987D01*
X23036054Y48080882D01*
X22765135Y48081118D01*
X22514748Y47977661D01*
X22323013Y47786259D01*
X22219118Y47536054D01*
X22218882Y47265135D01*
X21027292Y47265135D01*
X20977661Y47385252D01*
X20786259Y47576987D01*
X20536054Y47680882D01*
X20265135Y47681118D01*
X20014748Y47577661D01*
X19823013Y47386259D01*
X19719118Y47136054D01*
X19718882Y46865135D01*
X7415415Y46865135D01*
X5784254Y48497172D01*
X7852217Y50565135D01*
X48118882Y50565135D01*
X48222339Y50314748D01*
X48413741Y50123013D01*
X48663946Y50019118D01*
X48934865Y50018882D01*
X49185252Y50122339D01*
X49376987Y50313741D01*
X49480882Y50563946D01*
X49481118Y50834865D01*
X49377661Y51085252D01*
X49186259Y51276987D01*
X48936054Y51380882D01*
X48665135Y51381118D01*
X48414748Y51277661D01*
X48223013Y51086259D01*
X48119118Y50836054D01*
X48118882Y50565135D01*
X7852217Y50565135D01*
X10982682Y53695600D01*
X20337936Y53695600D01*
X20337936Y51968400D01*
X20364503Y51827210D01*
X20447946Y51697535D01*
X20575266Y51610541D01*
X20726400Y51579936D01*
X22453600Y51579936D01*
X22594790Y51606503D01*
X22724465Y51689946D01*
X22811459Y51817266D01*
X22842064Y51968400D01*
X22842064Y52856383D01*
X22885400Y52856383D01*
X22885400Y52807617D01*
X22980140Y52331329D01*
X23249935Y51927552D01*
X23653712Y51657757D01*
X24130000Y51563017D01*
X24606288Y51657757D01*
X25010065Y51927552D01*
X25279860Y52331329D01*
X25374600Y52807617D01*
X25374600Y52856383D01*
X25425400Y52856383D01*
X25425400Y52807617D01*
X25520140Y52331329D01*
X25789935Y51927552D01*
X26193712Y51657757D01*
X26670000Y51563017D01*
X27146288Y51657757D01*
X27550065Y51927552D01*
X27819860Y52331329D01*
X27914600Y52807617D01*
X27914600Y52856383D01*
X27965400Y52856383D01*
X27965400Y52807617D01*
X28060140Y52331329D01*
X28329935Y51927552D01*
X28733712Y51657757D01*
X29210000Y51563017D01*
X29686288Y51657757D01*
X30090065Y51927552D01*
X30359860Y52331329D01*
X30454600Y52807617D01*
X30454600Y52856383D01*
X30359860Y53332671D01*
X30090065Y53736448D01*
X29686288Y54006243D01*
X29210000Y54100983D01*
X28733712Y54006243D01*
X28329935Y53736448D01*
X28060140Y53332671D01*
X27965400Y52856383D01*
X27914600Y52856383D01*
X27819860Y53332671D01*
X27550065Y53736448D01*
X27146288Y54006243D01*
X26670000Y54100983D01*
X26193712Y54006243D01*
X25789935Y53736448D01*
X25520140Y53332671D01*
X25425400Y52856383D01*
X25374600Y52856383D01*
X25279860Y53332671D01*
X25010065Y53736448D01*
X24606288Y54006243D01*
X24130000Y54100983D01*
X23653712Y54006243D01*
X23249935Y53736448D01*
X22980140Y53332671D01*
X22885400Y52856383D01*
X22842064Y52856383D01*
X22842064Y53695600D01*
X22815497Y53836790D01*
X22732054Y53966465D01*
X22604734Y54053459D01*
X22453600Y54084064D01*
X20726400Y54084064D01*
X20585210Y54057497D01*
X20455535Y53974054D01*
X20368541Y53846734D01*
X20337936Y53695600D01*
X10982682Y53695600D01*
X12054317Y54767235D01*
X15358982Y54767235D01*
X15462439Y54516848D01*
X15653841Y54325113D01*
X15904046Y54221218D01*
X16174965Y54220982D01*
X16425352Y54324439D01*
X16617087Y54515841D01*
X16720982Y54766046D01*
X16721099Y54900599D01*
X17216883Y55396383D01*
X20345400Y55396383D01*
X20345400Y55347617D01*
X20440140Y54871329D01*
X20709935Y54467552D01*
X21113712Y54197757D01*
X21590000Y54103017D01*
X22066288Y54197757D01*
X22470065Y54467552D01*
X22739860Y54871329D01*
X22834600Y55347617D01*
X22834600Y55396383D01*
X22885400Y55396383D01*
X22885400Y55347617D01*
X22980140Y54871329D01*
X23249935Y54467552D01*
X23653712Y54197757D01*
X24130000Y54103017D01*
X24606288Y54197757D01*
X25010065Y54467552D01*
X25279860Y54871329D01*
X25374600Y55347617D01*
X25374600Y55396383D01*
X25425400Y55396383D01*
X25425400Y55347617D01*
X25520140Y54871329D01*
X25789935Y54467552D01*
X26193712Y54197757D01*
X26670000Y54103017D01*
X27146288Y54197757D01*
X27550065Y54467552D01*
X27819860Y54871329D01*
X27914600Y55347617D01*
X27914600Y55396383D01*
X27819860Y55872671D01*
X27550065Y56276448D01*
X27146288Y56546243D01*
X26670000Y56640983D01*
X26193712Y56546243D01*
X25789935Y56276448D01*
X25520140Y55872671D01*
X25425400Y55396383D01*
X25374600Y55396383D01*
X25279860Y55872671D01*
X25010065Y56276448D01*
X24606288Y56546243D01*
X24130000Y56640983D01*
X23653712Y56546243D01*
X23249935Y56276448D01*
X22980140Y55872671D01*
X22885400Y55396383D01*
X22834600Y55396383D01*
X22739860Y55872671D01*
X22470065Y56276448D01*
X22066288Y56546243D01*
X21590000Y56640983D01*
X21113712Y56546243D01*
X20709935Y56276448D01*
X20440140Y55872671D01*
X20345400Y55396383D01*
X17216883Y55396383D01*
X18906496Y57085996D01*
X29656504Y57085996D01*
X29992400Y56750100D01*
X29992400Y56341706D01*
X29686288Y56546243D01*
X29210000Y56640983D01*
X28733712Y56546243D01*
X28329935Y56276448D01*
X28060140Y55872671D01*
X27965400Y55396383D01*
X27965400Y55347617D01*
X28060140Y54871329D01*
X28329935Y54467552D01*
X28733712Y54197757D01*
X29210000Y54103017D01*
X29686288Y54197757D01*
X29992400Y54402294D01*
X29992400Y54107000D01*
X30029136Y53922317D01*
X30133750Y53765750D01*
X30594613Y53304887D01*
X30505400Y52856383D01*
X30505400Y52807617D01*
X30600140Y52331329D01*
X30869935Y51927552D01*
X31273712Y51657757D01*
X31750000Y51563017D01*
X32226288Y51657757D01*
X32630065Y51927552D01*
X32899860Y52331329D01*
X32994600Y52807617D01*
X32994600Y52856383D01*
X32899860Y53332671D01*
X32630065Y53736448D01*
X32226288Y54006243D01*
X31750000Y54100983D01*
X31273712Y54006243D01*
X31264447Y54000053D01*
X30957600Y54306900D01*
X30957600Y54408976D01*
X31273712Y54197757D01*
X31750000Y54103017D01*
X32226288Y54197757D01*
X32542400Y54408976D01*
X32542400Y54097000D01*
X32579136Y53912317D01*
X32683750Y53755750D01*
X33134613Y53304887D01*
X33045400Y52856383D01*
X33045400Y52807617D01*
X33140140Y52331329D01*
X33409935Y51927552D01*
X33813712Y51657757D01*
X34290000Y51563017D01*
X34766288Y51657757D01*
X35170065Y51927552D01*
X35439860Y52331329D01*
X35534600Y52807617D01*
X35534600Y52856383D01*
X35439860Y53332671D01*
X35170065Y53736448D01*
X34766288Y54006243D01*
X34290000Y54100983D01*
X33813712Y54006243D01*
X33804447Y54000053D01*
X33507600Y54296900D01*
X33507600Y54402294D01*
X33813712Y54197757D01*
X34290000Y54103017D01*
X34766288Y54197757D01*
X35067400Y54398953D01*
X35067400Y54112000D01*
X35104136Y53927317D01*
X35208750Y53770750D01*
X35674613Y53304887D01*
X35585400Y52856383D01*
X35585400Y52807617D01*
X35680140Y52331329D01*
X35949935Y51927552D01*
X36353712Y51657757D01*
X36830000Y51563017D01*
X37306288Y51657757D01*
X37710065Y51927552D01*
X37979860Y52331329D01*
X38015972Y52512880D01*
X38166995Y52512880D01*
X38380690Y52076801D01*
X38744999Y51755695D01*
X39050882Y51629007D01*
X39243000Y51689688D01*
X39243000Y52705000D01*
X39497000Y52705000D01*
X39497000Y51689688D01*
X39689118Y51629007D01*
X39995001Y51755695D01*
X40359310Y52076801D01*
X40573005Y52512880D01*
X40512865Y52705000D01*
X39497000Y52705000D01*
X39243000Y52705000D01*
X38227135Y52705000D01*
X38166995Y52512880D01*
X38015972Y52512880D01*
X38074600Y52807617D01*
X38074600Y52856383D01*
X38015973Y53151120D01*
X38166995Y53151120D01*
X38227135Y52959000D01*
X39243000Y52959000D01*
X39243000Y53974312D01*
X39497000Y53974312D01*
X39497000Y52959000D01*
X40512865Y52959000D01*
X40573005Y53151120D01*
X40359310Y53587199D01*
X39995001Y53908305D01*
X39689118Y54034993D01*
X39497000Y53974312D01*
X39243000Y53974312D01*
X39050882Y54034993D01*
X38744999Y53908305D01*
X38380690Y53587199D01*
X38166995Y53151120D01*
X38015973Y53151120D01*
X37979860Y53332671D01*
X37710065Y53736448D01*
X37306288Y54006243D01*
X36830000Y54100983D01*
X36353712Y54006243D01*
X36344447Y54000052D01*
X36032600Y54311900D01*
X36032600Y54412317D01*
X36353712Y54197757D01*
X36830000Y54103017D01*
X37306288Y54197757D01*
X37710065Y54467552D01*
X37979860Y54871329D01*
X38015972Y55052880D01*
X38166995Y55052880D01*
X38380690Y54616801D01*
X38744999Y54295695D01*
X39050882Y54169007D01*
X39243000Y54229688D01*
X39243000Y55245000D01*
X39497000Y55245000D01*
X39497000Y54229688D01*
X39689118Y54169007D01*
X39995001Y54295695D01*
X40359310Y54616801D01*
X40573005Y55052880D01*
X40512865Y55245000D01*
X39497000Y55245000D01*
X39243000Y55245000D01*
X38227135Y55245000D01*
X38166995Y55052880D01*
X38015972Y55052880D01*
X38074600Y55347617D01*
X38074600Y55365135D01*
X43968882Y55365135D01*
X44072339Y55114748D01*
X44263741Y54923013D01*
X44513946Y54819118D01*
X44784865Y54818882D01*
X45035252Y54922339D01*
X45226987Y55113741D01*
X45330882Y55363946D01*
X45331118Y55634865D01*
X45227661Y55885252D01*
X45036259Y56076987D01*
X44786054Y56180882D01*
X44515135Y56181118D01*
X44264748Y56077661D01*
X44073013Y55886259D01*
X43969118Y55636054D01*
X43968882Y55365135D01*
X38074600Y55365135D01*
X38074600Y55396383D01*
X38015973Y55691120D01*
X38166995Y55691120D01*
X38227135Y55499000D01*
X39243000Y55499000D01*
X39243000Y56514312D01*
X39497000Y56514312D01*
X39497000Y55499000D01*
X40512865Y55499000D01*
X40573005Y55691120D01*
X40359310Y56127199D01*
X39995001Y56448305D01*
X39689118Y56574993D01*
X39497000Y56514312D01*
X39243000Y56514312D01*
X39050882Y56574993D01*
X38744999Y56448305D01*
X38380690Y56127199D01*
X38166995Y55691120D01*
X38015973Y55691120D01*
X37979860Y55872671D01*
X37710065Y56276448D01*
X37306288Y56546243D01*
X36830000Y56640983D01*
X36353712Y56546243D01*
X36032600Y56331683D01*
X36032600Y56825000D01*
X35995864Y57009683D01*
X35891250Y57166250D01*
X34341250Y58716250D01*
X34184683Y58820864D01*
X34000000Y58857600D01*
X17341305Y58857600D01*
X17341300Y58857601D01*
X17156617Y58820864D01*
X17000050Y58716250D01*
X17000048Y58716247D01*
X16064002Y57780202D01*
X15930635Y57780318D01*
X15680248Y57676861D01*
X15488513Y57485459D01*
X15384618Y57235254D01*
X15384382Y56964335D01*
X15487839Y56713948D01*
X15629459Y56572082D01*
X15501213Y56444059D01*
X15397318Y56193854D01*
X15397082Y55922935D01*
X15500539Y55672548D01*
X15681853Y55490919D01*
X15654848Y55479761D01*
X15463113Y55288359D01*
X15359218Y55038154D01*
X15358982Y54767235D01*
X12054317Y54767235D01*
X17994282Y60707200D01*
X43016518Y60707200D01*
X60656400Y43067318D01*
M02*
