G04 #@! TF.FileFunction,Soldermask,Top*
%FSLAX46Y46*%
G04 Gerber Fmt 4.6, Leading zero omitted, Abs format (unit mm)*
G04 Created by KiCad (PCBNEW 4.0.0-stable) date Friday, November 04, 2016 'AMt' 11:18:16 AM*
%MOMM*%
G01*
G04 APERTURE LIST*
%ADD10C,0.100000*%
%ADD11R,0.850000X1.850000*%
%ADD12R,1.150000X1.200000*%
%ADD13R,1.200000X1.150000*%
%ADD14R,2.432000X2.127200*%
%ADD15O,2.432000X2.127200*%
%ADD16C,2.127200*%
%ADD17R,1.300000X0.900000*%
%ADD18R,0.900000X1.300000*%
%ADD19R,2.000000X1.400000*%
%ADD20R,0.850000X2.150000*%
%ADD21R,1.050000X1.460000*%
%ADD22C,1.300000*%
%ADD23R,1.050000X1.450000*%
%ADD24R,1.197560X1.197560*%
%ADD25R,0.806400X1.060400*%
%ADD26R,2.127200X2.127200*%
%ADD27O,2.127200X2.127200*%
%ADD28R,1.149300X0.798780*%
%ADD29R,6.000700X2.500580*%
G04 APERTURE END LIST*
D10*
D11*
X47718703Y47752611D03*
X47068703Y47752611D03*
X46418703Y47752611D03*
X45768703Y47752611D03*
X45768703Y43352611D03*
X46418703Y43352611D03*
X47068703Y43352611D03*
X47718703Y43352611D03*
D12*
X44076705Y43405612D03*
X44076705Y44905612D03*
X49410705Y46199611D03*
X49410705Y47699611D03*
X42418000Y22213000D03*
X42418000Y20713000D03*
D10*
G36*
X8328920Y24639908D02*
X9142092Y25453080D01*
X9990620Y24604552D01*
X9177448Y23791380D01*
X8328920Y24639908D01*
X8328920Y24639908D01*
G37*
G36*
X9389580Y23579248D02*
X10202752Y24392420D01*
X11051280Y23543892D01*
X10238108Y22730720D01*
X9389580Y23579248D01*
X9389580Y23579248D01*
G37*
D12*
X42367200Y28561600D03*
X42367200Y30061600D03*
D13*
X52183600Y25603200D03*
X53683600Y25603200D03*
X53683600Y27127200D03*
X52183600Y27127200D03*
X48907000Y30734000D03*
X50407000Y30734000D03*
X53328000Y32385000D03*
X51828000Y32385000D03*
X48907000Y32385000D03*
X50407000Y32385000D03*
D14*
X52984400Y23063200D03*
D15*
X52984400Y20523200D03*
X52984400Y17983200D03*
X52984400Y15443200D03*
D10*
G36*
X50489037Y14261121D02*
X52208721Y12541437D01*
X50704563Y11037279D01*
X48984879Y12756963D01*
X50489037Y14261121D01*
X50489037Y14261121D01*
G37*
D16*
X48908512Y10745386D02*
X48692986Y10960912D01*
X47112461Y8949335D02*
X46896935Y9164861D01*
X45316409Y7153283D02*
X45100883Y7368809D01*
D10*
G36*
X5779479Y36798437D02*
X7499163Y38518121D01*
X9003321Y37013963D01*
X7283637Y35294279D01*
X5779479Y36798437D01*
X5779479Y36798437D01*
G37*
D16*
X9295214Y35217912D02*
X9079688Y35002386D01*
X11091265Y33421861D02*
X10875739Y33206335D01*
X12887317Y31625809D02*
X12671791Y31410283D01*
X14683368Y29829758D02*
X14467842Y29614232D01*
X16479419Y28033707D02*
X16263893Y27818181D01*
X18275470Y26237656D02*
X18059944Y26022130D01*
X20071522Y24441604D02*
X19855996Y24226078D01*
D10*
G36*
X7659079Y38627237D02*
X9378763Y40346921D01*
X10882921Y38842763D01*
X9163237Y37123079D01*
X7659079Y38627237D01*
X7659079Y38627237D01*
G37*
D16*
X11174814Y37046712D02*
X10959288Y36831186D01*
X12970865Y35250661D02*
X12755339Y35035135D01*
X14766917Y33454609D02*
X14551391Y33239083D01*
X16562968Y31658558D02*
X16347442Y31443032D01*
X18359019Y29862507D02*
X18143493Y29646981D01*
X20155070Y28066456D02*
X19939544Y27850930D01*
X21951122Y26270404D02*
X21735596Y26054878D01*
D17*
X49410703Y43405611D03*
X49410703Y44905611D03*
X44076703Y46199611D03*
X44076703Y47699611D03*
D18*
X41148700Y20713700D03*
X39648700Y20713700D03*
D10*
G36*
X6743653Y18041909D02*
X7662891Y18961147D01*
X8299287Y18324751D01*
X7380049Y17405513D01*
X6743653Y18041909D01*
X6743653Y18041909D01*
G37*
G36*
X7804313Y16981249D02*
X8723551Y17900487D01*
X9359947Y17264091D01*
X8440709Y16344853D01*
X7804313Y16981249D01*
X7804313Y16981249D01*
G37*
G36*
X9278909Y21094747D02*
X10198147Y20175509D01*
X9561751Y19539113D01*
X8642513Y20458351D01*
X9278909Y21094747D01*
X9278909Y21094747D01*
G37*
G36*
X8218249Y20034087D02*
X9137487Y19114849D01*
X8501091Y18478453D01*
X7581853Y19397691D01*
X8218249Y20034087D01*
X8218249Y20034087D01*
G37*
G36*
X10421909Y19977147D02*
X11341147Y19057909D01*
X10704751Y18421513D01*
X9785513Y19340751D01*
X10421909Y19977147D01*
X10421909Y19977147D01*
G37*
G36*
X9361249Y18916487D02*
X10280487Y17997249D01*
X9644091Y17360853D01*
X8724853Y18280091D01*
X9361249Y18916487D01*
X9361249Y18916487D01*
G37*
G36*
X7302453Y23198109D02*
X8221691Y24117347D01*
X8858087Y23480951D01*
X7938849Y22561713D01*
X7302453Y23198109D01*
X7302453Y23198109D01*
G37*
G36*
X8363113Y22137449D02*
X9282351Y23056687D01*
X9918747Y22420291D01*
X8999509Y21501053D01*
X8363113Y22137449D01*
X8363113Y22137449D01*
G37*
G36*
X13241309Y20154947D02*
X14160547Y19235709D01*
X13524151Y18599313D01*
X12604913Y19518551D01*
X13241309Y20154947D01*
X13241309Y20154947D01*
G37*
G36*
X12180649Y19094287D02*
X13099887Y18175049D01*
X12463491Y17538653D01*
X11544253Y18457891D01*
X12180649Y19094287D01*
X12180649Y19094287D01*
G37*
D19*
X40800000Y40500000D03*
X38500000Y38750000D03*
X40800000Y37000000D03*
X36400000Y40500000D03*
X34100000Y38750000D03*
X36400000Y37000000D03*
X32000000Y40500000D03*
X29700000Y38750000D03*
X32000000Y37000000D03*
X27600000Y40500000D03*
X25300000Y38750000D03*
X27600000Y37000000D03*
D20*
X40293000Y30041400D03*
X39643000Y30041400D03*
X38993000Y30041400D03*
X38343000Y30041400D03*
X37693000Y30041400D03*
X37043000Y30041400D03*
X36393000Y30041400D03*
X35743000Y30041400D03*
X35093000Y30041400D03*
X34443000Y30041400D03*
X33793000Y30041400D03*
X33143000Y30041400D03*
X32493000Y30041400D03*
X31843000Y30041400D03*
X31843000Y22841400D03*
X32493000Y22841400D03*
X33143000Y22841400D03*
X33793000Y22841400D03*
X34443000Y22841400D03*
X35093000Y22841400D03*
X35743000Y22841400D03*
X36393000Y22841400D03*
X37043000Y22841400D03*
X37693000Y22841400D03*
X38343000Y22841400D03*
X38993000Y22841400D03*
X39643000Y22841400D03*
X40293000Y22841400D03*
D21*
X51805800Y28592600D03*
X52755800Y28592600D03*
X53705800Y28592600D03*
X53705800Y30792600D03*
X51805800Y30792600D03*
X55184000Y28618000D03*
X56134000Y28618000D03*
X57084000Y28618000D03*
X57084000Y30818000D03*
X55184000Y30818000D03*
D10*
G36*
X10512715Y22854326D02*
X11255177Y23596788D01*
X12287553Y22564412D01*
X11545091Y21821950D01*
X10512715Y22854326D01*
X10512715Y22854326D01*
G37*
G36*
X9840964Y22182574D02*
X10583426Y22925036D01*
X11615802Y21892660D01*
X10873340Y21150198D01*
X9840964Y22182574D01*
X9840964Y22182574D01*
G37*
G36*
X9169212Y21510823D02*
X9911674Y22253285D01*
X10944050Y21220909D01*
X10201588Y20478447D01*
X9169212Y21510823D01*
X9169212Y21510823D01*
G37*
G36*
X10724847Y19955188D02*
X11467309Y20697650D01*
X12499685Y19665274D01*
X11757223Y18922812D01*
X10724847Y19955188D01*
X10724847Y19955188D01*
G37*
G36*
X12068350Y21298691D02*
X12810812Y22041153D01*
X13843188Y21008777D01*
X13100726Y20266315D01*
X12068350Y21298691D01*
X12068350Y21298691D01*
G37*
D22*
X59154000Y28863600D03*
X59154000Y31863600D03*
X9517425Y13607889D03*
X15174279Y7951035D03*
D23*
X47560000Y23692000D03*
X47560000Y27842000D03*
X49710000Y23692000D03*
X49710000Y27842000D03*
D13*
X33997200Y17754600D03*
X35497200Y17754600D03*
D24*
X45974000Y17665700D03*
X45974000Y19164300D03*
D17*
X44323000Y19165000D03*
X44323000Y17665000D03*
D13*
X41923400Y17754600D03*
X40423400Y17754600D03*
X17372900Y45618400D03*
X18872900Y45618400D03*
D17*
X17462500Y50267300D03*
X17462500Y48767300D03*
D18*
X17372900Y47167800D03*
X18872900Y47167800D03*
D25*
X18935700Y48590200D03*
X20256500Y48590200D03*
X19596100Y48590200D03*
X20256500Y50622200D03*
X18935700Y50622200D03*
D26*
X21590000Y52832000D03*
D27*
X21590000Y55372000D03*
X24130000Y52832000D03*
X24130000Y55372000D03*
X26670000Y52832000D03*
X26670000Y55372000D03*
X29210000Y52832000D03*
X29210000Y55372000D03*
X31750000Y52832000D03*
X31750000Y55372000D03*
X34290000Y52832000D03*
X34290000Y55372000D03*
X36830000Y52832000D03*
X36830000Y55372000D03*
X39370000Y52832000D03*
X39370000Y55372000D03*
D28*
X24550040Y49550240D03*
X24550040Y48900000D03*
X24550040Y48249760D03*
X26449960Y48249760D03*
X26449960Y48900000D03*
X26449960Y49550240D03*
X35816540Y49608740D03*
X35816540Y48958500D03*
X35816540Y48308260D03*
X37716460Y48308260D03*
X37716460Y48958500D03*
X37716460Y49608740D03*
X30228540Y49545240D03*
X30228540Y48895000D03*
X30228540Y48244760D03*
X32128460Y48244760D03*
X32128460Y48895000D03*
X32128460Y49545240D03*
D29*
X42796460Y14122400D03*
X33098740Y14122400D03*
D10*
G36*
X13318393Y12384150D02*
X14068209Y13133966D01*
X14638419Y12563756D01*
X13888603Y11813940D01*
X13318393Y12384150D01*
X13318393Y12384150D01*
G37*
G36*
X14252340Y11450203D02*
X15002156Y12200019D01*
X15572366Y11629809D01*
X14822550Y10879993D01*
X14252340Y11450203D01*
X14252340Y11450203D01*
G37*
G36*
X13785367Y11917177D02*
X14535183Y12666993D01*
X15105393Y12096783D01*
X14355577Y11346967D01*
X13785367Y11917177D01*
X13785367Y11917177D01*
G37*
G36*
X15689181Y12887044D02*
X16438997Y13636860D01*
X17009207Y13066650D01*
X16259391Y12316834D01*
X15689181Y12887044D01*
X15689181Y12887044D01*
G37*
G36*
X14755234Y13820991D02*
X15505050Y14570807D01*
X16075260Y14000597D01*
X15325444Y13250781D01*
X14755234Y13820991D01*
X14755234Y13820991D01*
G37*
G36*
X18322193Y7202550D02*
X19072009Y7952366D01*
X19642219Y7382156D01*
X18892403Y6632340D01*
X18322193Y7202550D01*
X18322193Y7202550D01*
G37*
G36*
X19256140Y6268603D02*
X20005956Y7018419D01*
X20576166Y6448209D01*
X19826350Y5698393D01*
X19256140Y6268603D01*
X19256140Y6268603D01*
G37*
G36*
X18789167Y6735577D02*
X19538983Y7485393D01*
X20109193Y6915183D01*
X19359377Y6165367D01*
X18789167Y6735577D01*
X18789167Y6735577D01*
G37*
G36*
X20692981Y7705444D02*
X21442797Y8455260D01*
X22013007Y7885050D01*
X21263191Y7135234D01*
X20692981Y7705444D01*
X20692981Y7705444D01*
G37*
G36*
X19759034Y8639391D02*
X20508850Y9389207D01*
X21079060Y8818997D01*
X20329244Y8069181D01*
X19759034Y8639391D01*
X19759034Y8639391D01*
G37*
G36*
X15807593Y9691750D02*
X16557409Y10441566D01*
X17127619Y9871356D01*
X16377803Y9121540D01*
X15807593Y9691750D01*
X15807593Y9691750D01*
G37*
G36*
X16741540Y8757803D02*
X17491356Y9507619D01*
X18061566Y8937409D01*
X17311750Y8187593D01*
X16741540Y8757803D01*
X16741540Y8757803D01*
G37*
G36*
X16274567Y9224777D02*
X17024383Y9974593D01*
X17594593Y9404383D01*
X16844777Y8654567D01*
X16274567Y9224777D01*
X16274567Y9224777D01*
G37*
G36*
X18178381Y10194644D02*
X18928197Y10944460D01*
X19498407Y10374250D01*
X18748591Y9624434D01*
X18178381Y10194644D01*
X18178381Y10194644D01*
G37*
G36*
X17244434Y11128591D02*
X17994250Y11878407D01*
X18564460Y11308197D01*
X17814644Y10558381D01*
X17244434Y11128591D01*
X17244434Y11128591D01*
G37*
G36*
X10676793Y14822550D02*
X11426609Y15572366D01*
X11996819Y15002156D01*
X11247003Y14252340D01*
X10676793Y14822550D01*
X10676793Y14822550D01*
G37*
G36*
X11610740Y13888603D02*
X12360556Y14638419D01*
X12930766Y14068209D01*
X12180950Y13318393D01*
X11610740Y13888603D01*
X11610740Y13888603D01*
G37*
G36*
X11143767Y14355577D02*
X11893583Y15105393D01*
X12463793Y14535183D01*
X11713977Y13785367D01*
X11143767Y14355577D01*
X11143767Y14355577D01*
G37*
G36*
X13047581Y15325444D02*
X13797397Y16075260D01*
X14367607Y15505050D01*
X13617791Y14755234D01*
X13047581Y15325444D01*
X13047581Y15325444D01*
G37*
G36*
X12113634Y16259391D02*
X12863450Y17009207D01*
X13433660Y16438997D01*
X12683844Y15689181D01*
X12113634Y16259391D01*
X12113634Y16259391D01*
G37*
G36*
X20836793Y4662550D02*
X21586609Y5412366D01*
X22156819Y4842156D01*
X21407003Y4092340D01*
X20836793Y4662550D01*
X20836793Y4662550D01*
G37*
G36*
X21770740Y3728603D02*
X22520556Y4478419D01*
X23090766Y3908209D01*
X22340950Y3158393D01*
X21770740Y3728603D01*
X21770740Y3728603D01*
G37*
G36*
X21303767Y4195577D02*
X22053583Y4945393D01*
X22623793Y4375183D01*
X21873977Y3625367D01*
X21303767Y4195577D01*
X21303767Y4195577D01*
G37*
G36*
X23207581Y5165444D02*
X23957397Y5915260D01*
X24527607Y5345050D01*
X23777791Y4595234D01*
X23207581Y5165444D01*
X23207581Y5165444D01*
G37*
G36*
X22273634Y6099391D02*
X23023450Y6849207D01*
X23593660Y6278997D01*
X22843844Y5529181D01*
X22273634Y6099391D01*
X22273634Y6099391D01*
G37*
D13*
X21563900Y50457100D03*
X23063900Y50457100D03*
D18*
X21563900Y48869600D03*
X23063900Y48869600D03*
M02*
