M48
;DRILL file {KiCad 4.0.0-stable} date Friday, November 04, 2016 'AMt' 11:18:39 AM
;FORMAT={-:-/ absolute / inch / decimal}
FMAT,2
INCH,TZ
T1C0.016
T2C0.040
%
G90
G05
M72
T1
X0.163Y1.31
X0.217Y1.0215
X0.293Y0.641
X0.3225Y0.84
X0.348Y1.072
X0.4055Y1.012
X0.42Y0.559
X0.482Y0.665
X0.4845Y0.9485
X0.519Y0.459
X0.5275Y0.3835
X0.561Y0.539
X0.5865Y0.881
X0.6063Y1.6811
X0.62Y0.358
X0.6315Y2.1615
X0.6325Y2.248
X0.633Y2.207
X0.6378Y1.9783
X0.6445Y0.2885
X0.6635Y0.4295
X0.7015Y0.879
X0.718Y0.693
X0.7375Y0.1655
X0.745Y0.23
X0.7775Y0.36
X0.785Y0.589
X0.8031Y1.8504
X0.818Y0.158
X0.8268Y1.626
X0.839Y0.526
X0.848Y1.474
X0.867Y0.7685
X0.8695Y0.22
X0.9016Y1.8661
X0.9055Y1.752
X0.9245Y0.8215
X0.9305Y0.6735
X0.979Y0.438
X0.9813Y1.6339
X0.9843Y1.6811
X0.9865Y0.485
X1.005Y0.4115
X1.0059Y1.3711
X1.016Y0.138
X1.02Y1.424
X1.032Y0.384
X1.057Y0.359
X1.094Y0.357
X1.1171Y1.8612
X1.1535Y1.6693
X1.1535Y1.3701
X1.166Y0.72
X1.166Y0.686
X1.166Y0.648
X1.166Y0.61
X1.166Y0.574
X1.166Y0.536
X1.166Y0.498
X1.166Y0.46
X1.184Y0.196
X1.188Y1.452
X1.215Y0.72
X1.24Y0.815
X1.24Y0.44
X1.255Y0.695
X1.263Y0.4867
X1.2875Y1.0805
X1.2885Y1.019
X1.2913Y1.752
X1.3071Y1.8671
X1.311Y1.2455
X1.34Y1.414
X1.3563Y1.6772
X1.367Y0.771
X1.37Y0.294
X1.3805Y1.2995
X1.452Y1.0775
X1.4525Y1.018
X1.4537Y1.5266
X1.459Y0.817
X1.484Y1.246
X1.484Y0.784
X1.484Y0.6975
X1.485Y0.7405
X1.5035Y0.447
X1.509Y0.8165
X1.5095Y0.5895
X1.5276Y1.8573
X1.5276Y1.6732
X1.5276Y1.3701
X1.5492Y1.3061
X1.554Y0.398
X1.5555Y0.187
X1.5765Y0.784
X1.5895Y0.3575
X1.611Y0.208
X1.622Y1.1855
X1.636Y1.299
X1.636Y0.622
X1.639Y0.228
X1.669Y1.0765
X1.6693Y1.8661
X1.6693Y1.752
X1.67Y0.242
X1.6715Y0.759
X1.6821Y1.6624
X1.689Y1.4911
X1.7025Y0.2485
X1.728Y1.422
X1.732Y0.8625
X1.7579Y2.185
X1.7648Y1.6348
X1.77Y0.9125
X1.821Y1.097
X1.825Y0.915
X1.83Y1.252
X1.83Y1.15
X1.84Y1.485
X1.9213Y1.9961
X1.932Y0.851
X1.937Y1.6614
X1.975Y1.615
X1.995Y1.04
X2.035Y1.51
X2.06Y1.75
X2.063Y1.8661
X2.099Y1.327
X2.154Y1.007
X2.1695Y1.0795
X2.237Y1.331
T2
X0.291Y1.453
X0.3617Y1.3823
X0.365Y1.525
X0.4324Y1.3116
X0.4357Y1.4543
X0.5031Y1.2409
X0.5064Y1.3836
X0.5738Y1.1702
X0.5771Y1.3129
X0.6446Y1.0994
X0.6478Y1.2422
X0.7153Y1.0287
X0.7186Y1.1714
X0.786Y0.958
X0.7893Y1.1007
X0.85Y2.18
X0.85Y2.08
X0.86Y1.03
X0.95Y2.18
X0.95Y2.08
X1.05Y2.18
X1.05Y2.08
X1.15Y2.18
X1.15Y2.08
X1.25Y2.18
X1.25Y2.08
X1.35Y2.18
X1.35Y2.08
X1.45Y2.18
X1.45Y2.08
X1.55Y2.18
X1.55Y2.08
X1.7799Y0.2859
X1.8506Y0.3566
X1.9213Y0.4273
X1.992Y0.498
X2.086Y0.908
X2.086Y0.808
X2.086Y0.708
X2.086Y0.608
T0
M30
