G04 #@! TF.FileFunction,Copper,L3,Inr,Signal*
%FSLAX46Y46*%
G04 Gerber Fmt 4.6, Leading zero omitted, Abs format (unit mm)*
G04 Created by KiCad (PCBNEW 4.0.0-stable) date Friday, November 04, 2016 'AMt' 11:18:16 AM*
%MOMM*%
G01*
G04 APERTURE LIST*
%ADD10C,0.100000*%
%ADD11R,2.032000X1.727200*%
%ADD12O,2.032000X1.727200*%
%ADD13C,1.727200*%
%ADD14R,1.727200X1.727200*%
%ADD15O,1.727200X1.727200*%
%ADD16C,0.600000*%
%ADD17C,0.177800*%
%ADD18C,0.250000*%
%ADD19C,0.254000*%
G04 APERTURE END LIST*
D10*
D11*
X52984400Y23063200D03*
D12*
X52984400Y20523200D03*
X52984400Y17983200D03*
X52984400Y15443200D03*
D10*
G36*
X50489037Y13978278D02*
X51925878Y12541437D01*
X50704563Y11320122D01*
X49267722Y12756963D01*
X50489037Y13978278D01*
X50489037Y13978278D01*
G37*
D13*
X48908512Y10745386D02*
X48692986Y10960912D01*
X47112461Y8949335D02*
X46896935Y9164861D01*
X45316409Y7153283D02*
X45100883Y7368809D01*
D10*
G36*
X6062322Y36798437D02*
X7499163Y38235278D01*
X8720478Y37013963D01*
X7283637Y35577122D01*
X6062322Y36798437D01*
X6062322Y36798437D01*
G37*
D13*
X9295214Y35217912D02*
X9079688Y35002386D01*
X11091265Y33421861D02*
X10875739Y33206335D01*
X12887317Y31625809D02*
X12671791Y31410283D01*
X14683368Y29829758D02*
X14467842Y29614232D01*
X16479419Y28033707D02*
X16263893Y27818181D01*
X18275470Y26237656D02*
X18059944Y26022130D01*
X20071522Y24441604D02*
X19855996Y24226078D01*
D10*
G36*
X7941922Y38627237D02*
X9378763Y40064078D01*
X10600078Y38842763D01*
X9163237Y37405922D01*
X7941922Y38627237D01*
X7941922Y38627237D01*
G37*
D13*
X11174814Y37046712D02*
X10959288Y36831186D01*
X12970865Y35250661D02*
X12755339Y35035135D01*
X14766917Y33454609D02*
X14551391Y33239083D01*
X16562968Y31658558D02*
X16347442Y31443032D01*
X18359019Y29862507D02*
X18143493Y29646981D01*
X20155070Y28066456D02*
X19939544Y27850930D01*
X21951122Y26270404D02*
X21735596Y26054878D01*
D14*
X21590000Y52832000D03*
D15*
X21590000Y55372000D03*
X24130000Y52832000D03*
X24130000Y55372000D03*
X26670000Y52832000D03*
X26670000Y55372000D03*
X29210000Y52832000D03*
X29210000Y55372000D03*
X31750000Y52832000D03*
X31750000Y55372000D03*
X34290000Y52832000D03*
X34290000Y55372000D03*
X36830000Y52832000D03*
X36830000Y55372000D03*
X39370000Y52832000D03*
X39370000Y55372000D03*
D16*
X52324000Y44450000D03*
X43891200Y36118800D03*
X34036000Y35915600D03*
X25908000Y36169600D03*
X16200000Y50250000D03*
X42400000Y44500000D03*
X32800000Y44500000D03*
X23000000Y44500000D03*
X32702500Y27444700D03*
X36880800Y27368500D03*
X41198800Y30111700D03*
X42392600Y27343100D03*
X16370300Y7327900D03*
X13398500Y9740900D03*
X46253400Y27863800D03*
X53314600Y33705800D03*
X46482000Y31800800D03*
X51689000Y38354000D03*
X34721800Y19583400D03*
X25806400Y3505200D03*
X30175200Y36880800D03*
X21539200Y37439600D03*
X42900000Y37875000D03*
X46355000Y23241000D03*
X52400000Y47400000D03*
X42400000Y47400000D03*
X33200000Y47425000D03*
X22900000Y47400000D03*
X18732500Y4203700D03*
X37719000Y18808700D03*
X43992800Y21907500D03*
X31496000Y11176000D03*
X25057100Y12319000D03*
X8839200Y27228800D03*
X4140200Y33274000D03*
X14897100Y22377400D03*
X7442200Y16281400D03*
X23482300Y20866100D03*
X32727900Y25882600D03*
X36893500Y25857200D03*
X38188900Y11353800D03*
X34798000Y7467600D03*
X41554400Y32994600D03*
X44825000Y41525000D03*
X37693600Y31648400D03*
X34450000Y42600000D03*
X35064700Y33007300D03*
X25000000Y42700000D03*
X33299400Y31635700D03*
X15400000Y42700000D03*
X19748500Y9144000D03*
X14249400Y13690600D03*
X12242800Y16891000D03*
X10299700Y25704800D03*
X46482000Y29210000D03*
X50673000Y26416000D03*
X31877000Y17653000D03*
X41554400Y15798800D03*
X12306300Y24091900D03*
X49072800Y21615400D03*
X22021800Y19519900D03*
X42456100Y19278600D03*
X22085300Y5588000D03*
X16852900Y10909300D03*
X56819800Y33807400D03*
X54711600Y25577800D03*
X24866600Y11125200D03*
X16065500Y57099200D03*
X16078200Y56057800D03*
X25527000Y10452100D03*
X16040100Y54902100D03*
X26212800Y9753600D03*
X26847800Y9118600D03*
X27787600Y9067800D03*
X30073600Y4978400D03*
X38328600Y20739100D03*
X21310600Y13360400D03*
X38341300Y14973300D03*
X37693600Y19913600D03*
X19939000Y14960600D03*
X18237200Y17602200D03*
X37693600Y17716500D03*
X29616400Y14579600D03*
X29616400Y15494000D03*
X29616400Y16459200D03*
X29616400Y17424400D03*
X29616400Y18288000D03*
X48800000Y50700000D03*
X42725000Y42225000D03*
X38800000Y47175000D03*
X36925000Y38775000D03*
X28375000Y47275000D03*
X24925000Y41500000D03*
X20400000Y47000000D03*
X40373300Y9080500D03*
X40043100Y19913600D03*
X8191500Y21336000D03*
X5511800Y25946100D03*
X39471600Y10109200D03*
X23634700Y17106900D03*
X17818100Y22326600D03*
X37058600Y20751800D03*
X42418000Y6146800D03*
X41630600Y5791200D03*
X40919400Y5283200D03*
X39509700Y4749800D03*
X43243500Y6311900D03*
X55105300Y27419300D03*
X44958000Y23177500D03*
X29616400Y11684000D03*
X29616400Y13614400D03*
X29616400Y12649200D03*
X31496000Y20701000D03*
X32080200Y12362118D03*
X30861000Y18288000D03*
X44650000Y55500000D03*
X50165000Y41021000D03*
X46736000Y37719000D03*
X21000000Y41300000D03*
X25550000Y34825000D03*
X39350000Y33175000D03*
X29300000Y34800000D03*
X29300000Y42400000D03*
X38800000Y42500000D03*
X38800000Y34800000D03*
X49200000Y42200000D03*
X18923000Y5842000D03*
X10668000Y14198600D03*
X20777200Y4013200D03*
X15748000Y9093200D03*
X13182600Y11658600D03*
D17*
X30073600Y4978400D02*
X30467300Y5372100D01*
X30467300Y5372100D02*
X39878000Y5384800D01*
X47752000Y7518400D02*
X44856400Y4622800D01*
X47752000Y7518400D02*
X54660800Y14427200D01*
X54660800Y14427200D02*
X54660800Y19989800D01*
X54660800Y19989800D02*
X54127400Y20523200D01*
X52984400Y20523200D02*
X54127400Y20523200D01*
X40627300Y4635500D02*
X39878000Y5384800D01*
X39878000Y5384800D02*
X39865300Y5397500D01*
X44856400Y4622800D02*
X40627300Y4635500D01*
D18*
X48800000Y48300000D02*
X48800000Y50700000D01*
X42725000Y42225000D02*
X48800000Y48300000D01*
X36925000Y45300000D02*
X38800000Y47175000D01*
X36925000Y38775000D02*
X36925000Y45300000D01*
X20400000Y47000000D02*
X20400000Y46025000D01*
X20400000Y46025000D02*
X24925000Y41500000D01*
D17*
X23647400Y17119600D02*
X23634700Y17106900D01*
D18*
X21000000Y39375000D02*
X21000000Y41300000D01*
X25550000Y34825000D02*
X21000000Y39375000D01*
X29300000Y42400000D02*
X29300000Y34800000D01*
X38800000Y42500000D02*
X38800000Y34800000D01*
D19*
G36*
X60656400Y43067318D02*
X60656400Y41787621D01*
X60067689Y42668689D01*
X59136919Y43290610D01*
X58039000Y43509000D01*
X56941081Y43290610D01*
X56010311Y42668689D01*
X55388390Y41737919D01*
X55170000Y40640000D01*
X55388390Y39542081D01*
X56010311Y38611311D01*
X56941081Y37989390D01*
X58039000Y37771000D01*
X59136919Y37989390D01*
X60067689Y38611311D01*
X60656400Y39492379D01*
X60656400Y35547714D01*
X47498119Y35560000D01*
X47448699Y35550040D01*
X47408197Y35522803D01*
X43598197Y31712803D01*
X43570334Y31670789D01*
X43561001Y31623465D01*
X43535601Y24689265D01*
X43545426Y24639819D01*
X43573714Y24598090D01*
X43616008Y24570655D01*
X43671048Y24562081D01*
X44052048Y24587481D01*
X44100683Y24600752D01*
X44140323Y24631898D01*
X44164723Y24676013D01*
X44170599Y24713706D01*
X44173436Y25442935D01*
X54030482Y25442935D01*
X54133939Y25192548D01*
X54325341Y25000813D01*
X54575546Y24896918D01*
X54846465Y24896682D01*
X55096852Y25000139D01*
X55288587Y25191541D01*
X55392482Y25441746D01*
X55392718Y25712665D01*
X55289261Y25963052D01*
X55097859Y26154787D01*
X54847654Y26258682D01*
X54576735Y26258918D01*
X54326348Y26155461D01*
X54134613Y25964059D01*
X54030718Y25713854D01*
X54030482Y25442935D01*
X44173436Y25442935D01*
X44176697Y26281135D01*
X49991882Y26281135D01*
X50095339Y26030748D01*
X50286741Y25839013D01*
X50536946Y25735118D01*
X50807865Y25734882D01*
X51058252Y25838339D01*
X51249987Y26029741D01*
X51353882Y26279946D01*
X51354118Y26550865D01*
X51250661Y26801252D01*
X51059259Y26992987D01*
X50809054Y27096882D01*
X50538135Y27097118D01*
X50287748Y26993661D01*
X50096013Y26802259D01*
X49992118Y26552054D01*
X49991882Y26281135D01*
X44176697Y26281135D01*
X44180601Y27284435D01*
X54424182Y27284435D01*
X54527639Y27034048D01*
X54719041Y26842313D01*
X54969246Y26738418D01*
X55240165Y26738182D01*
X55490552Y26841639D01*
X55682287Y27033041D01*
X55786182Y27283246D01*
X55786418Y27554165D01*
X55682961Y27804552D01*
X55491559Y27996287D01*
X55241354Y28100182D01*
X54970435Y28100418D01*
X54720048Y27996961D01*
X54528313Y27805559D01*
X54424418Y27555354D01*
X54424182Y27284435D01*
X44180601Y27284435D01*
X44187569Y29075135D01*
X45800882Y29075135D01*
X45904339Y28824748D01*
X46095741Y28633013D01*
X46345946Y28529118D01*
X46616865Y28528882D01*
X46867252Y28632339D01*
X46934058Y28699029D01*
X58322856Y28699029D01*
X58449102Y28393491D01*
X58682662Y28159523D01*
X58987979Y28032745D01*
X59318571Y28032456D01*
X59624109Y28158702D01*
X59858077Y28392262D01*
X59984855Y28697579D01*
X59985144Y29028171D01*
X59858898Y29333709D01*
X59625338Y29567677D01*
X59320021Y29694455D01*
X58989429Y29694744D01*
X58683891Y29568498D01*
X58449923Y29334938D01*
X58323145Y29029621D01*
X58322856Y28699029D01*
X46934058Y28699029D01*
X47058987Y28823741D01*
X47162882Y29073946D01*
X47163118Y29344865D01*
X47059661Y29595252D01*
X46868259Y29786987D01*
X46618054Y29890882D01*
X46347135Y29891118D01*
X46096748Y29787661D01*
X45905013Y29596259D01*
X45801118Y29346054D01*
X45800882Y29075135D01*
X44187569Y29075135D01*
X44195795Y31189189D01*
X44705635Y31699029D01*
X58322856Y31699029D01*
X58449102Y31393491D01*
X58682662Y31159523D01*
X58987979Y31032745D01*
X59318571Y31032456D01*
X59624109Y31158702D01*
X59858077Y31392262D01*
X59984855Y31697579D01*
X59985144Y32028171D01*
X59858898Y32333709D01*
X59625338Y32567677D01*
X59320021Y32694455D01*
X58989429Y32694744D01*
X58683891Y32568498D01*
X58449923Y32334938D01*
X58323145Y32029621D01*
X58322856Y31699029D01*
X44705635Y31699029D01*
X46679141Y33672535D01*
X56138682Y33672535D01*
X56242139Y33422148D01*
X56433541Y33230413D01*
X56683746Y33126518D01*
X56954665Y33126282D01*
X57205052Y33229739D01*
X57396787Y33421141D01*
X57500682Y33671346D01*
X57500918Y33942265D01*
X57397461Y34192652D01*
X57206059Y34384387D01*
X56955854Y34488282D01*
X56684935Y34488518D01*
X56434548Y34385061D01*
X56242813Y34193659D01*
X56138918Y33943454D01*
X56138682Y33672535D01*
X46679141Y33672535D01*
X47804806Y34798200D01*
X60656400Y34847112D01*
X60656400Y21467621D01*
X60067689Y22348689D01*
X59136919Y22970610D01*
X58039000Y23189000D01*
X56941081Y22970610D01*
X56010311Y22348689D01*
X55388390Y21417919D01*
X55170000Y20320000D01*
X55388390Y19222081D01*
X56010311Y18291311D01*
X56941081Y17669390D01*
X58039000Y17451000D01*
X59136919Y17669390D01*
X60067689Y18291311D01*
X60656400Y19172379D01*
X60656400Y18045082D01*
X47170868Y4559550D01*
X45502166Y4521189D01*
X45418704Y4520566D01*
X48084270Y7186131D01*
X48084272Y7186134D01*
X54993070Y14094931D01*
X55094931Y14247377D01*
X55130700Y14427200D01*
X55130700Y19989800D01*
X55094931Y20169623D01*
X54993070Y20322069D01*
X54459669Y20855469D01*
X54324743Y20945624D01*
X54314029Y20999488D01*
X54044234Y21403265D01*
X53640457Y21673060D01*
X53164169Y21767800D01*
X52804631Y21767800D01*
X52328343Y21673060D01*
X51924566Y21403265D01*
X51654771Y20999488D01*
X51560031Y20523200D01*
X51654771Y20046912D01*
X51924566Y19643135D01*
X52328343Y19373340D01*
X52804631Y19278600D01*
X53164169Y19278600D01*
X53640457Y19373340D01*
X54044234Y19643135D01*
X54163873Y19822188D01*
X54190900Y19795161D01*
X54190900Y18643764D01*
X54044234Y18863265D01*
X53640457Y19133060D01*
X53164169Y19227800D01*
X52804631Y19227800D01*
X52328343Y19133060D01*
X51924566Y18863265D01*
X51654771Y18459488D01*
X51560031Y17983200D01*
X51654771Y17506912D01*
X51924566Y17103135D01*
X52328343Y16833340D01*
X52804631Y16738600D01*
X53164169Y16738600D01*
X53640457Y16833340D01*
X54044234Y17103135D01*
X54190900Y17322636D01*
X54190900Y16103764D01*
X54044234Y16323265D01*
X53640457Y16593060D01*
X53164169Y16687800D01*
X52804631Y16687800D01*
X52328343Y16593060D01*
X51924566Y16323265D01*
X51654771Y15919488D01*
X51560031Y15443200D01*
X51654771Y14966912D01*
X51924566Y14563135D01*
X52328343Y14293340D01*
X52804631Y14198600D01*
X53164169Y14198600D01*
X53640457Y14293340D01*
X54044234Y14563135D01*
X54190900Y14782636D01*
X54190900Y14621839D01*
X52274180Y12705119D01*
X52200564Y12816123D01*
X50763723Y14252964D01*
X50645101Y14334014D01*
X50494404Y14366705D01*
X50342861Y14338190D01*
X50214351Y14252964D01*
X48993036Y13031649D01*
X48911986Y12913027D01*
X48879295Y12762330D01*
X48907810Y12610787D01*
X48993036Y12482277D01*
X50429877Y11045436D01*
X50539557Y10970496D01*
X50142015Y10572954D01*
X50172465Y10726033D01*
X50077725Y11202321D01*
X49807930Y11606098D01*
X49553698Y11860330D01*
X49149920Y12130125D01*
X48673633Y12224865D01*
X48197346Y12130125D01*
X47793568Y11860330D01*
X47523773Y11456552D01*
X47429033Y10980265D01*
X47523773Y10503978D01*
X47793568Y10100200D01*
X48047800Y9845968D01*
X48451577Y9576173D01*
X48927865Y9481433D01*
X49080944Y9511883D01*
X48345964Y8776903D01*
X48376414Y8929982D01*
X48281674Y9406270D01*
X48011879Y9810047D01*
X47757647Y10064279D01*
X47353869Y10334074D01*
X46877582Y10428814D01*
X46401295Y10334074D01*
X45997517Y10064279D01*
X45727722Y9660501D01*
X45632982Y9184214D01*
X45727722Y8707927D01*
X45997517Y8304149D01*
X46251749Y8049917D01*
X46655526Y7780122D01*
X47131814Y7685382D01*
X47284892Y7715831D01*
X46550087Y6981026D01*
X46550937Y6983470D01*
X46521948Y7468829D01*
X46309427Y7906149D01*
X46112076Y7984871D01*
X45388251Y7261046D01*
X45402394Y7246903D01*
X45222789Y7067298D01*
X45208646Y7081441D01*
X44484821Y6357616D01*
X44563543Y6160265D01*
X45000863Y5947744D01*
X45486222Y5918755D01*
X45488666Y5919605D01*
X44662347Y5093285D01*
X41581758Y5102536D01*
X41584957Y5110239D01*
X41765465Y5110082D01*
X42015852Y5213539D01*
X42207587Y5404941D01*
X42240119Y5483286D01*
X42281946Y5465918D01*
X42552865Y5465682D01*
X42803252Y5569139D01*
X42936391Y5702047D01*
X43107446Y5631018D01*
X43378365Y5630782D01*
X43628752Y5734239D01*
X43820487Y5925641D01*
X43924382Y6175846D01*
X43924618Y6446765D01*
X43821161Y6697152D01*
X43629759Y6888887D01*
X43379554Y6992782D01*
X43108635Y6993018D01*
X42858248Y6889561D01*
X42725109Y6756653D01*
X42554054Y6827682D01*
X42283135Y6827918D01*
X42032748Y6724461D01*
X41841013Y6533059D01*
X41808481Y6454714D01*
X41766654Y6472082D01*
X41495735Y6472318D01*
X41245348Y6368861D01*
X41053613Y6177459D01*
X40965043Y5964161D01*
X40784535Y5964318D01*
X40534148Y5860861D01*
X40342413Y5669459D01*
X40317610Y5609728D01*
X40210272Y5717066D01*
X40210270Y5717069D01*
X40197569Y5729769D01*
X40045123Y5831631D01*
X39865300Y5867399D01*
X39800937Y5854597D01*
X30466666Y5842000D01*
X30376542Y5823947D01*
X30287477Y5806231D01*
X30287209Y5806052D01*
X30286891Y5805988D01*
X30211273Y5755313D01*
X30135031Y5704370D01*
X30090047Y5659386D01*
X29938735Y5659518D01*
X29688348Y5556061D01*
X29496613Y5364659D01*
X29392718Y5114454D01*
X29392482Y4843535D01*
X29495939Y4593148D01*
X29687341Y4401413D01*
X29937546Y4297518D01*
X30208465Y4297282D01*
X30458852Y4400739D01*
X30650587Y4592141D01*
X30754482Y4842346D01*
X30754534Y4902587D01*
X38840297Y4913499D01*
X38828818Y4885854D01*
X38828582Y4614935D01*
X38877807Y4495800D01*
X31826200Y4495800D01*
X31776790Y4485794D01*
X31735165Y4457353D01*
X31707885Y4414959D01*
X31699200Y4368800D01*
X31699200Y405200D01*
X17994282Y405200D01*
X14521147Y3878335D01*
X20096082Y3878335D01*
X20199539Y3627948D01*
X20390941Y3436213D01*
X20641146Y3332318D01*
X20912065Y3332082D01*
X21162452Y3435539D01*
X21354187Y3626941D01*
X21458082Y3877146D01*
X21458318Y4148065D01*
X21354861Y4398452D01*
X21163459Y4590187D01*
X20913254Y4694082D01*
X20642335Y4694318D01*
X20391948Y4590861D01*
X20200213Y4399459D01*
X20096318Y4149254D01*
X20096082Y3878335D01*
X14521147Y3878335D01*
X12692347Y5707135D01*
X18241882Y5707135D01*
X18345339Y5456748D01*
X18536741Y5265013D01*
X18786946Y5161118D01*
X19057865Y5160882D01*
X19308252Y5264339D01*
X19497376Y5453135D01*
X21404182Y5453135D01*
X21507639Y5202748D01*
X21699041Y5011013D01*
X21949246Y4907118D01*
X22220165Y4906882D01*
X22470552Y5010339D01*
X22662287Y5201741D01*
X22766182Y5451946D01*
X22766418Y5722865D01*
X22662961Y5973252D01*
X22471559Y6164987D01*
X22221354Y6268882D01*
X21950435Y6269118D01*
X21700048Y6165661D01*
X21508313Y5974259D01*
X21404418Y5724054D01*
X21404182Y5453135D01*
X19497376Y5453135D01*
X19499987Y5455741D01*
X19603882Y5705946D01*
X19604118Y5976865D01*
X19500661Y6227252D01*
X19309259Y6418987D01*
X19059054Y6522882D01*
X18788135Y6523118D01*
X18537748Y6419661D01*
X18346013Y6228259D01*
X18242118Y5978054D01*
X18241882Y5707135D01*
X12692347Y5707135D01*
X10613018Y7786464D01*
X14343135Y7786464D01*
X14469381Y7480926D01*
X14702941Y7246958D01*
X15008258Y7120180D01*
X15338850Y7119891D01*
X15644388Y7246137D01*
X15878356Y7479697D01*
X15902823Y7538622D01*
X43866355Y7538622D01*
X43895344Y7053263D01*
X44107865Y6615943D01*
X44305216Y6537221D01*
X45029041Y7261046D01*
X44203344Y8086743D01*
X44024588Y7993803D01*
X43866355Y7538622D01*
X15902823Y7538622D01*
X16005134Y7785014D01*
X16005423Y8115606D01*
X15943138Y8266348D01*
X44382949Y8266348D01*
X45208646Y7440651D01*
X45932471Y8164476D01*
X45853749Y8361827D01*
X45416429Y8574348D01*
X44931070Y8603337D01*
X44475889Y8445104D01*
X44382949Y8266348D01*
X15943138Y8266348D01*
X15882913Y8412102D01*
X16133252Y8515539D01*
X16324987Y8706941D01*
X16428882Y8957146D01*
X16428927Y9009135D01*
X19067382Y9009135D01*
X19170839Y8758748D01*
X19362241Y8567013D01*
X19612446Y8463118D01*
X19883365Y8462882D01*
X20133752Y8566339D01*
X20325487Y8757741D01*
X20429382Y9007946D01*
X20429618Y9278865D01*
X20326161Y9529252D01*
X20134759Y9720987D01*
X19884554Y9824882D01*
X19613635Y9825118D01*
X19363248Y9721661D01*
X19171513Y9530259D01*
X19067618Y9280054D01*
X19067382Y9009135D01*
X16428927Y9009135D01*
X16429118Y9228065D01*
X16325661Y9478452D01*
X16134259Y9670187D01*
X15884054Y9774082D01*
X15613135Y9774318D01*
X15362748Y9670861D01*
X15171013Y9479459D01*
X15067118Y9229254D01*
X15066882Y8958335D01*
X15139715Y8782065D01*
X15009708Y8782179D01*
X14704170Y8655933D01*
X14470202Y8422373D01*
X14343424Y8117056D01*
X14343135Y7786464D01*
X10613018Y7786464D01*
X7625047Y10774435D01*
X16171782Y10774435D01*
X16275239Y10524048D01*
X16466641Y10332313D01*
X16716846Y10228418D01*
X16987765Y10228182D01*
X17238152Y10331639D01*
X17429887Y10523041D01*
X17533782Y10773246D01*
X17533971Y10990335D01*
X24185482Y10990335D01*
X24288939Y10739948D01*
X24480341Y10548213D01*
X24730546Y10444318D01*
X24845993Y10444217D01*
X24845882Y10317235D01*
X24949339Y10066848D01*
X25140741Y9875113D01*
X25390946Y9771218D01*
X25531815Y9771095D01*
X25531682Y9618735D01*
X25635139Y9368348D01*
X25826541Y9176613D01*
X26076746Y9072718D01*
X26166759Y9072640D01*
X26166682Y8983735D01*
X26270139Y8733348D01*
X26461541Y8541613D01*
X26711746Y8437718D01*
X26982665Y8437482D01*
X27233052Y8540939D01*
X27292280Y8600064D01*
X27401341Y8490813D01*
X27651546Y8386918D01*
X27922465Y8386682D01*
X28172852Y8490139D01*
X28364587Y8681541D01*
X28468482Y8931746D01*
X28468494Y8945635D01*
X39692182Y8945635D01*
X39795639Y8695248D01*
X39987041Y8503513D01*
X40237246Y8399618D01*
X40508165Y8399382D01*
X40758552Y8502839D01*
X40950287Y8694241D01*
X41054182Y8944446D01*
X41054418Y9215365D01*
X40950961Y9465752D01*
X40759559Y9657487D01*
X40509354Y9761382D01*
X40238435Y9761618D01*
X39988048Y9658161D01*
X39796313Y9466759D01*
X39692418Y9216554D01*
X39692182Y8945635D01*
X28468494Y8945635D01*
X28468718Y9202665D01*
X28365261Y9453052D01*
X28173859Y9644787D01*
X27923654Y9748682D01*
X27652735Y9748918D01*
X27402348Y9645461D01*
X27343120Y9586336D01*
X27234059Y9695587D01*
X26983854Y9799482D01*
X26893841Y9799560D01*
X26893918Y9888465D01*
X26858438Y9974335D01*
X38790482Y9974335D01*
X38893939Y9723948D01*
X39085341Y9532213D01*
X39335546Y9428318D01*
X39606465Y9428082D01*
X39856852Y9531539D01*
X40048587Y9722941D01*
X40152482Y9973146D01*
X40152718Y10244065D01*
X40049261Y10494452D01*
X39857859Y10686187D01*
X39607654Y10790082D01*
X39336735Y10790318D01*
X39086348Y10686861D01*
X38894613Y10495459D01*
X38790718Y10245254D01*
X38790482Y9974335D01*
X26858438Y9974335D01*
X26790461Y10138852D01*
X26599059Y10330587D01*
X26348854Y10434482D01*
X26207985Y10434605D01*
X26208118Y10586965D01*
X26104661Y10837352D01*
X25913259Y11029087D01*
X25663054Y11132982D01*
X25547607Y11133083D01*
X25547718Y11260065D01*
X25444261Y11510452D01*
X25252859Y11702187D01*
X25002654Y11806082D01*
X24731735Y11806318D01*
X24481348Y11702861D01*
X24289613Y11511459D01*
X24185718Y11261254D01*
X24185482Y10990335D01*
X17533971Y10990335D01*
X17534018Y11044165D01*
X17430561Y11294552D01*
X17239159Y11486287D01*
X16988954Y11590182D01*
X16718035Y11590418D01*
X16467648Y11486961D01*
X16275913Y11295559D01*
X16172018Y11045354D01*
X16171782Y10774435D01*
X7625047Y10774435D01*
X6875747Y11523735D01*
X12501482Y11523735D01*
X12604939Y11273348D01*
X12796341Y11081613D01*
X13046546Y10977718D01*
X13317465Y10977482D01*
X13567852Y11080939D01*
X13759587Y11272341D01*
X13863482Y11522546D01*
X13863718Y11793465D01*
X13760261Y12043852D01*
X13568859Y12235587D01*
X13318654Y12339482D01*
X13047735Y12339718D01*
X12797348Y12236261D01*
X12605613Y12044859D01*
X12501718Y11794654D01*
X12501482Y11523735D01*
X6875747Y11523735D01*
X4956164Y13443318D01*
X8686281Y13443318D01*
X8812527Y13137780D01*
X9046087Y12903812D01*
X9351404Y12777034D01*
X9681996Y12776745D01*
X9987534Y12902991D01*
X10221502Y13136551D01*
X10348280Y13441868D01*
X10348413Y13593928D01*
X10531946Y13517718D01*
X10802865Y13517482D01*
X10895445Y13555735D01*
X13568282Y13555735D01*
X13671739Y13305348D01*
X13863141Y13113613D01*
X14113346Y13009718D01*
X14384265Y13009482D01*
X14634652Y13112939D01*
X14747443Y13225535D01*
X20629482Y13225535D01*
X20732939Y12975148D01*
X20924341Y12783413D01*
X21174546Y12679518D01*
X21445465Y12679282D01*
X21695852Y12782739D01*
X21887587Y12974141D01*
X21991482Y13224346D01*
X21991718Y13495265D01*
X21888261Y13745652D01*
X21696859Y13937387D01*
X21446654Y14041282D01*
X21175735Y14041518D01*
X20925348Y13938061D01*
X20733613Y13746659D01*
X20629718Y13496454D01*
X20629482Y13225535D01*
X14747443Y13225535D01*
X14826387Y13304341D01*
X14930282Y13554546D01*
X14930518Y13825465D01*
X14827061Y14075852D01*
X14635659Y14267587D01*
X14385454Y14371482D01*
X14114535Y14371718D01*
X13864148Y14268261D01*
X13672413Y14076859D01*
X13568518Y13826654D01*
X13568282Y13555735D01*
X10895445Y13555735D01*
X11053252Y13620939D01*
X11244987Y13812341D01*
X11348882Y14062546D01*
X11349118Y14333465D01*
X11245661Y14583852D01*
X11054259Y14775587D01*
X10933491Y14825735D01*
X19257882Y14825735D01*
X19361339Y14575348D01*
X19552741Y14383613D01*
X19802946Y14279718D01*
X20073865Y14279482D01*
X20324252Y14382939D01*
X20515987Y14574341D01*
X20619882Y14824546D01*
X20620118Y15095465D01*
X20516661Y15345852D01*
X20325259Y15537587D01*
X20075054Y15641482D01*
X19804135Y15641718D01*
X19553748Y15538261D01*
X19362013Y15346859D01*
X19258118Y15096654D01*
X19257882Y14825735D01*
X10933491Y14825735D01*
X10804054Y14879482D01*
X10533135Y14879718D01*
X10282748Y14776261D01*
X10091013Y14584859D01*
X9987118Y14334654D01*
X9987099Y14312657D01*
X9683446Y14438744D01*
X9352854Y14439033D01*
X9047316Y14312787D01*
X8813348Y14079227D01*
X8686570Y13773910D01*
X8686281Y13443318D01*
X4956164Y13443318D01*
X1643347Y16756135D01*
X11561682Y16756135D01*
X11665139Y16505748D01*
X11856541Y16314013D01*
X12106746Y16210118D01*
X12377665Y16209882D01*
X12628052Y16313339D01*
X12819787Y16504741D01*
X12923682Y16754946D01*
X12923918Y17025865D01*
X12820461Y17276252D01*
X12629710Y17467335D01*
X17556082Y17467335D01*
X17659539Y17216948D01*
X17850941Y17025213D01*
X18101146Y16921318D01*
X18372065Y16921082D01*
X18495381Y16972035D01*
X22953582Y16972035D01*
X23057039Y16721648D01*
X23248441Y16529913D01*
X23498646Y16426018D01*
X23769565Y16425782D01*
X24019952Y16529239D01*
X24211687Y16720641D01*
X24315582Y16970846D01*
X24315818Y17241765D01*
X24212361Y17492152D01*
X24020959Y17683887D01*
X23770754Y17787782D01*
X23499835Y17788018D01*
X23249448Y17684561D01*
X23057713Y17493159D01*
X22953818Y17242954D01*
X22953582Y16972035D01*
X18495381Y16972035D01*
X18622452Y17024539D01*
X18814187Y17215941D01*
X18918082Y17466146D01*
X18918318Y17737065D01*
X18814861Y17987452D01*
X18649466Y18153135D01*
X28935282Y18153135D01*
X29038739Y17902748D01*
X29085120Y17856286D01*
X29039413Y17810659D01*
X28935518Y17560454D01*
X28935282Y17289535D01*
X29038739Y17039148D01*
X29135920Y16941798D01*
X29039413Y16845459D01*
X28935518Y16595254D01*
X28935282Y16324335D01*
X29038739Y16073948D01*
X29135920Y15976598D01*
X29039413Y15880259D01*
X28935518Y15630054D01*
X28935282Y15359135D01*
X29038739Y15108748D01*
X29110520Y15036842D01*
X29039413Y14965859D01*
X28935518Y14715654D01*
X28935282Y14444735D01*
X29038739Y14194348D01*
X29135920Y14096998D01*
X29039413Y14000659D01*
X28935518Y13750454D01*
X28935282Y13479535D01*
X29038739Y13229148D01*
X29135920Y13131798D01*
X29039413Y13035459D01*
X28935518Y12785254D01*
X28935282Y12514335D01*
X29038739Y12263948D01*
X29135920Y12166598D01*
X29039413Y12070259D01*
X28935518Y11820054D01*
X28935282Y11549135D01*
X29038739Y11298748D01*
X29230141Y11107013D01*
X29480346Y11003118D01*
X29751265Y11002882D01*
X30001652Y11106339D01*
X30193387Y11297741D01*
X30297282Y11547946D01*
X30297518Y11818865D01*
X30194061Y12069252D01*
X30096880Y12166602D01*
X30157636Y12227253D01*
X31399082Y12227253D01*
X31502539Y11976866D01*
X31693941Y11785131D01*
X31944146Y11681236D01*
X32215065Y11681000D01*
X32465452Y11784457D01*
X32657187Y11975859D01*
X32761082Y12226064D01*
X32761318Y12496983D01*
X32657861Y12747370D01*
X32466459Y12939105D01*
X32216254Y13043000D01*
X31945335Y13043236D01*
X31694948Y12939779D01*
X31503213Y12748377D01*
X31399318Y12498172D01*
X31399082Y12227253D01*
X30157636Y12227253D01*
X30193387Y12262941D01*
X30297282Y12513146D01*
X30297518Y12784065D01*
X30194061Y13034452D01*
X30096880Y13131802D01*
X30193387Y13228141D01*
X30297282Y13478346D01*
X30297518Y13749265D01*
X30194061Y13999652D01*
X30096880Y14097002D01*
X30193387Y14193341D01*
X30297282Y14443546D01*
X30297518Y14714465D01*
X30246296Y14838435D01*
X37660182Y14838435D01*
X37763639Y14588048D01*
X37955041Y14396313D01*
X38205246Y14292418D01*
X38476165Y14292182D01*
X38726552Y14395639D01*
X38918287Y14587041D01*
X39022182Y14837246D01*
X39022418Y15108165D01*
X38918961Y15358552D01*
X38727559Y15550287D01*
X38477354Y15654182D01*
X38206435Y15654418D01*
X37956048Y15550961D01*
X37764313Y15359559D01*
X37660418Y15109354D01*
X37660182Y14838435D01*
X30246296Y14838435D01*
X30194061Y14964852D01*
X30122280Y15036758D01*
X30193387Y15107741D01*
X30297282Y15357946D01*
X30297518Y15628865D01*
X30283028Y15663935D01*
X40873282Y15663935D01*
X40976739Y15413548D01*
X41168141Y15221813D01*
X41418346Y15117918D01*
X41689265Y15117682D01*
X41939652Y15221139D01*
X42131387Y15412541D01*
X42235282Y15662746D01*
X42235518Y15933665D01*
X42132061Y16184052D01*
X41940659Y16375787D01*
X41690454Y16479682D01*
X41419535Y16479918D01*
X41169148Y16376461D01*
X40977413Y16185059D01*
X40873518Y15934854D01*
X40873282Y15663935D01*
X30283028Y15663935D01*
X30194061Y15879252D01*
X30096880Y15976602D01*
X30193387Y16072941D01*
X30297282Y16323146D01*
X30297518Y16594065D01*
X30194061Y16844452D01*
X30096880Y16941802D01*
X30193387Y17038141D01*
X30297282Y17288346D01*
X30297518Y17559265D01*
X30194061Y17809652D01*
X30147680Y17856114D01*
X30193387Y17901741D01*
X30238683Y18010825D01*
X30283339Y17902748D01*
X30474741Y17711013D01*
X30724946Y17607118D01*
X30995865Y17606882D01*
X31196031Y17689588D01*
X31195882Y17518135D01*
X31299339Y17267748D01*
X31490741Y17076013D01*
X31740946Y16972118D01*
X32011865Y16971882D01*
X32262252Y17075339D01*
X32453987Y17266741D01*
X32557882Y17516946D01*
X32557938Y17581635D01*
X37012482Y17581635D01*
X37115939Y17331248D01*
X37307341Y17139513D01*
X37557546Y17035618D01*
X37828465Y17035382D01*
X38078852Y17138839D01*
X38270587Y17330241D01*
X38374482Y17580446D01*
X38374718Y17851365D01*
X38271261Y18101752D01*
X38079859Y18293487D01*
X37829654Y18397382D01*
X37558735Y18397618D01*
X37308348Y18294161D01*
X37116613Y18102759D01*
X37012718Y17852554D01*
X37012482Y17581635D01*
X32557938Y17581635D01*
X32558118Y17787865D01*
X32454661Y18038252D01*
X32263259Y18229987D01*
X32013054Y18333882D01*
X31742135Y18334118D01*
X31541969Y18251412D01*
X31542118Y18422865D01*
X31438661Y18673252D01*
X31247259Y18864987D01*
X30997054Y18968882D01*
X30726135Y18969118D01*
X30475748Y18865661D01*
X30284013Y18674259D01*
X30238717Y18565175D01*
X30194061Y18673252D01*
X30002659Y18864987D01*
X29752454Y18968882D01*
X29481535Y18969118D01*
X29231148Y18865661D01*
X29039413Y18674259D01*
X28935518Y18424054D01*
X28935282Y18153135D01*
X18649466Y18153135D01*
X18623459Y18179187D01*
X18373254Y18283082D01*
X18102335Y18283318D01*
X17851948Y18179861D01*
X17660213Y17988459D01*
X17556318Y17738254D01*
X17556082Y17467335D01*
X12629710Y17467335D01*
X12629059Y17467987D01*
X12378854Y17571882D01*
X12107935Y17572118D01*
X11857548Y17468661D01*
X11665813Y17277259D01*
X11561918Y17027054D01*
X11561682Y16756135D01*
X1643347Y16756135D01*
X354400Y18045082D01*
X354400Y20076677D01*
X524390Y19222081D01*
X1146311Y18291311D01*
X2077081Y17669390D01*
X3175000Y17451000D01*
X4272919Y17669390D01*
X5203689Y18291311D01*
X5825610Y19222081D01*
X5858023Y19385035D01*
X21340682Y19385035D01*
X21444139Y19134648D01*
X21635541Y18942913D01*
X21885746Y18839018D01*
X22156665Y18838782D01*
X22407052Y18942239D01*
X22598787Y19133641D01*
X22602978Y19143735D01*
X41774982Y19143735D01*
X41878439Y18893348D01*
X42069841Y18701613D01*
X42320046Y18597718D01*
X42590965Y18597482D01*
X42841352Y18700939D01*
X43033087Y18892341D01*
X43136982Y19142546D01*
X43137218Y19413465D01*
X43033761Y19663852D01*
X42842359Y19855587D01*
X42592154Y19959482D01*
X42321235Y19959718D01*
X42070848Y19856261D01*
X41879113Y19664859D01*
X41775218Y19414654D01*
X41774982Y19143735D01*
X22602978Y19143735D01*
X22702682Y19383846D01*
X22702918Y19654765D01*
X22599461Y19905152D01*
X22408059Y20096887D01*
X22157854Y20200782D01*
X21886935Y20201018D01*
X21636548Y20097561D01*
X21444813Y19906159D01*
X21340918Y19655954D01*
X21340682Y19385035D01*
X5858023Y19385035D01*
X6044000Y20320000D01*
X5995041Y20566135D01*
X30814882Y20566135D01*
X30918339Y20315748D01*
X31109741Y20124013D01*
X31359946Y20020118D01*
X31630865Y20019882D01*
X31881252Y20123339D01*
X32072987Y20314741D01*
X32176882Y20564946D01*
X32176927Y20616935D01*
X36377482Y20616935D01*
X36480939Y20366548D01*
X36672341Y20174813D01*
X36922546Y20070918D01*
X37021512Y20070832D01*
X37012718Y20049654D01*
X37012482Y19778735D01*
X37115939Y19528348D01*
X37307341Y19336613D01*
X37557546Y19232718D01*
X37828465Y19232482D01*
X38078852Y19335939D01*
X38270587Y19527341D01*
X38374482Y19777546D01*
X38374483Y19778735D01*
X39361982Y19778735D01*
X39465439Y19528348D01*
X39656841Y19336613D01*
X39907046Y19232718D01*
X40177965Y19232482D01*
X40428352Y19335939D01*
X40620087Y19527341D01*
X40723982Y19777546D01*
X40724218Y20048465D01*
X40620761Y20298852D01*
X40429359Y20490587D01*
X40179154Y20594482D01*
X39908235Y20594718D01*
X39657848Y20491261D01*
X39466113Y20299859D01*
X39362218Y20049654D01*
X39361982Y19778735D01*
X38374483Y19778735D01*
X38374718Y20048465D01*
X38370752Y20058063D01*
X38463465Y20057982D01*
X38713852Y20161439D01*
X38905587Y20352841D01*
X39009482Y20603046D01*
X39009718Y20873965D01*
X38906261Y21124352D01*
X38714859Y21316087D01*
X38464654Y21419982D01*
X38193735Y21420218D01*
X37943348Y21316761D01*
X37751613Y21125359D01*
X37696216Y20991949D01*
X37636261Y21137052D01*
X37444859Y21328787D01*
X37194654Y21432682D01*
X36923735Y21432918D01*
X36673348Y21329461D01*
X36481613Y21138059D01*
X36377718Y20887854D01*
X36377482Y20616935D01*
X32176927Y20616935D01*
X32177118Y20835865D01*
X32073661Y21086252D01*
X31882259Y21277987D01*
X31632054Y21381882D01*
X31361135Y21382118D01*
X31110748Y21278661D01*
X30919013Y21087259D01*
X30815118Y20837054D01*
X30814882Y20566135D01*
X5995041Y20566135D01*
X5868732Y21201135D01*
X7510382Y21201135D01*
X7613839Y20950748D01*
X7805241Y20759013D01*
X8055446Y20655118D01*
X8326365Y20654882D01*
X8576752Y20758339D01*
X8768487Y20949741D01*
X8872382Y21199946D01*
X8872618Y21470865D01*
X8769161Y21721252D01*
X8577759Y21912987D01*
X8327554Y22016882D01*
X8056635Y22017118D01*
X7806248Y21913661D01*
X7614513Y21722259D01*
X7510618Y21472054D01*
X7510382Y21201135D01*
X5868732Y21201135D01*
X5825610Y21417919D01*
X5308563Y22191735D01*
X17136982Y22191735D01*
X17240439Y21941348D01*
X17431841Y21749613D01*
X17682046Y21645718D01*
X17952965Y21645482D01*
X18203352Y21748939D01*
X18395087Y21940341D01*
X18498982Y22190546D01*
X18499218Y22461465D01*
X18395761Y22711852D01*
X18204359Y22903587D01*
X17954154Y23007482D01*
X17683235Y23007718D01*
X17432848Y22904261D01*
X17241113Y22712859D01*
X17137218Y22462654D01*
X17136982Y22191735D01*
X5308563Y22191735D01*
X5203689Y22348689D01*
X4272919Y22970610D01*
X3175000Y23189000D01*
X2077081Y22970610D01*
X1146311Y22348689D01*
X524390Y21417919D01*
X354400Y20563323D01*
X354400Y23957035D01*
X11625182Y23957035D01*
X11728639Y23706648D01*
X11920041Y23514913D01*
X12170246Y23411018D01*
X12441165Y23410782D01*
X12691552Y23514239D01*
X12883287Y23705641D01*
X12987182Y23955846D01*
X12987400Y24206725D01*
X18592043Y24206725D01*
X18686783Y23730438D01*
X18956578Y23326660D01*
X19360356Y23056865D01*
X19836643Y22962125D01*
X20312930Y23056865D01*
X20716708Y23326660D01*
X20970940Y23580892D01*
X21240735Y23984669D01*
X21335475Y24460957D01*
X21251450Y24883379D01*
X21716243Y24790925D01*
X22192530Y24885665D01*
X22596308Y25155460D01*
X22850540Y25409692D01*
X23120335Y25813469D01*
X23215075Y26289757D01*
X23120335Y26766044D01*
X22850540Y27169822D01*
X22446762Y27439617D01*
X21970475Y27534357D01*
X21494187Y27439617D01*
X21090410Y27169822D01*
X20836178Y26915590D01*
X20566383Y26511812D01*
X20471643Y26035525D01*
X20555668Y25613103D01*
X20090875Y25705557D01*
X19614587Y25610817D01*
X19210810Y25341022D01*
X18956578Y25086790D01*
X18686783Y24683012D01*
X18592043Y24206725D01*
X12987400Y24206725D01*
X12987418Y24226765D01*
X12883961Y24477152D01*
X12692559Y24668887D01*
X12442354Y24772782D01*
X12171435Y24773018D01*
X11921048Y24669561D01*
X11729313Y24478159D01*
X11625418Y24227954D01*
X11625182Y23957035D01*
X354400Y23957035D01*
X354400Y25811235D01*
X4830682Y25811235D01*
X4934139Y25560848D01*
X5125541Y25369113D01*
X5375746Y25265218D01*
X5646665Y25264982D01*
X5897052Y25368439D01*
X6088787Y25559841D01*
X6092978Y25569935D01*
X9618582Y25569935D01*
X9722039Y25319548D01*
X9913441Y25127813D01*
X10163646Y25023918D01*
X10434565Y25023682D01*
X10684952Y25127139D01*
X10876687Y25318541D01*
X10980582Y25568746D01*
X10980818Y25839665D01*
X10913423Y26002777D01*
X16795991Y26002777D01*
X16890731Y25526490D01*
X17160526Y25122712D01*
X17564304Y24852917D01*
X18040591Y24758177D01*
X18516878Y24852917D01*
X18920656Y25122712D01*
X19174888Y25376944D01*
X19444683Y25780721D01*
X19539423Y26257009D01*
X19455398Y26679431D01*
X19920191Y26586977D01*
X20396478Y26681717D01*
X20800256Y26951512D01*
X21054488Y27205744D01*
X21324283Y27609521D01*
X21419023Y28085809D01*
X21324283Y28562096D01*
X21054488Y28965874D01*
X20650710Y29235669D01*
X20174423Y29330409D01*
X19698135Y29235669D01*
X19294358Y28965874D01*
X19040126Y28711642D01*
X18770331Y28307864D01*
X18675591Y27831577D01*
X18759616Y27409155D01*
X18294823Y27501609D01*
X17818535Y27406869D01*
X17414758Y27137074D01*
X17160526Y26882842D01*
X16890731Y26479064D01*
X16795991Y26002777D01*
X10913423Y26002777D01*
X10877361Y26090052D01*
X10685959Y26281787D01*
X10435754Y26385682D01*
X10164835Y26385918D01*
X9914448Y26282461D01*
X9722713Y26091059D01*
X9618818Y25840854D01*
X9618582Y25569935D01*
X6092978Y25569935D01*
X6192682Y25810046D01*
X6192918Y26080965D01*
X6089461Y26331352D01*
X5898059Y26523087D01*
X5647854Y26626982D01*
X5376935Y26627218D01*
X5126548Y26523761D01*
X4934813Y26332359D01*
X4830918Y26082154D01*
X4830682Y25811235D01*
X354400Y25811235D01*
X354400Y27798828D01*
X14999940Y27798828D01*
X15094680Y27322541D01*
X15364475Y26918763D01*
X15768253Y26648968D01*
X16244540Y26554228D01*
X16720827Y26648968D01*
X17124605Y26918763D01*
X17378837Y27172995D01*
X17648632Y27576772D01*
X17743372Y28053060D01*
X17659347Y28475482D01*
X18124140Y28383028D01*
X18600427Y28477768D01*
X19004205Y28747563D01*
X19258437Y29001795D01*
X19528232Y29405572D01*
X19622972Y29881860D01*
X19528232Y30358147D01*
X19258437Y30761925D01*
X18854659Y31031720D01*
X18378372Y31126460D01*
X17902084Y31031720D01*
X17498307Y30761925D01*
X17244075Y30507693D01*
X16974280Y30103915D01*
X16879540Y29627628D01*
X16963565Y29205206D01*
X16498772Y29297660D01*
X16022484Y29202920D01*
X15618707Y28933125D01*
X15364475Y28678893D01*
X15094680Y28275115D01*
X14999940Y27798828D01*
X354400Y27798828D01*
X354400Y29594879D01*
X13203889Y29594879D01*
X13298629Y29118592D01*
X13568424Y28714814D01*
X13972202Y28445019D01*
X14448489Y28350279D01*
X14924776Y28445019D01*
X15328554Y28714814D01*
X15582786Y28969046D01*
X15852581Y29372823D01*
X15947321Y29849111D01*
X15863296Y30271533D01*
X16328089Y30179079D01*
X16804376Y30273819D01*
X17208154Y30543614D01*
X17462386Y30797846D01*
X17732181Y31201623D01*
X17826921Y31677911D01*
X17732181Y32154198D01*
X17462386Y32557976D01*
X17058608Y32827771D01*
X16582321Y32922511D01*
X16106033Y32827771D01*
X15702256Y32557976D01*
X15448024Y32303744D01*
X15178229Y31899966D01*
X15083489Y31423679D01*
X15167514Y31001257D01*
X14702721Y31093711D01*
X14226433Y30998971D01*
X13822656Y30729176D01*
X13568424Y30474944D01*
X13298629Y30071166D01*
X13203889Y29594879D01*
X354400Y29594879D01*
X354400Y31390930D01*
X11407838Y31390930D01*
X11502578Y30914643D01*
X11772373Y30510865D01*
X12176151Y30241070D01*
X12652438Y30146330D01*
X13128725Y30241070D01*
X13532503Y30510865D01*
X13786735Y30765097D01*
X14056530Y31168874D01*
X14151270Y31645162D01*
X14067245Y32067584D01*
X14532038Y31975130D01*
X15008325Y32069870D01*
X15412103Y32339665D01*
X15666335Y32593897D01*
X15936130Y32997674D01*
X16030870Y33473962D01*
X15936130Y33950249D01*
X15666335Y34354027D01*
X15262557Y34623822D01*
X14786270Y34718562D01*
X14309982Y34623822D01*
X13906205Y34354027D01*
X13651973Y34099795D01*
X13382178Y33696017D01*
X13287438Y33219730D01*
X13371463Y32797308D01*
X12906670Y32889762D01*
X12430382Y32795022D01*
X12026605Y32525227D01*
X11772373Y32270995D01*
X11502578Y31867217D01*
X11407838Y31390930D01*
X354400Y31390930D01*
X354400Y33186982D01*
X9611786Y33186982D01*
X9706526Y32710695D01*
X9976321Y32306917D01*
X10380099Y32037122D01*
X10856386Y31942382D01*
X11332673Y32037122D01*
X11736451Y32306917D01*
X11990683Y32561149D01*
X12260478Y32964926D01*
X12355218Y33441214D01*
X12271193Y33863636D01*
X12735986Y33771182D01*
X13212273Y33865922D01*
X13616051Y34135717D01*
X13870283Y34389949D01*
X14140078Y34793726D01*
X14234818Y35270014D01*
X14140078Y35746301D01*
X13870283Y36150079D01*
X13466505Y36419874D01*
X12990218Y36514614D01*
X12513930Y36419874D01*
X12110153Y36150079D01*
X11855921Y35895847D01*
X11586126Y35492069D01*
X11491386Y35015782D01*
X11575411Y34593360D01*
X11110618Y34685814D01*
X10634330Y34591074D01*
X10230553Y34321279D01*
X9976321Y34067047D01*
X9706526Y33663269D01*
X9611786Y33186982D01*
X354400Y33186982D01*
X354400Y34104847D01*
X8361754Y34104847D01*
X8454694Y33926091D01*
X8909875Y33767858D01*
X9395234Y33796847D01*
X9832554Y34009368D01*
X9911276Y34206719D01*
X9187451Y34930544D01*
X8361754Y34104847D01*
X354400Y34104847D01*
X354400Y34832573D01*
X7845160Y34832573D01*
X8003393Y34377392D01*
X8182149Y34284452D01*
X9007846Y35110149D01*
X8284021Y35833974D01*
X8086670Y35755252D01*
X7874149Y35317932D01*
X7845160Y34832573D01*
X354400Y34832573D01*
X354400Y36803804D01*
X5673895Y36803804D01*
X5702410Y36652261D01*
X5787636Y36523751D01*
X7008951Y35302436D01*
X7127573Y35221386D01*
X7278270Y35188695D01*
X7429813Y35217210D01*
X7558323Y35302436D01*
X8269466Y36013579D01*
X8463626Y36013579D01*
X9187451Y35289754D01*
X9201594Y35303896D01*
X9381199Y35124291D01*
X9367056Y35110149D01*
X10090881Y34386324D01*
X10288232Y34465046D01*
X10500753Y34902366D01*
X10529742Y35387725D01*
X10425559Y35687423D01*
X10463648Y35661973D01*
X10939935Y35567233D01*
X11416222Y35661973D01*
X11820000Y35931768D01*
X12074232Y36186000D01*
X12344027Y36589777D01*
X12438767Y37066065D01*
X12344027Y37542352D01*
X12074232Y37946130D01*
X11670454Y38215925D01*
X11194167Y38310665D01*
X10717879Y38215925D01*
X10314102Y37946130D01*
X10059870Y37691898D01*
X9790075Y37288120D01*
X9695335Y36811833D01*
X9789242Y36339734D01*
X9465027Y36452440D01*
X8979668Y36423451D01*
X8542348Y36210930D01*
X8463626Y36013579D01*
X8269466Y36013579D01*
X8995164Y36739277D01*
X9076214Y36857899D01*
X9108905Y37008596D01*
X9105076Y37028948D01*
X9157870Y37017495D01*
X9309413Y37046010D01*
X9437923Y37131236D01*
X10874764Y38568077D01*
X10955814Y38686699D01*
X10988505Y38837396D01*
X10959990Y38988939D01*
X10874764Y39117449D01*
X9653449Y40338764D01*
X9534827Y40419814D01*
X9384130Y40452505D01*
X9232587Y40423990D01*
X9104077Y40338764D01*
X7667236Y38901923D01*
X7586186Y38783301D01*
X7553495Y38632604D01*
X7557324Y38612252D01*
X7504530Y38623705D01*
X7352987Y38595190D01*
X7224477Y38509964D01*
X5787636Y37073123D01*
X5706586Y36954501D01*
X5673895Y36803804D01*
X354400Y36803804D01*
X354400Y40396677D01*
X524390Y39542081D01*
X1146311Y38611311D01*
X2077081Y37989390D01*
X3175000Y37771000D01*
X4272919Y37989390D01*
X5203689Y38611311D01*
X5825610Y39542081D01*
X6044000Y40640000D01*
X5825610Y41737919D01*
X5203689Y42668689D01*
X4272919Y43290610D01*
X3175000Y43509000D01*
X2077081Y43290610D01*
X1146311Y42668689D01*
X524390Y41737919D01*
X354400Y40883323D01*
X354400Y43067318D01*
X5274452Y47987370D01*
X28473400Y24775915D01*
X28473400Y21539200D01*
X28483406Y21489790D01*
X28511847Y21448165D01*
X28554241Y21420885D01*
X28600400Y21412200D01*
X28981400Y21412200D01*
X29030810Y21422206D01*
X29072435Y21450647D01*
X29091667Y21480535D01*
X48391682Y21480535D01*
X48495139Y21230148D01*
X48686541Y21038413D01*
X48936746Y20934518D01*
X49207665Y20934282D01*
X49458052Y21037739D01*
X49649787Y21229141D01*
X49753682Y21479346D01*
X49753918Y21750265D01*
X49650461Y22000652D01*
X49459059Y22192387D01*
X49208854Y22296282D01*
X48937935Y22296518D01*
X48687548Y22193061D01*
X48495813Y22001659D01*
X48391918Y21751454D01*
X48391682Y21480535D01*
X29091667Y21480535D01*
X29099715Y21493041D01*
X29108400Y21539200D01*
X29108400Y23042635D01*
X44276882Y23042635D01*
X44380339Y22792248D01*
X44571741Y22600513D01*
X44821946Y22496618D01*
X45092865Y22496382D01*
X45343252Y22599839D01*
X45534987Y22791241D01*
X45638882Y23041446D01*
X45639118Y23312365D01*
X45535661Y23562752D01*
X45344259Y23754487D01*
X45094054Y23858382D01*
X44823135Y23858618D01*
X44572748Y23755161D01*
X44381013Y23563759D01*
X44277118Y23313554D01*
X44276882Y23042635D01*
X29108400Y23042635D01*
X29108400Y23926800D01*
X51579936Y23926800D01*
X51579936Y22199600D01*
X51606503Y22058410D01*
X51689946Y21928735D01*
X51817266Y21841741D01*
X51968400Y21811136D01*
X54000400Y21811136D01*
X54141590Y21837703D01*
X54271265Y21921146D01*
X54358259Y22048466D01*
X54388864Y22199600D01*
X54388864Y23926800D01*
X54362297Y24067990D01*
X54278854Y24197665D01*
X54151534Y24284659D01*
X54000400Y24315264D01*
X51968400Y24315264D01*
X51827210Y24288697D01*
X51697535Y24205254D01*
X51610541Y24077934D01*
X51579936Y23926800D01*
X29108400Y23926800D01*
X29108400Y25107900D01*
X29098394Y25157310D01*
X29071227Y25197678D01*
X26960205Y27309835D01*
X32021382Y27309835D01*
X32124839Y27059448D01*
X32316241Y26867713D01*
X32566446Y26763818D01*
X32837365Y26763582D01*
X33087752Y26867039D01*
X33279487Y27058441D01*
X33352234Y27233635D01*
X36199682Y27233635D01*
X36303139Y26983248D01*
X36494541Y26791513D01*
X36744746Y26687618D01*
X37015665Y26687382D01*
X37266052Y26790839D01*
X37457787Y26982241D01*
X37551628Y27208235D01*
X41711482Y27208235D01*
X41814939Y26957848D01*
X42006341Y26766113D01*
X42256546Y26662218D01*
X42527465Y26661982D01*
X42777852Y26765439D01*
X42969587Y26956841D01*
X43073482Y27207046D01*
X43073718Y27477965D01*
X42970261Y27728352D01*
X42778859Y27920087D01*
X42528654Y28023982D01*
X42257735Y28024218D01*
X42007348Y27920761D01*
X41815613Y27729359D01*
X41711718Y27479154D01*
X41711482Y27208235D01*
X37551628Y27208235D01*
X37561682Y27232446D01*
X37561918Y27503365D01*
X37458461Y27753752D01*
X37267059Y27945487D01*
X37016854Y28049382D01*
X36745935Y28049618D01*
X36495548Y27946161D01*
X36303813Y27754759D01*
X36199918Y27504554D01*
X36199682Y27233635D01*
X33352234Y27233635D01*
X33383382Y27308646D01*
X33383618Y27579565D01*
X33280161Y27829952D01*
X33088759Y28021687D01*
X32838554Y28125582D01*
X32567635Y28125818D01*
X32317248Y28022361D01*
X32125513Y27830959D01*
X32021618Y27580754D01*
X32021382Y27309835D01*
X26960205Y27309835D01*
X24294639Y29976835D01*
X40517682Y29976835D01*
X40621139Y29726448D01*
X40812541Y29534713D01*
X41062746Y29430818D01*
X41333665Y29430582D01*
X41584052Y29534039D01*
X41775787Y29725441D01*
X41879682Y29975646D01*
X41879918Y30246565D01*
X41776461Y30496952D01*
X41585059Y30688687D01*
X41334854Y30792582D01*
X41063935Y30792818D01*
X40813548Y30689361D01*
X40621813Y30497959D01*
X40517918Y30247754D01*
X40517682Y29976835D01*
X24294639Y29976835D01*
X22771457Y31500835D01*
X32618282Y31500835D01*
X32721739Y31250448D01*
X32913141Y31058713D01*
X33163346Y30954818D01*
X33434265Y30954582D01*
X33684652Y31058039D01*
X33876387Y31249441D01*
X33980282Y31499646D01*
X33980294Y31513535D01*
X37012482Y31513535D01*
X37115939Y31263148D01*
X37307341Y31071413D01*
X37557546Y30967518D01*
X37828465Y30967282D01*
X38078852Y31070739D01*
X38270587Y31262141D01*
X38374482Y31512346D01*
X38374718Y31783265D01*
X38271261Y32033652D01*
X38079859Y32225387D01*
X37829654Y32329282D01*
X37558735Y32329518D01*
X37308348Y32226061D01*
X37116613Y32034659D01*
X37012718Y31784454D01*
X37012482Y31513535D01*
X33980294Y31513535D01*
X33980518Y31770565D01*
X33877061Y32020952D01*
X33685659Y32212687D01*
X33435454Y32316582D01*
X33164535Y32316818D01*
X32914148Y32213361D01*
X32722413Y32021959D01*
X32618518Y31771754D01*
X32618282Y31500835D01*
X22771457Y31500835D01*
X21400595Y32872435D01*
X34383582Y32872435D01*
X34487039Y32622048D01*
X34678441Y32430313D01*
X34928646Y32326418D01*
X35199565Y32326182D01*
X35449952Y32429639D01*
X35641687Y32621041D01*
X35745582Y32871246D01*
X35745729Y33040135D01*
X38668882Y33040135D01*
X38772339Y32789748D01*
X38963741Y32598013D01*
X39213946Y32494118D01*
X39484865Y32493882D01*
X39735252Y32597339D01*
X39926987Y32788741D01*
X39956466Y32859735D01*
X40873282Y32859735D01*
X40976739Y32609348D01*
X41168141Y32417613D01*
X41418346Y32313718D01*
X41689265Y32313482D01*
X41939652Y32416939D01*
X42131387Y32608341D01*
X42235282Y32858546D01*
X42235518Y33129465D01*
X42132061Y33379852D01*
X41940659Y33571587D01*
X41690454Y33675482D01*
X41419535Y33675718D01*
X41169148Y33572261D01*
X40977413Y33380859D01*
X40873518Y33130654D01*
X40873282Y32859735D01*
X39956466Y32859735D01*
X40030882Y33038946D01*
X40031118Y33309865D01*
X39927661Y33560252D01*
X39736259Y33751987D01*
X39486054Y33855882D01*
X39215135Y33856118D01*
X38964748Y33752661D01*
X38773013Y33561259D01*
X38669118Y33311054D01*
X38668882Y33040135D01*
X35745729Y33040135D01*
X35745818Y33142165D01*
X35642361Y33392552D01*
X35450959Y33584287D01*
X35200754Y33688182D01*
X34929835Y33688418D01*
X34679448Y33584961D01*
X34487713Y33393559D01*
X34383818Y33143354D01*
X34383582Y32872435D01*
X21400595Y32872435D01*
X13112350Y41165135D01*
X20318882Y41165135D01*
X20422339Y40914748D01*
X20494000Y40842962D01*
X20494000Y39375000D01*
X20532517Y39181362D01*
X20642204Y39017204D01*
X24868969Y34790439D01*
X24868882Y34690135D01*
X24972339Y34439748D01*
X25163741Y34248013D01*
X25413946Y34144118D01*
X25684865Y34143882D01*
X25935252Y34247339D01*
X26126987Y34438741D01*
X26230882Y34688946D01*
X26231118Y34959865D01*
X26127661Y35210252D01*
X25936259Y35401987D01*
X25686054Y35505882D01*
X25584622Y35505970D01*
X25055857Y36034735D01*
X25226882Y36034735D01*
X25330339Y35784348D01*
X25521741Y35592613D01*
X25771946Y35488718D01*
X26042865Y35488482D01*
X26293252Y35591939D01*
X26484987Y35783341D01*
X26588882Y36033546D01*
X26589118Y36304465D01*
X26485661Y36554852D01*
X26294259Y36746587D01*
X26044054Y36850482D01*
X25773135Y36850718D01*
X25522748Y36747261D01*
X25331013Y36555859D01*
X25227118Y36305654D01*
X25226882Y36034735D01*
X25055857Y36034735D01*
X21506000Y39584592D01*
X21506000Y40842877D01*
X21576987Y40913741D01*
X21680882Y41163946D01*
X21681118Y41434865D01*
X21577661Y41685252D01*
X21386259Y41876987D01*
X21136054Y41980882D01*
X20865135Y41981118D01*
X20614748Y41877661D01*
X20423013Y41686259D01*
X20319118Y41436054D01*
X20318882Y41165135D01*
X13112350Y41165135D01*
X11713102Y42565135D01*
X14718882Y42565135D01*
X14822339Y42314748D01*
X15013741Y42123013D01*
X15263946Y42019118D01*
X15534865Y42018882D01*
X15785252Y42122339D01*
X15976987Y42313741D01*
X16080882Y42563946D01*
X16081118Y42834865D01*
X15977661Y43085252D01*
X15786259Y43276987D01*
X15536054Y43380882D01*
X15265135Y43381118D01*
X15014748Y43277661D01*
X14823013Y43086259D01*
X14719118Y42836054D01*
X14718882Y42565135D01*
X11713102Y42565135D01*
X7415413Y46865135D01*
X19718882Y46865135D01*
X19822339Y46614748D01*
X19894000Y46542962D01*
X19894000Y46025000D01*
X19932517Y45831362D01*
X20042204Y45667204D01*
X24243969Y41465439D01*
X24243882Y41365135D01*
X24347339Y41114748D01*
X24538741Y40923013D01*
X24788946Y40819118D01*
X25059865Y40818882D01*
X25310252Y40922339D01*
X25501987Y41113741D01*
X25605882Y41363946D01*
X25606118Y41634865D01*
X25502661Y41885252D01*
X25311259Y42076987D01*
X25293419Y42084395D01*
X25385252Y42122339D01*
X25528296Y42265135D01*
X28618882Y42265135D01*
X28722339Y42014748D01*
X28794000Y41942962D01*
X28794000Y35257123D01*
X28723013Y35186259D01*
X28619118Y34936054D01*
X28618882Y34665135D01*
X28722339Y34414748D01*
X28913741Y34223013D01*
X29163946Y34119118D01*
X29434865Y34118882D01*
X29685252Y34222339D01*
X29876987Y34413741D01*
X29980882Y34663946D01*
X29981118Y34934865D01*
X29877661Y35185252D01*
X29806000Y35257038D01*
X29806000Y35780735D01*
X33354882Y35780735D01*
X33458339Y35530348D01*
X33649741Y35338613D01*
X33899946Y35234718D01*
X34170865Y35234482D01*
X34421252Y35337939D01*
X34612987Y35529341D01*
X34716882Y35779546D01*
X34717118Y36050465D01*
X34613661Y36300852D01*
X34422259Y36492587D01*
X34172054Y36596482D01*
X33901135Y36596718D01*
X33650748Y36493261D01*
X33459013Y36301859D01*
X33355118Y36051654D01*
X33354882Y35780735D01*
X29806000Y35780735D01*
X29806000Y38640135D01*
X36243882Y38640135D01*
X36347339Y38389748D01*
X36538741Y38198013D01*
X36788946Y38094118D01*
X37059865Y38093882D01*
X37310252Y38197339D01*
X37501987Y38388741D01*
X37605882Y38638946D01*
X37606118Y38909865D01*
X37502661Y39160252D01*
X37431000Y39232038D01*
X37431000Y42365135D01*
X38118882Y42365135D01*
X38222339Y42114748D01*
X38294000Y42042962D01*
X38294000Y35257123D01*
X38223013Y35186259D01*
X38119118Y34936054D01*
X38118882Y34665135D01*
X38222339Y34414748D01*
X38413741Y34223013D01*
X38663946Y34119118D01*
X38934865Y34118882D01*
X39185252Y34222339D01*
X39376987Y34413741D01*
X39480882Y34663946D01*
X39481118Y34934865D01*
X39377661Y35185252D01*
X39306000Y35257038D01*
X39306000Y35983935D01*
X43210082Y35983935D01*
X43313539Y35733548D01*
X43504941Y35541813D01*
X43755146Y35437918D01*
X44026065Y35437682D01*
X44276452Y35541139D01*
X44468187Y35732541D01*
X44572082Y35982746D01*
X44572318Y36253665D01*
X44468861Y36504052D01*
X44277459Y36695787D01*
X44027254Y36799682D01*
X43756335Y36799918D01*
X43505948Y36696461D01*
X43314213Y36505059D01*
X43210318Y36254854D01*
X43210082Y35983935D01*
X39306000Y35983935D01*
X39306000Y37584135D01*
X46054882Y37584135D01*
X46158339Y37333748D01*
X46349741Y37142013D01*
X46599946Y37038118D01*
X46870865Y37037882D01*
X47121252Y37141339D01*
X47312987Y37332741D01*
X47416882Y37582946D01*
X47417118Y37853865D01*
X47313661Y38104252D01*
X47122259Y38295987D01*
X46872054Y38399882D01*
X46601135Y38400118D01*
X46350748Y38296661D01*
X46159013Y38105259D01*
X46055118Y37855054D01*
X46054882Y37584135D01*
X39306000Y37584135D01*
X39306000Y41390135D01*
X44143882Y41390135D01*
X44247339Y41139748D01*
X44438741Y40948013D01*
X44688946Y40844118D01*
X44959865Y40843882D01*
X45062125Y40886135D01*
X49483882Y40886135D01*
X49587339Y40635748D01*
X49778741Y40444013D01*
X50028946Y40340118D01*
X50299865Y40339882D01*
X50550252Y40443339D01*
X50741987Y40634741D01*
X50845882Y40884946D01*
X50846118Y41155865D01*
X50742661Y41406252D01*
X50551259Y41597987D01*
X50301054Y41701882D01*
X50030135Y41702118D01*
X49779748Y41598661D01*
X49588013Y41407259D01*
X49484118Y41157054D01*
X49483882Y40886135D01*
X45062125Y40886135D01*
X45210252Y40947339D01*
X45401987Y41138741D01*
X45505882Y41388946D01*
X45506118Y41659865D01*
X45402661Y41910252D01*
X45248047Y42065135D01*
X48518882Y42065135D01*
X48622339Y41814748D01*
X48813741Y41623013D01*
X49063946Y41519118D01*
X49334865Y41518882D01*
X49585252Y41622339D01*
X49776987Y41813741D01*
X49880882Y42063946D01*
X49881118Y42334865D01*
X49777661Y42585252D01*
X49586259Y42776987D01*
X49336054Y42880882D01*
X49065135Y42881118D01*
X48814748Y42777661D01*
X48623013Y42586259D01*
X48519118Y42336054D01*
X48518882Y42065135D01*
X45248047Y42065135D01*
X45211259Y42101987D01*
X44961054Y42205882D01*
X44690135Y42206118D01*
X44439748Y42102661D01*
X44248013Y41911259D01*
X44144118Y41661054D01*
X44143882Y41390135D01*
X39306000Y41390135D01*
X39306000Y42042877D01*
X39353340Y42090135D01*
X42043882Y42090135D01*
X42147339Y41839748D01*
X42338741Y41648013D01*
X42588946Y41544118D01*
X42859865Y41543882D01*
X43110252Y41647339D01*
X43301987Y41838741D01*
X43405882Y42088946D01*
X43405970Y42190378D01*
X45530727Y44315135D01*
X51642882Y44315135D01*
X51746339Y44064748D01*
X51937741Y43873013D01*
X52187946Y43769118D01*
X52458865Y43768882D01*
X52709252Y43872339D01*
X52900987Y44063741D01*
X53004882Y44313946D01*
X53005118Y44584865D01*
X52901661Y44835252D01*
X52710259Y45026987D01*
X52460054Y45130882D01*
X52189135Y45131118D01*
X51938748Y45027661D01*
X51747013Y44836259D01*
X51643118Y44586054D01*
X51642882Y44315135D01*
X45530727Y44315135D01*
X49157796Y47942204D01*
X49267483Y48106362D01*
X49306000Y48300000D01*
X49306000Y50242877D01*
X49376987Y50313741D01*
X49480882Y50563946D01*
X49481118Y50834865D01*
X49377661Y51085252D01*
X49186259Y51276987D01*
X48936054Y51380882D01*
X48665135Y51381118D01*
X48414748Y51277661D01*
X48223013Y51086259D01*
X48119118Y50836054D01*
X48118882Y50565135D01*
X48222339Y50314748D01*
X48294000Y50242962D01*
X48294000Y48509592D01*
X42690439Y42906031D01*
X42590135Y42906118D01*
X42339748Y42802661D01*
X42148013Y42611259D01*
X42044118Y42361054D01*
X42043882Y42090135D01*
X39353340Y42090135D01*
X39376987Y42113741D01*
X39480882Y42363946D01*
X39481118Y42634865D01*
X39377661Y42885252D01*
X39186259Y43076987D01*
X38936054Y43180882D01*
X38665135Y43181118D01*
X38414748Y43077661D01*
X38223013Y42886259D01*
X38119118Y42636054D01*
X38118882Y42365135D01*
X37431000Y42365135D01*
X37431000Y44365135D01*
X41718882Y44365135D01*
X41822339Y44114748D01*
X42013741Y43923013D01*
X42263946Y43819118D01*
X42534865Y43818882D01*
X42785252Y43922339D01*
X42976987Y44113741D01*
X43080882Y44363946D01*
X43081118Y44634865D01*
X42977661Y44885252D01*
X42786259Y45076987D01*
X42536054Y45180882D01*
X42265135Y45181118D01*
X42014748Y45077661D01*
X41823013Y44886259D01*
X41719118Y44636054D01*
X41718882Y44365135D01*
X37431000Y44365135D01*
X37431000Y45090408D01*
X38834561Y46493969D01*
X38934865Y46493882D01*
X39185252Y46597339D01*
X39376987Y46788741D01*
X39480882Y47038946D01*
X39481118Y47309865D01*
X39377661Y47560252D01*
X39186259Y47751987D01*
X38936054Y47855882D01*
X38665135Y47856118D01*
X38414748Y47752661D01*
X38223013Y47561259D01*
X38119118Y47311054D01*
X38119030Y47209622D01*
X36567204Y45657796D01*
X36457517Y45493638D01*
X36419000Y45300000D01*
X36419000Y39232123D01*
X36348013Y39161259D01*
X36244118Y38911054D01*
X36243882Y38640135D01*
X29806000Y38640135D01*
X29806000Y41942877D01*
X29876987Y42013741D01*
X29980882Y42263946D01*
X29981057Y42465135D01*
X33768882Y42465135D01*
X33872339Y42214748D01*
X34063741Y42023013D01*
X34313946Y41919118D01*
X34584865Y41918882D01*
X34835252Y42022339D01*
X35026987Y42213741D01*
X35130882Y42463946D01*
X35131118Y42734865D01*
X35027661Y42985252D01*
X34836259Y43176987D01*
X34586054Y43280882D01*
X34315135Y43281118D01*
X34064748Y43177661D01*
X33873013Y42986259D01*
X33769118Y42736054D01*
X33768882Y42465135D01*
X29981057Y42465135D01*
X29981118Y42534865D01*
X29877661Y42785252D01*
X29686259Y42976987D01*
X29436054Y43080882D01*
X29165135Y43081118D01*
X28914748Y42977661D01*
X28723013Y42786259D01*
X28619118Y42536054D01*
X28618882Y42265135D01*
X25528296Y42265135D01*
X25576987Y42313741D01*
X25680882Y42563946D01*
X25681118Y42834865D01*
X25577661Y43085252D01*
X25386259Y43276987D01*
X25136054Y43380882D01*
X24865135Y43381118D01*
X24614748Y43277661D01*
X24423013Y43086259D01*
X24319118Y42836054D01*
X24319105Y42821487D01*
X23267080Y43873512D01*
X23385252Y43922339D01*
X23576987Y44113741D01*
X23680882Y44363946D01*
X23680883Y44365135D01*
X32118882Y44365135D01*
X32222339Y44114748D01*
X32413741Y43923013D01*
X32663946Y43819118D01*
X32934865Y43818882D01*
X33185252Y43922339D01*
X33376987Y44113741D01*
X33480882Y44363946D01*
X33481118Y44634865D01*
X33377661Y44885252D01*
X33186259Y45076987D01*
X32936054Y45180882D01*
X32665135Y45181118D01*
X32414748Y45077661D01*
X32223013Y44886259D01*
X32119118Y44636054D01*
X32118882Y44365135D01*
X23680883Y44365135D01*
X23681118Y44634865D01*
X23577661Y44885252D01*
X23386259Y45076987D01*
X23136054Y45180882D01*
X22865135Y45181118D01*
X22614748Y45077661D01*
X22423013Y44886259D01*
X22373521Y44767071D01*
X20906000Y46234592D01*
X20906000Y46542877D01*
X20976987Y46613741D01*
X21080882Y46863946D01*
X21081118Y47134865D01*
X21078941Y47140135D01*
X27693882Y47140135D01*
X27797339Y46889748D01*
X27988741Y46698013D01*
X28238946Y46594118D01*
X28509865Y46593882D01*
X28760252Y46697339D01*
X28951987Y46888741D01*
X29055882Y47138946D01*
X29056118Y47409865D01*
X28952661Y47660252D01*
X28761259Y47851987D01*
X28511054Y47955882D01*
X28240135Y47956118D01*
X27989748Y47852661D01*
X27798013Y47661259D01*
X27694118Y47411054D01*
X27693882Y47140135D01*
X21078941Y47140135D01*
X20977661Y47385252D01*
X20786259Y47576987D01*
X20536054Y47680882D01*
X20265135Y47681118D01*
X20014748Y47577661D01*
X19823013Y47386259D01*
X19719118Y47136054D01*
X19718882Y46865135D01*
X7415413Y46865135D01*
X5784253Y48497171D01*
X7402217Y50115135D01*
X15518882Y50115135D01*
X15622339Y49864748D01*
X15813741Y49673013D01*
X16063946Y49569118D01*
X16334865Y49568882D01*
X16585252Y49672339D01*
X16776987Y49863741D01*
X16880882Y50113946D01*
X16881118Y50384865D01*
X16777661Y50635252D01*
X16586259Y50826987D01*
X16336054Y50930882D01*
X16065135Y50931118D01*
X15814748Y50827661D01*
X15623013Y50636259D01*
X15519118Y50386054D01*
X15518882Y50115135D01*
X7402217Y50115135D01*
X9896832Y52609750D01*
X20345400Y52609750D01*
X20345400Y51892614D01*
X20403404Y51752580D01*
X20510581Y51645404D01*
X20650615Y51587400D01*
X21367750Y51587400D01*
X21463000Y51682650D01*
X21463000Y52705000D01*
X21717000Y52705000D01*
X21717000Y51682650D01*
X21812250Y51587400D01*
X22529385Y51587400D01*
X22669419Y51645404D01*
X22776596Y51752580D01*
X22834600Y51892614D01*
X22834600Y52609750D01*
X22739350Y52705000D01*
X21717000Y52705000D01*
X21463000Y52705000D01*
X20440650Y52705000D01*
X20345400Y52609750D01*
X9896832Y52609750D01*
X10143465Y52856383D01*
X22885400Y52856383D01*
X22885400Y52807617D01*
X22980140Y52331329D01*
X23249935Y51927552D01*
X23653712Y51657757D01*
X24130000Y51563017D01*
X24606288Y51657757D01*
X25010065Y51927552D01*
X25279860Y52331329D01*
X25374600Y52807617D01*
X25374600Y52856383D01*
X25425400Y52856383D01*
X25425400Y52807617D01*
X25520140Y52331329D01*
X25789935Y51927552D01*
X26193712Y51657757D01*
X26670000Y51563017D01*
X27146288Y51657757D01*
X27550065Y51927552D01*
X27819860Y52331329D01*
X27914600Y52807617D01*
X27914600Y52856383D01*
X27965400Y52856383D01*
X27965400Y52807617D01*
X28060140Y52331329D01*
X28329935Y51927552D01*
X28733712Y51657757D01*
X29210000Y51563017D01*
X29686288Y51657757D01*
X30090065Y51927552D01*
X30359860Y52331329D01*
X30454600Y52807617D01*
X30454600Y52856383D01*
X30505400Y52856383D01*
X30505400Y52807617D01*
X30600140Y52331329D01*
X30869935Y51927552D01*
X31273712Y51657757D01*
X31750000Y51563017D01*
X32226288Y51657757D01*
X32630065Y51927552D01*
X32899860Y52331329D01*
X32994600Y52807617D01*
X32994600Y52856383D01*
X33045400Y52856383D01*
X33045400Y52807617D01*
X33140140Y52331329D01*
X33409935Y51927552D01*
X33813712Y51657757D01*
X34290000Y51563017D01*
X34766288Y51657757D01*
X35170065Y51927552D01*
X35439860Y52331329D01*
X35534600Y52807617D01*
X35534600Y52856383D01*
X35585400Y52856383D01*
X35585400Y52807617D01*
X35680140Y52331329D01*
X35949935Y51927552D01*
X36353712Y51657757D01*
X36830000Y51563017D01*
X37306288Y51657757D01*
X37710065Y51927552D01*
X37979860Y52331329D01*
X38074600Y52807617D01*
X38074600Y52856383D01*
X38125400Y52856383D01*
X38125400Y52807617D01*
X38220140Y52331329D01*
X38489935Y51927552D01*
X38893712Y51657757D01*
X39370000Y51563017D01*
X39846288Y51657757D01*
X40250065Y51927552D01*
X40519860Y52331329D01*
X40614600Y52807617D01*
X40614600Y52856383D01*
X40519860Y53332671D01*
X40250065Y53736448D01*
X39846288Y54006243D01*
X39370000Y54100983D01*
X38893712Y54006243D01*
X38489935Y53736448D01*
X38220140Y53332671D01*
X38125400Y52856383D01*
X38074600Y52856383D01*
X37979860Y53332671D01*
X37710065Y53736448D01*
X37306288Y54006243D01*
X36830000Y54100983D01*
X36353712Y54006243D01*
X35949935Y53736448D01*
X35680140Y53332671D01*
X35585400Y52856383D01*
X35534600Y52856383D01*
X35439860Y53332671D01*
X35170065Y53736448D01*
X34766288Y54006243D01*
X34290000Y54100983D01*
X33813712Y54006243D01*
X33409935Y53736448D01*
X33140140Y53332671D01*
X33045400Y52856383D01*
X32994600Y52856383D01*
X32899860Y53332671D01*
X32630065Y53736448D01*
X32226288Y54006243D01*
X31750000Y54100983D01*
X31273712Y54006243D01*
X30869935Y53736448D01*
X30600140Y53332671D01*
X30505400Y52856383D01*
X30454600Y52856383D01*
X30359860Y53332671D01*
X30090065Y53736448D01*
X29686288Y54006243D01*
X29210000Y54100983D01*
X28733712Y54006243D01*
X28329935Y53736448D01*
X28060140Y53332671D01*
X27965400Y52856383D01*
X27914600Y52856383D01*
X27819860Y53332671D01*
X27550065Y53736448D01*
X27146288Y54006243D01*
X26670000Y54100983D01*
X26193712Y54006243D01*
X25789935Y53736448D01*
X25520140Y53332671D01*
X25425400Y52856383D01*
X25374600Y52856383D01*
X25279860Y53332671D01*
X25010065Y53736448D01*
X24606288Y54006243D01*
X24130000Y54100983D01*
X23653712Y54006243D01*
X23249935Y53736448D01*
X22980140Y53332671D01*
X22885400Y52856383D01*
X10143465Y52856383D01*
X11058468Y53771386D01*
X20345400Y53771386D01*
X20345400Y53054250D01*
X20440650Y52959000D01*
X21463000Y52959000D01*
X21463000Y53981350D01*
X21717000Y53981350D01*
X21717000Y52959000D01*
X22739350Y52959000D01*
X22834600Y53054250D01*
X22834600Y53771386D01*
X22776596Y53911420D01*
X22669419Y54018596D01*
X22529385Y54076600D01*
X21812250Y54076600D01*
X21717000Y53981350D01*
X21463000Y53981350D01*
X21367750Y54076600D01*
X20650615Y54076600D01*
X20510581Y54018596D01*
X20403404Y53911420D01*
X20345400Y53771386D01*
X11058468Y53771386D01*
X12054317Y54767235D01*
X15358982Y54767235D01*
X15462439Y54516848D01*
X15653841Y54325113D01*
X15904046Y54221218D01*
X16174965Y54220982D01*
X16425352Y54324439D01*
X16617087Y54515841D01*
X16720982Y54766046D01*
X16721218Y55036965D01*
X16714643Y55052880D01*
X20386995Y55052880D01*
X20600690Y54616801D01*
X20964999Y54295695D01*
X21270882Y54169007D01*
X21463000Y54229688D01*
X21463000Y55245000D01*
X21717000Y55245000D01*
X21717000Y54229688D01*
X21909118Y54169007D01*
X22215001Y54295695D01*
X22579310Y54616801D01*
X22793005Y55052880D01*
X22732865Y55245000D01*
X21717000Y55245000D01*
X21463000Y55245000D01*
X20447135Y55245000D01*
X20386995Y55052880D01*
X16714643Y55052880D01*
X16617761Y55287352D01*
X16508920Y55396383D01*
X22885400Y55396383D01*
X22885400Y55347617D01*
X22980140Y54871329D01*
X23249935Y54467552D01*
X23653712Y54197757D01*
X24130000Y54103017D01*
X24606288Y54197757D01*
X25010065Y54467552D01*
X25279860Y54871329D01*
X25374600Y55347617D01*
X25374600Y55396383D01*
X25425400Y55396383D01*
X25425400Y55347617D01*
X25520140Y54871329D01*
X25789935Y54467552D01*
X26193712Y54197757D01*
X26670000Y54103017D01*
X27146288Y54197757D01*
X27550065Y54467552D01*
X27819860Y54871329D01*
X27914600Y55347617D01*
X27914600Y55396383D01*
X27965400Y55396383D01*
X27965400Y55347617D01*
X28060140Y54871329D01*
X28329935Y54467552D01*
X28733712Y54197757D01*
X29210000Y54103017D01*
X29686288Y54197757D01*
X30090065Y54467552D01*
X30359860Y54871329D01*
X30454600Y55347617D01*
X30454600Y55396383D01*
X30505400Y55396383D01*
X30505400Y55347617D01*
X30600140Y54871329D01*
X30869935Y54467552D01*
X31273712Y54197757D01*
X31750000Y54103017D01*
X32226288Y54197757D01*
X32630065Y54467552D01*
X32899860Y54871329D01*
X32994600Y55347617D01*
X32994600Y55396383D01*
X33045400Y55396383D01*
X33045400Y55347617D01*
X33140140Y54871329D01*
X33409935Y54467552D01*
X33813712Y54197757D01*
X34290000Y54103017D01*
X34766288Y54197757D01*
X35170065Y54467552D01*
X35439860Y54871329D01*
X35534600Y55347617D01*
X35534600Y55396383D01*
X35585400Y55396383D01*
X35585400Y55347617D01*
X35680140Y54871329D01*
X35949935Y54467552D01*
X36353712Y54197757D01*
X36830000Y54103017D01*
X37306288Y54197757D01*
X37710065Y54467552D01*
X37979860Y54871329D01*
X38074600Y55347617D01*
X38074600Y55396383D01*
X38125400Y55396383D01*
X38125400Y55347617D01*
X38220140Y54871329D01*
X38489935Y54467552D01*
X38893712Y54197757D01*
X39370000Y54103017D01*
X39846288Y54197757D01*
X40250065Y54467552D01*
X40519860Y54871329D01*
X40614600Y55347617D01*
X40614600Y55365135D01*
X43968882Y55365135D01*
X44072339Y55114748D01*
X44263741Y54923013D01*
X44513946Y54819118D01*
X44784865Y54818882D01*
X45035252Y54922339D01*
X45226987Y55113741D01*
X45330882Y55363946D01*
X45331118Y55634865D01*
X45227661Y55885252D01*
X45036259Y56076987D01*
X44786054Y56180882D01*
X44515135Y56181118D01*
X44264748Y56077661D01*
X44073013Y55886259D01*
X43969118Y55636054D01*
X43968882Y55365135D01*
X40614600Y55365135D01*
X40614600Y55396383D01*
X40519860Y55872671D01*
X40250065Y56276448D01*
X39846288Y56546243D01*
X39370000Y56640983D01*
X38893712Y56546243D01*
X38489935Y56276448D01*
X38220140Y55872671D01*
X38125400Y55396383D01*
X38074600Y55396383D01*
X37979860Y55872671D01*
X37710065Y56276448D01*
X37306288Y56546243D01*
X36830000Y56640983D01*
X36353712Y56546243D01*
X35949935Y56276448D01*
X35680140Y55872671D01*
X35585400Y55396383D01*
X35534600Y55396383D01*
X35439860Y55872671D01*
X35170065Y56276448D01*
X34766288Y56546243D01*
X34290000Y56640983D01*
X33813712Y56546243D01*
X33409935Y56276448D01*
X33140140Y55872671D01*
X33045400Y55396383D01*
X32994600Y55396383D01*
X32899860Y55872671D01*
X32630065Y56276448D01*
X32226288Y56546243D01*
X31750000Y56640983D01*
X31273712Y56546243D01*
X30869935Y56276448D01*
X30600140Y55872671D01*
X30505400Y55396383D01*
X30454600Y55396383D01*
X30359860Y55872671D01*
X30090065Y56276448D01*
X29686288Y56546243D01*
X29210000Y56640983D01*
X28733712Y56546243D01*
X28329935Y56276448D01*
X28060140Y55872671D01*
X27965400Y55396383D01*
X27914600Y55396383D01*
X27819860Y55872671D01*
X27550065Y56276448D01*
X27146288Y56546243D01*
X26670000Y56640983D01*
X26193712Y56546243D01*
X25789935Y56276448D01*
X25520140Y55872671D01*
X25425400Y55396383D01*
X25374600Y55396383D01*
X25279860Y55872671D01*
X25010065Y56276448D01*
X24606288Y56546243D01*
X24130000Y56640983D01*
X23653712Y56546243D01*
X23249935Y56276448D01*
X22980140Y55872671D01*
X22885400Y55396383D01*
X16508920Y55396383D01*
X16436447Y55468981D01*
X16463452Y55480139D01*
X16655187Y55671541D01*
X16663316Y55691120D01*
X20386995Y55691120D01*
X20447135Y55499000D01*
X21463000Y55499000D01*
X21463000Y56514312D01*
X21717000Y56514312D01*
X21717000Y55499000D01*
X22732865Y55499000D01*
X22793005Y55691120D01*
X22579310Y56127199D01*
X22215001Y56448305D01*
X21909118Y56574993D01*
X21717000Y56514312D01*
X21463000Y56514312D01*
X21270882Y56574993D01*
X20964999Y56448305D01*
X20600690Y56127199D01*
X20386995Y55691120D01*
X16663316Y55691120D01*
X16759082Y55921746D01*
X16759318Y56192665D01*
X16655861Y56443052D01*
X16514241Y56584918D01*
X16642487Y56712941D01*
X16746382Y56963146D01*
X16746618Y57234065D01*
X16643161Y57484452D01*
X16451759Y57676187D01*
X16201554Y57780082D01*
X15930635Y57780318D01*
X15680248Y57676861D01*
X15488513Y57485459D01*
X15384618Y57235254D01*
X15384382Y56964335D01*
X15487839Y56713948D01*
X15629459Y56572082D01*
X15501213Y56444059D01*
X15397318Y56193854D01*
X15397082Y55922935D01*
X15500539Y55672548D01*
X15681853Y55490919D01*
X15654848Y55479761D01*
X15463113Y55288359D01*
X15359218Y55038154D01*
X15358982Y54767235D01*
X12054317Y54767235D01*
X17994282Y60707200D01*
X43016518Y60707200D01*
X60656400Y43067318D01*
X60656400Y43067318D01*
G37*
X60656400Y43067318D02*
X60656400Y41787621D01*
X60067689Y42668689D01*
X59136919Y43290610D01*
X58039000Y43509000D01*
X56941081Y43290610D01*
X56010311Y42668689D01*
X55388390Y41737919D01*
X55170000Y40640000D01*
X55388390Y39542081D01*
X56010311Y38611311D01*
X56941081Y37989390D01*
X58039000Y37771000D01*
X59136919Y37989390D01*
X60067689Y38611311D01*
X60656400Y39492379D01*
X60656400Y35547714D01*
X47498119Y35560000D01*
X47448699Y35550040D01*
X47408197Y35522803D01*
X43598197Y31712803D01*
X43570334Y31670789D01*
X43561001Y31623465D01*
X43535601Y24689265D01*
X43545426Y24639819D01*
X43573714Y24598090D01*
X43616008Y24570655D01*
X43671048Y24562081D01*
X44052048Y24587481D01*
X44100683Y24600752D01*
X44140323Y24631898D01*
X44164723Y24676013D01*
X44170599Y24713706D01*
X44173436Y25442935D01*
X54030482Y25442935D01*
X54133939Y25192548D01*
X54325341Y25000813D01*
X54575546Y24896918D01*
X54846465Y24896682D01*
X55096852Y25000139D01*
X55288587Y25191541D01*
X55392482Y25441746D01*
X55392718Y25712665D01*
X55289261Y25963052D01*
X55097859Y26154787D01*
X54847654Y26258682D01*
X54576735Y26258918D01*
X54326348Y26155461D01*
X54134613Y25964059D01*
X54030718Y25713854D01*
X54030482Y25442935D01*
X44173436Y25442935D01*
X44176697Y26281135D01*
X49991882Y26281135D01*
X50095339Y26030748D01*
X50286741Y25839013D01*
X50536946Y25735118D01*
X50807865Y25734882D01*
X51058252Y25838339D01*
X51249987Y26029741D01*
X51353882Y26279946D01*
X51354118Y26550865D01*
X51250661Y26801252D01*
X51059259Y26992987D01*
X50809054Y27096882D01*
X50538135Y27097118D01*
X50287748Y26993661D01*
X50096013Y26802259D01*
X49992118Y26552054D01*
X49991882Y26281135D01*
X44176697Y26281135D01*
X44180601Y27284435D01*
X54424182Y27284435D01*
X54527639Y27034048D01*
X54719041Y26842313D01*
X54969246Y26738418D01*
X55240165Y26738182D01*
X55490552Y26841639D01*
X55682287Y27033041D01*
X55786182Y27283246D01*
X55786418Y27554165D01*
X55682961Y27804552D01*
X55491559Y27996287D01*
X55241354Y28100182D01*
X54970435Y28100418D01*
X54720048Y27996961D01*
X54528313Y27805559D01*
X54424418Y27555354D01*
X54424182Y27284435D01*
X44180601Y27284435D01*
X44187569Y29075135D01*
X45800882Y29075135D01*
X45904339Y28824748D01*
X46095741Y28633013D01*
X46345946Y28529118D01*
X46616865Y28528882D01*
X46867252Y28632339D01*
X46934058Y28699029D01*
X58322856Y28699029D01*
X58449102Y28393491D01*
X58682662Y28159523D01*
X58987979Y28032745D01*
X59318571Y28032456D01*
X59624109Y28158702D01*
X59858077Y28392262D01*
X59984855Y28697579D01*
X59985144Y29028171D01*
X59858898Y29333709D01*
X59625338Y29567677D01*
X59320021Y29694455D01*
X58989429Y29694744D01*
X58683891Y29568498D01*
X58449923Y29334938D01*
X58323145Y29029621D01*
X58322856Y28699029D01*
X46934058Y28699029D01*
X47058987Y28823741D01*
X47162882Y29073946D01*
X47163118Y29344865D01*
X47059661Y29595252D01*
X46868259Y29786987D01*
X46618054Y29890882D01*
X46347135Y29891118D01*
X46096748Y29787661D01*
X45905013Y29596259D01*
X45801118Y29346054D01*
X45800882Y29075135D01*
X44187569Y29075135D01*
X44195795Y31189189D01*
X44705635Y31699029D01*
X58322856Y31699029D01*
X58449102Y31393491D01*
X58682662Y31159523D01*
X58987979Y31032745D01*
X59318571Y31032456D01*
X59624109Y31158702D01*
X59858077Y31392262D01*
X59984855Y31697579D01*
X59985144Y32028171D01*
X59858898Y32333709D01*
X59625338Y32567677D01*
X59320021Y32694455D01*
X58989429Y32694744D01*
X58683891Y32568498D01*
X58449923Y32334938D01*
X58323145Y32029621D01*
X58322856Y31699029D01*
X44705635Y31699029D01*
X46679141Y33672535D01*
X56138682Y33672535D01*
X56242139Y33422148D01*
X56433541Y33230413D01*
X56683746Y33126518D01*
X56954665Y33126282D01*
X57205052Y33229739D01*
X57396787Y33421141D01*
X57500682Y33671346D01*
X57500918Y33942265D01*
X57397461Y34192652D01*
X57206059Y34384387D01*
X56955854Y34488282D01*
X56684935Y34488518D01*
X56434548Y34385061D01*
X56242813Y34193659D01*
X56138918Y33943454D01*
X56138682Y33672535D01*
X46679141Y33672535D01*
X47804806Y34798200D01*
X60656400Y34847112D01*
X60656400Y21467621D01*
X60067689Y22348689D01*
X59136919Y22970610D01*
X58039000Y23189000D01*
X56941081Y22970610D01*
X56010311Y22348689D01*
X55388390Y21417919D01*
X55170000Y20320000D01*
X55388390Y19222081D01*
X56010311Y18291311D01*
X56941081Y17669390D01*
X58039000Y17451000D01*
X59136919Y17669390D01*
X60067689Y18291311D01*
X60656400Y19172379D01*
X60656400Y18045082D01*
X47170868Y4559550D01*
X45502166Y4521189D01*
X45418704Y4520566D01*
X48084270Y7186131D01*
X48084272Y7186134D01*
X54993070Y14094931D01*
X55094931Y14247377D01*
X55130700Y14427200D01*
X55130700Y19989800D01*
X55094931Y20169623D01*
X54993070Y20322069D01*
X54459669Y20855469D01*
X54324743Y20945624D01*
X54314029Y20999488D01*
X54044234Y21403265D01*
X53640457Y21673060D01*
X53164169Y21767800D01*
X52804631Y21767800D01*
X52328343Y21673060D01*
X51924566Y21403265D01*
X51654771Y20999488D01*
X51560031Y20523200D01*
X51654771Y20046912D01*
X51924566Y19643135D01*
X52328343Y19373340D01*
X52804631Y19278600D01*
X53164169Y19278600D01*
X53640457Y19373340D01*
X54044234Y19643135D01*
X54163873Y19822188D01*
X54190900Y19795161D01*
X54190900Y18643764D01*
X54044234Y18863265D01*
X53640457Y19133060D01*
X53164169Y19227800D01*
X52804631Y19227800D01*
X52328343Y19133060D01*
X51924566Y18863265D01*
X51654771Y18459488D01*
X51560031Y17983200D01*
X51654771Y17506912D01*
X51924566Y17103135D01*
X52328343Y16833340D01*
X52804631Y16738600D01*
X53164169Y16738600D01*
X53640457Y16833340D01*
X54044234Y17103135D01*
X54190900Y17322636D01*
X54190900Y16103764D01*
X54044234Y16323265D01*
X53640457Y16593060D01*
X53164169Y16687800D01*
X52804631Y16687800D01*
X52328343Y16593060D01*
X51924566Y16323265D01*
X51654771Y15919488D01*
X51560031Y15443200D01*
X51654771Y14966912D01*
X51924566Y14563135D01*
X52328343Y14293340D01*
X52804631Y14198600D01*
X53164169Y14198600D01*
X53640457Y14293340D01*
X54044234Y14563135D01*
X54190900Y14782636D01*
X54190900Y14621839D01*
X52274180Y12705119D01*
X52200564Y12816123D01*
X50763723Y14252964D01*
X50645101Y14334014D01*
X50494404Y14366705D01*
X50342861Y14338190D01*
X50214351Y14252964D01*
X48993036Y13031649D01*
X48911986Y12913027D01*
X48879295Y12762330D01*
X48907810Y12610787D01*
X48993036Y12482277D01*
X50429877Y11045436D01*
X50539557Y10970496D01*
X50142015Y10572954D01*
X50172465Y10726033D01*
X50077725Y11202321D01*
X49807930Y11606098D01*
X49553698Y11860330D01*
X49149920Y12130125D01*
X48673633Y12224865D01*
X48197346Y12130125D01*
X47793568Y11860330D01*
X47523773Y11456552D01*
X47429033Y10980265D01*
X47523773Y10503978D01*
X47793568Y10100200D01*
X48047800Y9845968D01*
X48451577Y9576173D01*
X48927865Y9481433D01*
X49080944Y9511883D01*
X48345964Y8776903D01*
X48376414Y8929982D01*
X48281674Y9406270D01*
X48011879Y9810047D01*
X47757647Y10064279D01*
X47353869Y10334074D01*
X46877582Y10428814D01*
X46401295Y10334074D01*
X45997517Y10064279D01*
X45727722Y9660501D01*
X45632982Y9184214D01*
X45727722Y8707927D01*
X45997517Y8304149D01*
X46251749Y8049917D01*
X46655526Y7780122D01*
X47131814Y7685382D01*
X47284892Y7715831D01*
X46550087Y6981026D01*
X46550937Y6983470D01*
X46521948Y7468829D01*
X46309427Y7906149D01*
X46112076Y7984871D01*
X45388251Y7261046D01*
X45402394Y7246903D01*
X45222789Y7067298D01*
X45208646Y7081441D01*
X44484821Y6357616D01*
X44563543Y6160265D01*
X45000863Y5947744D01*
X45486222Y5918755D01*
X45488666Y5919605D01*
X44662347Y5093285D01*
X41581758Y5102536D01*
X41584957Y5110239D01*
X41765465Y5110082D01*
X42015852Y5213539D01*
X42207587Y5404941D01*
X42240119Y5483286D01*
X42281946Y5465918D01*
X42552865Y5465682D01*
X42803252Y5569139D01*
X42936391Y5702047D01*
X43107446Y5631018D01*
X43378365Y5630782D01*
X43628752Y5734239D01*
X43820487Y5925641D01*
X43924382Y6175846D01*
X43924618Y6446765D01*
X43821161Y6697152D01*
X43629759Y6888887D01*
X43379554Y6992782D01*
X43108635Y6993018D01*
X42858248Y6889561D01*
X42725109Y6756653D01*
X42554054Y6827682D01*
X42283135Y6827918D01*
X42032748Y6724461D01*
X41841013Y6533059D01*
X41808481Y6454714D01*
X41766654Y6472082D01*
X41495735Y6472318D01*
X41245348Y6368861D01*
X41053613Y6177459D01*
X40965043Y5964161D01*
X40784535Y5964318D01*
X40534148Y5860861D01*
X40342413Y5669459D01*
X40317610Y5609728D01*
X40210272Y5717066D01*
X40210270Y5717069D01*
X40197569Y5729769D01*
X40045123Y5831631D01*
X39865300Y5867399D01*
X39800937Y5854597D01*
X30466666Y5842000D01*
X30376542Y5823947D01*
X30287477Y5806231D01*
X30287209Y5806052D01*
X30286891Y5805988D01*
X30211273Y5755313D01*
X30135031Y5704370D01*
X30090047Y5659386D01*
X29938735Y5659518D01*
X29688348Y5556061D01*
X29496613Y5364659D01*
X29392718Y5114454D01*
X29392482Y4843535D01*
X29495939Y4593148D01*
X29687341Y4401413D01*
X29937546Y4297518D01*
X30208465Y4297282D01*
X30458852Y4400739D01*
X30650587Y4592141D01*
X30754482Y4842346D01*
X30754534Y4902587D01*
X38840297Y4913499D01*
X38828818Y4885854D01*
X38828582Y4614935D01*
X38877807Y4495800D01*
X31826200Y4495800D01*
X31776790Y4485794D01*
X31735165Y4457353D01*
X31707885Y4414959D01*
X31699200Y4368800D01*
X31699200Y405200D01*
X17994282Y405200D01*
X14521147Y3878335D01*
X20096082Y3878335D01*
X20199539Y3627948D01*
X20390941Y3436213D01*
X20641146Y3332318D01*
X20912065Y3332082D01*
X21162452Y3435539D01*
X21354187Y3626941D01*
X21458082Y3877146D01*
X21458318Y4148065D01*
X21354861Y4398452D01*
X21163459Y4590187D01*
X20913254Y4694082D01*
X20642335Y4694318D01*
X20391948Y4590861D01*
X20200213Y4399459D01*
X20096318Y4149254D01*
X20096082Y3878335D01*
X14521147Y3878335D01*
X12692347Y5707135D01*
X18241882Y5707135D01*
X18345339Y5456748D01*
X18536741Y5265013D01*
X18786946Y5161118D01*
X19057865Y5160882D01*
X19308252Y5264339D01*
X19497376Y5453135D01*
X21404182Y5453135D01*
X21507639Y5202748D01*
X21699041Y5011013D01*
X21949246Y4907118D01*
X22220165Y4906882D01*
X22470552Y5010339D01*
X22662287Y5201741D01*
X22766182Y5451946D01*
X22766418Y5722865D01*
X22662961Y5973252D01*
X22471559Y6164987D01*
X22221354Y6268882D01*
X21950435Y6269118D01*
X21700048Y6165661D01*
X21508313Y5974259D01*
X21404418Y5724054D01*
X21404182Y5453135D01*
X19497376Y5453135D01*
X19499987Y5455741D01*
X19603882Y5705946D01*
X19604118Y5976865D01*
X19500661Y6227252D01*
X19309259Y6418987D01*
X19059054Y6522882D01*
X18788135Y6523118D01*
X18537748Y6419661D01*
X18346013Y6228259D01*
X18242118Y5978054D01*
X18241882Y5707135D01*
X12692347Y5707135D01*
X10613018Y7786464D01*
X14343135Y7786464D01*
X14469381Y7480926D01*
X14702941Y7246958D01*
X15008258Y7120180D01*
X15338850Y7119891D01*
X15644388Y7246137D01*
X15878356Y7479697D01*
X15902823Y7538622D01*
X43866355Y7538622D01*
X43895344Y7053263D01*
X44107865Y6615943D01*
X44305216Y6537221D01*
X45029041Y7261046D01*
X44203344Y8086743D01*
X44024588Y7993803D01*
X43866355Y7538622D01*
X15902823Y7538622D01*
X16005134Y7785014D01*
X16005423Y8115606D01*
X15943138Y8266348D01*
X44382949Y8266348D01*
X45208646Y7440651D01*
X45932471Y8164476D01*
X45853749Y8361827D01*
X45416429Y8574348D01*
X44931070Y8603337D01*
X44475889Y8445104D01*
X44382949Y8266348D01*
X15943138Y8266348D01*
X15882913Y8412102D01*
X16133252Y8515539D01*
X16324987Y8706941D01*
X16428882Y8957146D01*
X16428927Y9009135D01*
X19067382Y9009135D01*
X19170839Y8758748D01*
X19362241Y8567013D01*
X19612446Y8463118D01*
X19883365Y8462882D01*
X20133752Y8566339D01*
X20325487Y8757741D01*
X20429382Y9007946D01*
X20429618Y9278865D01*
X20326161Y9529252D01*
X20134759Y9720987D01*
X19884554Y9824882D01*
X19613635Y9825118D01*
X19363248Y9721661D01*
X19171513Y9530259D01*
X19067618Y9280054D01*
X19067382Y9009135D01*
X16428927Y9009135D01*
X16429118Y9228065D01*
X16325661Y9478452D01*
X16134259Y9670187D01*
X15884054Y9774082D01*
X15613135Y9774318D01*
X15362748Y9670861D01*
X15171013Y9479459D01*
X15067118Y9229254D01*
X15066882Y8958335D01*
X15139715Y8782065D01*
X15009708Y8782179D01*
X14704170Y8655933D01*
X14470202Y8422373D01*
X14343424Y8117056D01*
X14343135Y7786464D01*
X10613018Y7786464D01*
X7625047Y10774435D01*
X16171782Y10774435D01*
X16275239Y10524048D01*
X16466641Y10332313D01*
X16716846Y10228418D01*
X16987765Y10228182D01*
X17238152Y10331639D01*
X17429887Y10523041D01*
X17533782Y10773246D01*
X17533971Y10990335D01*
X24185482Y10990335D01*
X24288939Y10739948D01*
X24480341Y10548213D01*
X24730546Y10444318D01*
X24845993Y10444217D01*
X24845882Y10317235D01*
X24949339Y10066848D01*
X25140741Y9875113D01*
X25390946Y9771218D01*
X25531815Y9771095D01*
X25531682Y9618735D01*
X25635139Y9368348D01*
X25826541Y9176613D01*
X26076746Y9072718D01*
X26166759Y9072640D01*
X26166682Y8983735D01*
X26270139Y8733348D01*
X26461541Y8541613D01*
X26711746Y8437718D01*
X26982665Y8437482D01*
X27233052Y8540939D01*
X27292280Y8600064D01*
X27401341Y8490813D01*
X27651546Y8386918D01*
X27922465Y8386682D01*
X28172852Y8490139D01*
X28364587Y8681541D01*
X28468482Y8931746D01*
X28468494Y8945635D01*
X39692182Y8945635D01*
X39795639Y8695248D01*
X39987041Y8503513D01*
X40237246Y8399618D01*
X40508165Y8399382D01*
X40758552Y8502839D01*
X40950287Y8694241D01*
X41054182Y8944446D01*
X41054418Y9215365D01*
X40950961Y9465752D01*
X40759559Y9657487D01*
X40509354Y9761382D01*
X40238435Y9761618D01*
X39988048Y9658161D01*
X39796313Y9466759D01*
X39692418Y9216554D01*
X39692182Y8945635D01*
X28468494Y8945635D01*
X28468718Y9202665D01*
X28365261Y9453052D01*
X28173859Y9644787D01*
X27923654Y9748682D01*
X27652735Y9748918D01*
X27402348Y9645461D01*
X27343120Y9586336D01*
X27234059Y9695587D01*
X26983854Y9799482D01*
X26893841Y9799560D01*
X26893918Y9888465D01*
X26858438Y9974335D01*
X38790482Y9974335D01*
X38893939Y9723948D01*
X39085341Y9532213D01*
X39335546Y9428318D01*
X39606465Y9428082D01*
X39856852Y9531539D01*
X40048587Y9722941D01*
X40152482Y9973146D01*
X40152718Y10244065D01*
X40049261Y10494452D01*
X39857859Y10686187D01*
X39607654Y10790082D01*
X39336735Y10790318D01*
X39086348Y10686861D01*
X38894613Y10495459D01*
X38790718Y10245254D01*
X38790482Y9974335D01*
X26858438Y9974335D01*
X26790461Y10138852D01*
X26599059Y10330587D01*
X26348854Y10434482D01*
X26207985Y10434605D01*
X26208118Y10586965D01*
X26104661Y10837352D01*
X25913259Y11029087D01*
X25663054Y11132982D01*
X25547607Y11133083D01*
X25547718Y11260065D01*
X25444261Y11510452D01*
X25252859Y11702187D01*
X25002654Y11806082D01*
X24731735Y11806318D01*
X24481348Y11702861D01*
X24289613Y11511459D01*
X24185718Y11261254D01*
X24185482Y10990335D01*
X17533971Y10990335D01*
X17534018Y11044165D01*
X17430561Y11294552D01*
X17239159Y11486287D01*
X16988954Y11590182D01*
X16718035Y11590418D01*
X16467648Y11486961D01*
X16275913Y11295559D01*
X16172018Y11045354D01*
X16171782Y10774435D01*
X7625047Y10774435D01*
X6875747Y11523735D01*
X12501482Y11523735D01*
X12604939Y11273348D01*
X12796341Y11081613D01*
X13046546Y10977718D01*
X13317465Y10977482D01*
X13567852Y11080939D01*
X13759587Y11272341D01*
X13863482Y11522546D01*
X13863718Y11793465D01*
X13760261Y12043852D01*
X13568859Y12235587D01*
X13318654Y12339482D01*
X13047735Y12339718D01*
X12797348Y12236261D01*
X12605613Y12044859D01*
X12501718Y11794654D01*
X12501482Y11523735D01*
X6875747Y11523735D01*
X4956164Y13443318D01*
X8686281Y13443318D01*
X8812527Y13137780D01*
X9046087Y12903812D01*
X9351404Y12777034D01*
X9681996Y12776745D01*
X9987534Y12902991D01*
X10221502Y13136551D01*
X10348280Y13441868D01*
X10348413Y13593928D01*
X10531946Y13517718D01*
X10802865Y13517482D01*
X10895445Y13555735D01*
X13568282Y13555735D01*
X13671739Y13305348D01*
X13863141Y13113613D01*
X14113346Y13009718D01*
X14384265Y13009482D01*
X14634652Y13112939D01*
X14747443Y13225535D01*
X20629482Y13225535D01*
X20732939Y12975148D01*
X20924341Y12783413D01*
X21174546Y12679518D01*
X21445465Y12679282D01*
X21695852Y12782739D01*
X21887587Y12974141D01*
X21991482Y13224346D01*
X21991718Y13495265D01*
X21888261Y13745652D01*
X21696859Y13937387D01*
X21446654Y14041282D01*
X21175735Y14041518D01*
X20925348Y13938061D01*
X20733613Y13746659D01*
X20629718Y13496454D01*
X20629482Y13225535D01*
X14747443Y13225535D01*
X14826387Y13304341D01*
X14930282Y13554546D01*
X14930518Y13825465D01*
X14827061Y14075852D01*
X14635659Y14267587D01*
X14385454Y14371482D01*
X14114535Y14371718D01*
X13864148Y14268261D01*
X13672413Y14076859D01*
X13568518Y13826654D01*
X13568282Y13555735D01*
X10895445Y13555735D01*
X11053252Y13620939D01*
X11244987Y13812341D01*
X11348882Y14062546D01*
X11349118Y14333465D01*
X11245661Y14583852D01*
X11054259Y14775587D01*
X10933491Y14825735D01*
X19257882Y14825735D01*
X19361339Y14575348D01*
X19552741Y14383613D01*
X19802946Y14279718D01*
X20073865Y14279482D01*
X20324252Y14382939D01*
X20515987Y14574341D01*
X20619882Y14824546D01*
X20620118Y15095465D01*
X20516661Y15345852D01*
X20325259Y15537587D01*
X20075054Y15641482D01*
X19804135Y15641718D01*
X19553748Y15538261D01*
X19362013Y15346859D01*
X19258118Y15096654D01*
X19257882Y14825735D01*
X10933491Y14825735D01*
X10804054Y14879482D01*
X10533135Y14879718D01*
X10282748Y14776261D01*
X10091013Y14584859D01*
X9987118Y14334654D01*
X9987099Y14312657D01*
X9683446Y14438744D01*
X9352854Y14439033D01*
X9047316Y14312787D01*
X8813348Y14079227D01*
X8686570Y13773910D01*
X8686281Y13443318D01*
X4956164Y13443318D01*
X1643347Y16756135D01*
X11561682Y16756135D01*
X11665139Y16505748D01*
X11856541Y16314013D01*
X12106746Y16210118D01*
X12377665Y16209882D01*
X12628052Y16313339D01*
X12819787Y16504741D01*
X12923682Y16754946D01*
X12923918Y17025865D01*
X12820461Y17276252D01*
X12629710Y17467335D01*
X17556082Y17467335D01*
X17659539Y17216948D01*
X17850941Y17025213D01*
X18101146Y16921318D01*
X18372065Y16921082D01*
X18495381Y16972035D01*
X22953582Y16972035D01*
X23057039Y16721648D01*
X23248441Y16529913D01*
X23498646Y16426018D01*
X23769565Y16425782D01*
X24019952Y16529239D01*
X24211687Y16720641D01*
X24315582Y16970846D01*
X24315818Y17241765D01*
X24212361Y17492152D01*
X24020959Y17683887D01*
X23770754Y17787782D01*
X23499835Y17788018D01*
X23249448Y17684561D01*
X23057713Y17493159D01*
X22953818Y17242954D01*
X22953582Y16972035D01*
X18495381Y16972035D01*
X18622452Y17024539D01*
X18814187Y17215941D01*
X18918082Y17466146D01*
X18918318Y17737065D01*
X18814861Y17987452D01*
X18649466Y18153135D01*
X28935282Y18153135D01*
X29038739Y17902748D01*
X29085120Y17856286D01*
X29039413Y17810659D01*
X28935518Y17560454D01*
X28935282Y17289535D01*
X29038739Y17039148D01*
X29135920Y16941798D01*
X29039413Y16845459D01*
X28935518Y16595254D01*
X28935282Y16324335D01*
X29038739Y16073948D01*
X29135920Y15976598D01*
X29039413Y15880259D01*
X28935518Y15630054D01*
X28935282Y15359135D01*
X29038739Y15108748D01*
X29110520Y15036842D01*
X29039413Y14965859D01*
X28935518Y14715654D01*
X28935282Y14444735D01*
X29038739Y14194348D01*
X29135920Y14096998D01*
X29039413Y14000659D01*
X28935518Y13750454D01*
X28935282Y13479535D01*
X29038739Y13229148D01*
X29135920Y13131798D01*
X29039413Y13035459D01*
X28935518Y12785254D01*
X28935282Y12514335D01*
X29038739Y12263948D01*
X29135920Y12166598D01*
X29039413Y12070259D01*
X28935518Y11820054D01*
X28935282Y11549135D01*
X29038739Y11298748D01*
X29230141Y11107013D01*
X29480346Y11003118D01*
X29751265Y11002882D01*
X30001652Y11106339D01*
X30193387Y11297741D01*
X30297282Y11547946D01*
X30297518Y11818865D01*
X30194061Y12069252D01*
X30096880Y12166602D01*
X30157636Y12227253D01*
X31399082Y12227253D01*
X31502539Y11976866D01*
X31693941Y11785131D01*
X31944146Y11681236D01*
X32215065Y11681000D01*
X32465452Y11784457D01*
X32657187Y11975859D01*
X32761082Y12226064D01*
X32761318Y12496983D01*
X32657861Y12747370D01*
X32466459Y12939105D01*
X32216254Y13043000D01*
X31945335Y13043236D01*
X31694948Y12939779D01*
X31503213Y12748377D01*
X31399318Y12498172D01*
X31399082Y12227253D01*
X30157636Y12227253D01*
X30193387Y12262941D01*
X30297282Y12513146D01*
X30297518Y12784065D01*
X30194061Y13034452D01*
X30096880Y13131802D01*
X30193387Y13228141D01*
X30297282Y13478346D01*
X30297518Y13749265D01*
X30194061Y13999652D01*
X30096880Y14097002D01*
X30193387Y14193341D01*
X30297282Y14443546D01*
X30297518Y14714465D01*
X30246296Y14838435D01*
X37660182Y14838435D01*
X37763639Y14588048D01*
X37955041Y14396313D01*
X38205246Y14292418D01*
X38476165Y14292182D01*
X38726552Y14395639D01*
X38918287Y14587041D01*
X39022182Y14837246D01*
X39022418Y15108165D01*
X38918961Y15358552D01*
X38727559Y15550287D01*
X38477354Y15654182D01*
X38206435Y15654418D01*
X37956048Y15550961D01*
X37764313Y15359559D01*
X37660418Y15109354D01*
X37660182Y14838435D01*
X30246296Y14838435D01*
X30194061Y14964852D01*
X30122280Y15036758D01*
X30193387Y15107741D01*
X30297282Y15357946D01*
X30297518Y15628865D01*
X30283028Y15663935D01*
X40873282Y15663935D01*
X40976739Y15413548D01*
X41168141Y15221813D01*
X41418346Y15117918D01*
X41689265Y15117682D01*
X41939652Y15221139D01*
X42131387Y15412541D01*
X42235282Y15662746D01*
X42235518Y15933665D01*
X42132061Y16184052D01*
X41940659Y16375787D01*
X41690454Y16479682D01*
X41419535Y16479918D01*
X41169148Y16376461D01*
X40977413Y16185059D01*
X40873518Y15934854D01*
X40873282Y15663935D01*
X30283028Y15663935D01*
X30194061Y15879252D01*
X30096880Y15976602D01*
X30193387Y16072941D01*
X30297282Y16323146D01*
X30297518Y16594065D01*
X30194061Y16844452D01*
X30096880Y16941802D01*
X30193387Y17038141D01*
X30297282Y17288346D01*
X30297518Y17559265D01*
X30194061Y17809652D01*
X30147680Y17856114D01*
X30193387Y17901741D01*
X30238683Y18010825D01*
X30283339Y17902748D01*
X30474741Y17711013D01*
X30724946Y17607118D01*
X30995865Y17606882D01*
X31196031Y17689588D01*
X31195882Y17518135D01*
X31299339Y17267748D01*
X31490741Y17076013D01*
X31740946Y16972118D01*
X32011865Y16971882D01*
X32262252Y17075339D01*
X32453987Y17266741D01*
X32557882Y17516946D01*
X32557938Y17581635D01*
X37012482Y17581635D01*
X37115939Y17331248D01*
X37307341Y17139513D01*
X37557546Y17035618D01*
X37828465Y17035382D01*
X38078852Y17138839D01*
X38270587Y17330241D01*
X38374482Y17580446D01*
X38374718Y17851365D01*
X38271261Y18101752D01*
X38079859Y18293487D01*
X37829654Y18397382D01*
X37558735Y18397618D01*
X37308348Y18294161D01*
X37116613Y18102759D01*
X37012718Y17852554D01*
X37012482Y17581635D01*
X32557938Y17581635D01*
X32558118Y17787865D01*
X32454661Y18038252D01*
X32263259Y18229987D01*
X32013054Y18333882D01*
X31742135Y18334118D01*
X31541969Y18251412D01*
X31542118Y18422865D01*
X31438661Y18673252D01*
X31247259Y18864987D01*
X30997054Y18968882D01*
X30726135Y18969118D01*
X30475748Y18865661D01*
X30284013Y18674259D01*
X30238717Y18565175D01*
X30194061Y18673252D01*
X30002659Y18864987D01*
X29752454Y18968882D01*
X29481535Y18969118D01*
X29231148Y18865661D01*
X29039413Y18674259D01*
X28935518Y18424054D01*
X28935282Y18153135D01*
X18649466Y18153135D01*
X18623459Y18179187D01*
X18373254Y18283082D01*
X18102335Y18283318D01*
X17851948Y18179861D01*
X17660213Y17988459D01*
X17556318Y17738254D01*
X17556082Y17467335D01*
X12629710Y17467335D01*
X12629059Y17467987D01*
X12378854Y17571882D01*
X12107935Y17572118D01*
X11857548Y17468661D01*
X11665813Y17277259D01*
X11561918Y17027054D01*
X11561682Y16756135D01*
X1643347Y16756135D01*
X354400Y18045082D01*
X354400Y20076677D01*
X524390Y19222081D01*
X1146311Y18291311D01*
X2077081Y17669390D01*
X3175000Y17451000D01*
X4272919Y17669390D01*
X5203689Y18291311D01*
X5825610Y19222081D01*
X5858023Y19385035D01*
X21340682Y19385035D01*
X21444139Y19134648D01*
X21635541Y18942913D01*
X21885746Y18839018D01*
X22156665Y18838782D01*
X22407052Y18942239D01*
X22598787Y19133641D01*
X22602978Y19143735D01*
X41774982Y19143735D01*
X41878439Y18893348D01*
X42069841Y18701613D01*
X42320046Y18597718D01*
X42590965Y18597482D01*
X42841352Y18700939D01*
X43033087Y18892341D01*
X43136982Y19142546D01*
X43137218Y19413465D01*
X43033761Y19663852D01*
X42842359Y19855587D01*
X42592154Y19959482D01*
X42321235Y19959718D01*
X42070848Y19856261D01*
X41879113Y19664859D01*
X41775218Y19414654D01*
X41774982Y19143735D01*
X22602978Y19143735D01*
X22702682Y19383846D01*
X22702918Y19654765D01*
X22599461Y19905152D01*
X22408059Y20096887D01*
X22157854Y20200782D01*
X21886935Y20201018D01*
X21636548Y20097561D01*
X21444813Y19906159D01*
X21340918Y19655954D01*
X21340682Y19385035D01*
X5858023Y19385035D01*
X6044000Y20320000D01*
X5995041Y20566135D01*
X30814882Y20566135D01*
X30918339Y20315748D01*
X31109741Y20124013D01*
X31359946Y20020118D01*
X31630865Y20019882D01*
X31881252Y20123339D01*
X32072987Y20314741D01*
X32176882Y20564946D01*
X32176927Y20616935D01*
X36377482Y20616935D01*
X36480939Y20366548D01*
X36672341Y20174813D01*
X36922546Y20070918D01*
X37021512Y20070832D01*
X37012718Y20049654D01*
X37012482Y19778735D01*
X37115939Y19528348D01*
X37307341Y19336613D01*
X37557546Y19232718D01*
X37828465Y19232482D01*
X38078852Y19335939D01*
X38270587Y19527341D01*
X38374482Y19777546D01*
X38374483Y19778735D01*
X39361982Y19778735D01*
X39465439Y19528348D01*
X39656841Y19336613D01*
X39907046Y19232718D01*
X40177965Y19232482D01*
X40428352Y19335939D01*
X40620087Y19527341D01*
X40723982Y19777546D01*
X40724218Y20048465D01*
X40620761Y20298852D01*
X40429359Y20490587D01*
X40179154Y20594482D01*
X39908235Y20594718D01*
X39657848Y20491261D01*
X39466113Y20299859D01*
X39362218Y20049654D01*
X39361982Y19778735D01*
X38374483Y19778735D01*
X38374718Y20048465D01*
X38370752Y20058063D01*
X38463465Y20057982D01*
X38713852Y20161439D01*
X38905587Y20352841D01*
X39009482Y20603046D01*
X39009718Y20873965D01*
X38906261Y21124352D01*
X38714859Y21316087D01*
X38464654Y21419982D01*
X38193735Y21420218D01*
X37943348Y21316761D01*
X37751613Y21125359D01*
X37696216Y20991949D01*
X37636261Y21137052D01*
X37444859Y21328787D01*
X37194654Y21432682D01*
X36923735Y21432918D01*
X36673348Y21329461D01*
X36481613Y21138059D01*
X36377718Y20887854D01*
X36377482Y20616935D01*
X32176927Y20616935D01*
X32177118Y20835865D01*
X32073661Y21086252D01*
X31882259Y21277987D01*
X31632054Y21381882D01*
X31361135Y21382118D01*
X31110748Y21278661D01*
X30919013Y21087259D01*
X30815118Y20837054D01*
X30814882Y20566135D01*
X5995041Y20566135D01*
X5868732Y21201135D01*
X7510382Y21201135D01*
X7613839Y20950748D01*
X7805241Y20759013D01*
X8055446Y20655118D01*
X8326365Y20654882D01*
X8576752Y20758339D01*
X8768487Y20949741D01*
X8872382Y21199946D01*
X8872618Y21470865D01*
X8769161Y21721252D01*
X8577759Y21912987D01*
X8327554Y22016882D01*
X8056635Y22017118D01*
X7806248Y21913661D01*
X7614513Y21722259D01*
X7510618Y21472054D01*
X7510382Y21201135D01*
X5868732Y21201135D01*
X5825610Y21417919D01*
X5308563Y22191735D01*
X17136982Y22191735D01*
X17240439Y21941348D01*
X17431841Y21749613D01*
X17682046Y21645718D01*
X17952965Y21645482D01*
X18203352Y21748939D01*
X18395087Y21940341D01*
X18498982Y22190546D01*
X18499218Y22461465D01*
X18395761Y22711852D01*
X18204359Y22903587D01*
X17954154Y23007482D01*
X17683235Y23007718D01*
X17432848Y22904261D01*
X17241113Y22712859D01*
X17137218Y22462654D01*
X17136982Y22191735D01*
X5308563Y22191735D01*
X5203689Y22348689D01*
X4272919Y22970610D01*
X3175000Y23189000D01*
X2077081Y22970610D01*
X1146311Y22348689D01*
X524390Y21417919D01*
X354400Y20563323D01*
X354400Y23957035D01*
X11625182Y23957035D01*
X11728639Y23706648D01*
X11920041Y23514913D01*
X12170246Y23411018D01*
X12441165Y23410782D01*
X12691552Y23514239D01*
X12883287Y23705641D01*
X12987182Y23955846D01*
X12987400Y24206725D01*
X18592043Y24206725D01*
X18686783Y23730438D01*
X18956578Y23326660D01*
X19360356Y23056865D01*
X19836643Y22962125D01*
X20312930Y23056865D01*
X20716708Y23326660D01*
X20970940Y23580892D01*
X21240735Y23984669D01*
X21335475Y24460957D01*
X21251450Y24883379D01*
X21716243Y24790925D01*
X22192530Y24885665D01*
X22596308Y25155460D01*
X22850540Y25409692D01*
X23120335Y25813469D01*
X23215075Y26289757D01*
X23120335Y26766044D01*
X22850540Y27169822D01*
X22446762Y27439617D01*
X21970475Y27534357D01*
X21494187Y27439617D01*
X21090410Y27169822D01*
X20836178Y26915590D01*
X20566383Y26511812D01*
X20471643Y26035525D01*
X20555668Y25613103D01*
X20090875Y25705557D01*
X19614587Y25610817D01*
X19210810Y25341022D01*
X18956578Y25086790D01*
X18686783Y24683012D01*
X18592043Y24206725D01*
X12987400Y24206725D01*
X12987418Y24226765D01*
X12883961Y24477152D01*
X12692559Y24668887D01*
X12442354Y24772782D01*
X12171435Y24773018D01*
X11921048Y24669561D01*
X11729313Y24478159D01*
X11625418Y24227954D01*
X11625182Y23957035D01*
X354400Y23957035D01*
X354400Y25811235D01*
X4830682Y25811235D01*
X4934139Y25560848D01*
X5125541Y25369113D01*
X5375746Y25265218D01*
X5646665Y25264982D01*
X5897052Y25368439D01*
X6088787Y25559841D01*
X6092978Y25569935D01*
X9618582Y25569935D01*
X9722039Y25319548D01*
X9913441Y25127813D01*
X10163646Y25023918D01*
X10434565Y25023682D01*
X10684952Y25127139D01*
X10876687Y25318541D01*
X10980582Y25568746D01*
X10980818Y25839665D01*
X10913423Y26002777D01*
X16795991Y26002777D01*
X16890731Y25526490D01*
X17160526Y25122712D01*
X17564304Y24852917D01*
X18040591Y24758177D01*
X18516878Y24852917D01*
X18920656Y25122712D01*
X19174888Y25376944D01*
X19444683Y25780721D01*
X19539423Y26257009D01*
X19455398Y26679431D01*
X19920191Y26586977D01*
X20396478Y26681717D01*
X20800256Y26951512D01*
X21054488Y27205744D01*
X21324283Y27609521D01*
X21419023Y28085809D01*
X21324283Y28562096D01*
X21054488Y28965874D01*
X20650710Y29235669D01*
X20174423Y29330409D01*
X19698135Y29235669D01*
X19294358Y28965874D01*
X19040126Y28711642D01*
X18770331Y28307864D01*
X18675591Y27831577D01*
X18759616Y27409155D01*
X18294823Y27501609D01*
X17818535Y27406869D01*
X17414758Y27137074D01*
X17160526Y26882842D01*
X16890731Y26479064D01*
X16795991Y26002777D01*
X10913423Y26002777D01*
X10877361Y26090052D01*
X10685959Y26281787D01*
X10435754Y26385682D01*
X10164835Y26385918D01*
X9914448Y26282461D01*
X9722713Y26091059D01*
X9618818Y25840854D01*
X9618582Y25569935D01*
X6092978Y25569935D01*
X6192682Y25810046D01*
X6192918Y26080965D01*
X6089461Y26331352D01*
X5898059Y26523087D01*
X5647854Y26626982D01*
X5376935Y26627218D01*
X5126548Y26523761D01*
X4934813Y26332359D01*
X4830918Y26082154D01*
X4830682Y25811235D01*
X354400Y25811235D01*
X354400Y27798828D01*
X14999940Y27798828D01*
X15094680Y27322541D01*
X15364475Y26918763D01*
X15768253Y26648968D01*
X16244540Y26554228D01*
X16720827Y26648968D01*
X17124605Y26918763D01*
X17378837Y27172995D01*
X17648632Y27576772D01*
X17743372Y28053060D01*
X17659347Y28475482D01*
X18124140Y28383028D01*
X18600427Y28477768D01*
X19004205Y28747563D01*
X19258437Y29001795D01*
X19528232Y29405572D01*
X19622972Y29881860D01*
X19528232Y30358147D01*
X19258437Y30761925D01*
X18854659Y31031720D01*
X18378372Y31126460D01*
X17902084Y31031720D01*
X17498307Y30761925D01*
X17244075Y30507693D01*
X16974280Y30103915D01*
X16879540Y29627628D01*
X16963565Y29205206D01*
X16498772Y29297660D01*
X16022484Y29202920D01*
X15618707Y28933125D01*
X15364475Y28678893D01*
X15094680Y28275115D01*
X14999940Y27798828D01*
X354400Y27798828D01*
X354400Y29594879D01*
X13203889Y29594879D01*
X13298629Y29118592D01*
X13568424Y28714814D01*
X13972202Y28445019D01*
X14448489Y28350279D01*
X14924776Y28445019D01*
X15328554Y28714814D01*
X15582786Y28969046D01*
X15852581Y29372823D01*
X15947321Y29849111D01*
X15863296Y30271533D01*
X16328089Y30179079D01*
X16804376Y30273819D01*
X17208154Y30543614D01*
X17462386Y30797846D01*
X17732181Y31201623D01*
X17826921Y31677911D01*
X17732181Y32154198D01*
X17462386Y32557976D01*
X17058608Y32827771D01*
X16582321Y32922511D01*
X16106033Y32827771D01*
X15702256Y32557976D01*
X15448024Y32303744D01*
X15178229Y31899966D01*
X15083489Y31423679D01*
X15167514Y31001257D01*
X14702721Y31093711D01*
X14226433Y30998971D01*
X13822656Y30729176D01*
X13568424Y30474944D01*
X13298629Y30071166D01*
X13203889Y29594879D01*
X354400Y29594879D01*
X354400Y31390930D01*
X11407838Y31390930D01*
X11502578Y30914643D01*
X11772373Y30510865D01*
X12176151Y30241070D01*
X12652438Y30146330D01*
X13128725Y30241070D01*
X13532503Y30510865D01*
X13786735Y30765097D01*
X14056530Y31168874D01*
X14151270Y31645162D01*
X14067245Y32067584D01*
X14532038Y31975130D01*
X15008325Y32069870D01*
X15412103Y32339665D01*
X15666335Y32593897D01*
X15936130Y32997674D01*
X16030870Y33473962D01*
X15936130Y33950249D01*
X15666335Y34354027D01*
X15262557Y34623822D01*
X14786270Y34718562D01*
X14309982Y34623822D01*
X13906205Y34354027D01*
X13651973Y34099795D01*
X13382178Y33696017D01*
X13287438Y33219730D01*
X13371463Y32797308D01*
X12906670Y32889762D01*
X12430382Y32795022D01*
X12026605Y32525227D01*
X11772373Y32270995D01*
X11502578Y31867217D01*
X11407838Y31390930D01*
X354400Y31390930D01*
X354400Y33186982D01*
X9611786Y33186982D01*
X9706526Y32710695D01*
X9976321Y32306917D01*
X10380099Y32037122D01*
X10856386Y31942382D01*
X11332673Y32037122D01*
X11736451Y32306917D01*
X11990683Y32561149D01*
X12260478Y32964926D01*
X12355218Y33441214D01*
X12271193Y33863636D01*
X12735986Y33771182D01*
X13212273Y33865922D01*
X13616051Y34135717D01*
X13870283Y34389949D01*
X14140078Y34793726D01*
X14234818Y35270014D01*
X14140078Y35746301D01*
X13870283Y36150079D01*
X13466505Y36419874D01*
X12990218Y36514614D01*
X12513930Y36419874D01*
X12110153Y36150079D01*
X11855921Y35895847D01*
X11586126Y35492069D01*
X11491386Y35015782D01*
X11575411Y34593360D01*
X11110618Y34685814D01*
X10634330Y34591074D01*
X10230553Y34321279D01*
X9976321Y34067047D01*
X9706526Y33663269D01*
X9611786Y33186982D01*
X354400Y33186982D01*
X354400Y34104847D01*
X8361754Y34104847D01*
X8454694Y33926091D01*
X8909875Y33767858D01*
X9395234Y33796847D01*
X9832554Y34009368D01*
X9911276Y34206719D01*
X9187451Y34930544D01*
X8361754Y34104847D01*
X354400Y34104847D01*
X354400Y34832573D01*
X7845160Y34832573D01*
X8003393Y34377392D01*
X8182149Y34284452D01*
X9007846Y35110149D01*
X8284021Y35833974D01*
X8086670Y35755252D01*
X7874149Y35317932D01*
X7845160Y34832573D01*
X354400Y34832573D01*
X354400Y36803804D01*
X5673895Y36803804D01*
X5702410Y36652261D01*
X5787636Y36523751D01*
X7008951Y35302436D01*
X7127573Y35221386D01*
X7278270Y35188695D01*
X7429813Y35217210D01*
X7558323Y35302436D01*
X8269466Y36013579D01*
X8463626Y36013579D01*
X9187451Y35289754D01*
X9201594Y35303896D01*
X9381199Y35124291D01*
X9367056Y35110149D01*
X10090881Y34386324D01*
X10288232Y34465046D01*
X10500753Y34902366D01*
X10529742Y35387725D01*
X10425559Y35687423D01*
X10463648Y35661973D01*
X10939935Y35567233D01*
X11416222Y35661973D01*
X11820000Y35931768D01*
X12074232Y36186000D01*
X12344027Y36589777D01*
X12438767Y37066065D01*
X12344027Y37542352D01*
X12074232Y37946130D01*
X11670454Y38215925D01*
X11194167Y38310665D01*
X10717879Y38215925D01*
X10314102Y37946130D01*
X10059870Y37691898D01*
X9790075Y37288120D01*
X9695335Y36811833D01*
X9789242Y36339734D01*
X9465027Y36452440D01*
X8979668Y36423451D01*
X8542348Y36210930D01*
X8463626Y36013579D01*
X8269466Y36013579D01*
X8995164Y36739277D01*
X9076214Y36857899D01*
X9108905Y37008596D01*
X9105076Y37028948D01*
X9157870Y37017495D01*
X9309413Y37046010D01*
X9437923Y37131236D01*
X10874764Y38568077D01*
X10955814Y38686699D01*
X10988505Y38837396D01*
X10959990Y38988939D01*
X10874764Y39117449D01*
X9653449Y40338764D01*
X9534827Y40419814D01*
X9384130Y40452505D01*
X9232587Y40423990D01*
X9104077Y40338764D01*
X7667236Y38901923D01*
X7586186Y38783301D01*
X7553495Y38632604D01*
X7557324Y38612252D01*
X7504530Y38623705D01*
X7352987Y38595190D01*
X7224477Y38509964D01*
X5787636Y37073123D01*
X5706586Y36954501D01*
X5673895Y36803804D01*
X354400Y36803804D01*
X354400Y40396677D01*
X524390Y39542081D01*
X1146311Y38611311D01*
X2077081Y37989390D01*
X3175000Y37771000D01*
X4272919Y37989390D01*
X5203689Y38611311D01*
X5825610Y39542081D01*
X6044000Y40640000D01*
X5825610Y41737919D01*
X5203689Y42668689D01*
X4272919Y43290610D01*
X3175000Y43509000D01*
X2077081Y43290610D01*
X1146311Y42668689D01*
X524390Y41737919D01*
X354400Y40883323D01*
X354400Y43067318D01*
X5274452Y47987370D01*
X28473400Y24775915D01*
X28473400Y21539200D01*
X28483406Y21489790D01*
X28511847Y21448165D01*
X28554241Y21420885D01*
X28600400Y21412200D01*
X28981400Y21412200D01*
X29030810Y21422206D01*
X29072435Y21450647D01*
X29091667Y21480535D01*
X48391682Y21480535D01*
X48495139Y21230148D01*
X48686541Y21038413D01*
X48936746Y20934518D01*
X49207665Y20934282D01*
X49458052Y21037739D01*
X49649787Y21229141D01*
X49753682Y21479346D01*
X49753918Y21750265D01*
X49650461Y22000652D01*
X49459059Y22192387D01*
X49208854Y22296282D01*
X48937935Y22296518D01*
X48687548Y22193061D01*
X48495813Y22001659D01*
X48391918Y21751454D01*
X48391682Y21480535D01*
X29091667Y21480535D01*
X29099715Y21493041D01*
X29108400Y21539200D01*
X29108400Y23042635D01*
X44276882Y23042635D01*
X44380339Y22792248D01*
X44571741Y22600513D01*
X44821946Y22496618D01*
X45092865Y22496382D01*
X45343252Y22599839D01*
X45534987Y22791241D01*
X45638882Y23041446D01*
X45639118Y23312365D01*
X45535661Y23562752D01*
X45344259Y23754487D01*
X45094054Y23858382D01*
X44823135Y23858618D01*
X44572748Y23755161D01*
X44381013Y23563759D01*
X44277118Y23313554D01*
X44276882Y23042635D01*
X29108400Y23042635D01*
X29108400Y23926800D01*
X51579936Y23926800D01*
X51579936Y22199600D01*
X51606503Y22058410D01*
X51689946Y21928735D01*
X51817266Y21841741D01*
X51968400Y21811136D01*
X54000400Y21811136D01*
X54141590Y21837703D01*
X54271265Y21921146D01*
X54358259Y22048466D01*
X54388864Y22199600D01*
X54388864Y23926800D01*
X54362297Y24067990D01*
X54278854Y24197665D01*
X54151534Y24284659D01*
X54000400Y24315264D01*
X51968400Y24315264D01*
X51827210Y24288697D01*
X51697535Y24205254D01*
X51610541Y24077934D01*
X51579936Y23926800D01*
X29108400Y23926800D01*
X29108400Y25107900D01*
X29098394Y25157310D01*
X29071227Y25197678D01*
X26960205Y27309835D01*
X32021382Y27309835D01*
X32124839Y27059448D01*
X32316241Y26867713D01*
X32566446Y26763818D01*
X32837365Y26763582D01*
X33087752Y26867039D01*
X33279487Y27058441D01*
X33352234Y27233635D01*
X36199682Y27233635D01*
X36303139Y26983248D01*
X36494541Y26791513D01*
X36744746Y26687618D01*
X37015665Y26687382D01*
X37266052Y26790839D01*
X37457787Y26982241D01*
X37551628Y27208235D01*
X41711482Y27208235D01*
X41814939Y26957848D01*
X42006341Y26766113D01*
X42256546Y26662218D01*
X42527465Y26661982D01*
X42777852Y26765439D01*
X42969587Y26956841D01*
X43073482Y27207046D01*
X43073718Y27477965D01*
X42970261Y27728352D01*
X42778859Y27920087D01*
X42528654Y28023982D01*
X42257735Y28024218D01*
X42007348Y27920761D01*
X41815613Y27729359D01*
X41711718Y27479154D01*
X41711482Y27208235D01*
X37551628Y27208235D01*
X37561682Y27232446D01*
X37561918Y27503365D01*
X37458461Y27753752D01*
X37267059Y27945487D01*
X37016854Y28049382D01*
X36745935Y28049618D01*
X36495548Y27946161D01*
X36303813Y27754759D01*
X36199918Y27504554D01*
X36199682Y27233635D01*
X33352234Y27233635D01*
X33383382Y27308646D01*
X33383618Y27579565D01*
X33280161Y27829952D01*
X33088759Y28021687D01*
X32838554Y28125582D01*
X32567635Y28125818D01*
X32317248Y28022361D01*
X32125513Y27830959D01*
X32021618Y27580754D01*
X32021382Y27309835D01*
X26960205Y27309835D01*
X24294639Y29976835D01*
X40517682Y29976835D01*
X40621139Y29726448D01*
X40812541Y29534713D01*
X41062746Y29430818D01*
X41333665Y29430582D01*
X41584052Y29534039D01*
X41775787Y29725441D01*
X41879682Y29975646D01*
X41879918Y30246565D01*
X41776461Y30496952D01*
X41585059Y30688687D01*
X41334854Y30792582D01*
X41063935Y30792818D01*
X40813548Y30689361D01*
X40621813Y30497959D01*
X40517918Y30247754D01*
X40517682Y29976835D01*
X24294639Y29976835D01*
X22771457Y31500835D01*
X32618282Y31500835D01*
X32721739Y31250448D01*
X32913141Y31058713D01*
X33163346Y30954818D01*
X33434265Y30954582D01*
X33684652Y31058039D01*
X33876387Y31249441D01*
X33980282Y31499646D01*
X33980294Y31513535D01*
X37012482Y31513535D01*
X37115939Y31263148D01*
X37307341Y31071413D01*
X37557546Y30967518D01*
X37828465Y30967282D01*
X38078852Y31070739D01*
X38270587Y31262141D01*
X38374482Y31512346D01*
X38374718Y31783265D01*
X38271261Y32033652D01*
X38079859Y32225387D01*
X37829654Y32329282D01*
X37558735Y32329518D01*
X37308348Y32226061D01*
X37116613Y32034659D01*
X37012718Y31784454D01*
X37012482Y31513535D01*
X33980294Y31513535D01*
X33980518Y31770565D01*
X33877061Y32020952D01*
X33685659Y32212687D01*
X33435454Y32316582D01*
X33164535Y32316818D01*
X32914148Y32213361D01*
X32722413Y32021959D01*
X32618518Y31771754D01*
X32618282Y31500835D01*
X22771457Y31500835D01*
X21400595Y32872435D01*
X34383582Y32872435D01*
X34487039Y32622048D01*
X34678441Y32430313D01*
X34928646Y32326418D01*
X35199565Y32326182D01*
X35449952Y32429639D01*
X35641687Y32621041D01*
X35745582Y32871246D01*
X35745729Y33040135D01*
X38668882Y33040135D01*
X38772339Y32789748D01*
X38963741Y32598013D01*
X39213946Y32494118D01*
X39484865Y32493882D01*
X39735252Y32597339D01*
X39926987Y32788741D01*
X39956466Y32859735D01*
X40873282Y32859735D01*
X40976739Y32609348D01*
X41168141Y32417613D01*
X41418346Y32313718D01*
X41689265Y32313482D01*
X41939652Y32416939D01*
X42131387Y32608341D01*
X42235282Y32858546D01*
X42235518Y33129465D01*
X42132061Y33379852D01*
X41940659Y33571587D01*
X41690454Y33675482D01*
X41419535Y33675718D01*
X41169148Y33572261D01*
X40977413Y33380859D01*
X40873518Y33130654D01*
X40873282Y32859735D01*
X39956466Y32859735D01*
X40030882Y33038946D01*
X40031118Y33309865D01*
X39927661Y33560252D01*
X39736259Y33751987D01*
X39486054Y33855882D01*
X39215135Y33856118D01*
X38964748Y33752661D01*
X38773013Y33561259D01*
X38669118Y33311054D01*
X38668882Y33040135D01*
X35745729Y33040135D01*
X35745818Y33142165D01*
X35642361Y33392552D01*
X35450959Y33584287D01*
X35200754Y33688182D01*
X34929835Y33688418D01*
X34679448Y33584961D01*
X34487713Y33393559D01*
X34383818Y33143354D01*
X34383582Y32872435D01*
X21400595Y32872435D01*
X13112350Y41165135D01*
X20318882Y41165135D01*
X20422339Y40914748D01*
X20494000Y40842962D01*
X20494000Y39375000D01*
X20532517Y39181362D01*
X20642204Y39017204D01*
X24868969Y34790439D01*
X24868882Y34690135D01*
X24972339Y34439748D01*
X25163741Y34248013D01*
X25413946Y34144118D01*
X25684865Y34143882D01*
X25935252Y34247339D01*
X26126987Y34438741D01*
X26230882Y34688946D01*
X26231118Y34959865D01*
X26127661Y35210252D01*
X25936259Y35401987D01*
X25686054Y35505882D01*
X25584622Y35505970D01*
X25055857Y36034735D01*
X25226882Y36034735D01*
X25330339Y35784348D01*
X25521741Y35592613D01*
X25771946Y35488718D01*
X26042865Y35488482D01*
X26293252Y35591939D01*
X26484987Y35783341D01*
X26588882Y36033546D01*
X26589118Y36304465D01*
X26485661Y36554852D01*
X26294259Y36746587D01*
X26044054Y36850482D01*
X25773135Y36850718D01*
X25522748Y36747261D01*
X25331013Y36555859D01*
X25227118Y36305654D01*
X25226882Y36034735D01*
X25055857Y36034735D01*
X21506000Y39584592D01*
X21506000Y40842877D01*
X21576987Y40913741D01*
X21680882Y41163946D01*
X21681118Y41434865D01*
X21577661Y41685252D01*
X21386259Y41876987D01*
X21136054Y41980882D01*
X20865135Y41981118D01*
X20614748Y41877661D01*
X20423013Y41686259D01*
X20319118Y41436054D01*
X20318882Y41165135D01*
X13112350Y41165135D01*
X11713102Y42565135D01*
X14718882Y42565135D01*
X14822339Y42314748D01*
X15013741Y42123013D01*
X15263946Y42019118D01*
X15534865Y42018882D01*
X15785252Y42122339D01*
X15976987Y42313741D01*
X16080882Y42563946D01*
X16081118Y42834865D01*
X15977661Y43085252D01*
X15786259Y43276987D01*
X15536054Y43380882D01*
X15265135Y43381118D01*
X15014748Y43277661D01*
X14823013Y43086259D01*
X14719118Y42836054D01*
X14718882Y42565135D01*
X11713102Y42565135D01*
X7415413Y46865135D01*
X19718882Y46865135D01*
X19822339Y46614748D01*
X19894000Y46542962D01*
X19894000Y46025000D01*
X19932517Y45831362D01*
X20042204Y45667204D01*
X24243969Y41465439D01*
X24243882Y41365135D01*
X24347339Y41114748D01*
X24538741Y40923013D01*
X24788946Y40819118D01*
X25059865Y40818882D01*
X25310252Y40922339D01*
X25501987Y41113741D01*
X25605882Y41363946D01*
X25606118Y41634865D01*
X25502661Y41885252D01*
X25311259Y42076987D01*
X25293419Y42084395D01*
X25385252Y42122339D01*
X25528296Y42265135D01*
X28618882Y42265135D01*
X28722339Y42014748D01*
X28794000Y41942962D01*
X28794000Y35257123D01*
X28723013Y35186259D01*
X28619118Y34936054D01*
X28618882Y34665135D01*
X28722339Y34414748D01*
X28913741Y34223013D01*
X29163946Y34119118D01*
X29434865Y34118882D01*
X29685252Y34222339D01*
X29876987Y34413741D01*
X29980882Y34663946D01*
X29981118Y34934865D01*
X29877661Y35185252D01*
X29806000Y35257038D01*
X29806000Y35780735D01*
X33354882Y35780735D01*
X33458339Y35530348D01*
X33649741Y35338613D01*
X33899946Y35234718D01*
X34170865Y35234482D01*
X34421252Y35337939D01*
X34612987Y35529341D01*
X34716882Y35779546D01*
X34717118Y36050465D01*
X34613661Y36300852D01*
X34422259Y36492587D01*
X34172054Y36596482D01*
X33901135Y36596718D01*
X33650748Y36493261D01*
X33459013Y36301859D01*
X33355118Y36051654D01*
X33354882Y35780735D01*
X29806000Y35780735D01*
X29806000Y38640135D01*
X36243882Y38640135D01*
X36347339Y38389748D01*
X36538741Y38198013D01*
X36788946Y38094118D01*
X37059865Y38093882D01*
X37310252Y38197339D01*
X37501987Y38388741D01*
X37605882Y38638946D01*
X37606118Y38909865D01*
X37502661Y39160252D01*
X37431000Y39232038D01*
X37431000Y42365135D01*
X38118882Y42365135D01*
X38222339Y42114748D01*
X38294000Y42042962D01*
X38294000Y35257123D01*
X38223013Y35186259D01*
X38119118Y34936054D01*
X38118882Y34665135D01*
X38222339Y34414748D01*
X38413741Y34223013D01*
X38663946Y34119118D01*
X38934865Y34118882D01*
X39185252Y34222339D01*
X39376987Y34413741D01*
X39480882Y34663946D01*
X39481118Y34934865D01*
X39377661Y35185252D01*
X39306000Y35257038D01*
X39306000Y35983935D01*
X43210082Y35983935D01*
X43313539Y35733548D01*
X43504941Y35541813D01*
X43755146Y35437918D01*
X44026065Y35437682D01*
X44276452Y35541139D01*
X44468187Y35732541D01*
X44572082Y35982746D01*
X44572318Y36253665D01*
X44468861Y36504052D01*
X44277459Y36695787D01*
X44027254Y36799682D01*
X43756335Y36799918D01*
X43505948Y36696461D01*
X43314213Y36505059D01*
X43210318Y36254854D01*
X43210082Y35983935D01*
X39306000Y35983935D01*
X39306000Y37584135D01*
X46054882Y37584135D01*
X46158339Y37333748D01*
X46349741Y37142013D01*
X46599946Y37038118D01*
X46870865Y37037882D01*
X47121252Y37141339D01*
X47312987Y37332741D01*
X47416882Y37582946D01*
X47417118Y37853865D01*
X47313661Y38104252D01*
X47122259Y38295987D01*
X46872054Y38399882D01*
X46601135Y38400118D01*
X46350748Y38296661D01*
X46159013Y38105259D01*
X46055118Y37855054D01*
X46054882Y37584135D01*
X39306000Y37584135D01*
X39306000Y41390135D01*
X44143882Y41390135D01*
X44247339Y41139748D01*
X44438741Y40948013D01*
X44688946Y40844118D01*
X44959865Y40843882D01*
X45062125Y40886135D01*
X49483882Y40886135D01*
X49587339Y40635748D01*
X49778741Y40444013D01*
X50028946Y40340118D01*
X50299865Y40339882D01*
X50550252Y40443339D01*
X50741987Y40634741D01*
X50845882Y40884946D01*
X50846118Y41155865D01*
X50742661Y41406252D01*
X50551259Y41597987D01*
X50301054Y41701882D01*
X50030135Y41702118D01*
X49779748Y41598661D01*
X49588013Y41407259D01*
X49484118Y41157054D01*
X49483882Y40886135D01*
X45062125Y40886135D01*
X45210252Y40947339D01*
X45401987Y41138741D01*
X45505882Y41388946D01*
X45506118Y41659865D01*
X45402661Y41910252D01*
X45248047Y42065135D01*
X48518882Y42065135D01*
X48622339Y41814748D01*
X48813741Y41623013D01*
X49063946Y41519118D01*
X49334865Y41518882D01*
X49585252Y41622339D01*
X49776987Y41813741D01*
X49880882Y42063946D01*
X49881118Y42334865D01*
X49777661Y42585252D01*
X49586259Y42776987D01*
X49336054Y42880882D01*
X49065135Y42881118D01*
X48814748Y42777661D01*
X48623013Y42586259D01*
X48519118Y42336054D01*
X48518882Y42065135D01*
X45248047Y42065135D01*
X45211259Y42101987D01*
X44961054Y42205882D01*
X44690135Y42206118D01*
X44439748Y42102661D01*
X44248013Y41911259D01*
X44144118Y41661054D01*
X44143882Y41390135D01*
X39306000Y41390135D01*
X39306000Y42042877D01*
X39353340Y42090135D01*
X42043882Y42090135D01*
X42147339Y41839748D01*
X42338741Y41648013D01*
X42588946Y41544118D01*
X42859865Y41543882D01*
X43110252Y41647339D01*
X43301987Y41838741D01*
X43405882Y42088946D01*
X43405970Y42190378D01*
X45530727Y44315135D01*
X51642882Y44315135D01*
X51746339Y44064748D01*
X51937741Y43873013D01*
X52187946Y43769118D01*
X52458865Y43768882D01*
X52709252Y43872339D01*
X52900987Y44063741D01*
X53004882Y44313946D01*
X53005118Y44584865D01*
X52901661Y44835252D01*
X52710259Y45026987D01*
X52460054Y45130882D01*
X52189135Y45131118D01*
X51938748Y45027661D01*
X51747013Y44836259D01*
X51643118Y44586054D01*
X51642882Y44315135D01*
X45530727Y44315135D01*
X49157796Y47942204D01*
X49267483Y48106362D01*
X49306000Y48300000D01*
X49306000Y50242877D01*
X49376987Y50313741D01*
X49480882Y50563946D01*
X49481118Y50834865D01*
X49377661Y51085252D01*
X49186259Y51276987D01*
X48936054Y51380882D01*
X48665135Y51381118D01*
X48414748Y51277661D01*
X48223013Y51086259D01*
X48119118Y50836054D01*
X48118882Y50565135D01*
X48222339Y50314748D01*
X48294000Y50242962D01*
X48294000Y48509592D01*
X42690439Y42906031D01*
X42590135Y42906118D01*
X42339748Y42802661D01*
X42148013Y42611259D01*
X42044118Y42361054D01*
X42043882Y42090135D01*
X39353340Y42090135D01*
X39376987Y42113741D01*
X39480882Y42363946D01*
X39481118Y42634865D01*
X39377661Y42885252D01*
X39186259Y43076987D01*
X38936054Y43180882D01*
X38665135Y43181118D01*
X38414748Y43077661D01*
X38223013Y42886259D01*
X38119118Y42636054D01*
X38118882Y42365135D01*
X37431000Y42365135D01*
X37431000Y44365135D01*
X41718882Y44365135D01*
X41822339Y44114748D01*
X42013741Y43923013D01*
X42263946Y43819118D01*
X42534865Y43818882D01*
X42785252Y43922339D01*
X42976987Y44113741D01*
X43080882Y44363946D01*
X43081118Y44634865D01*
X42977661Y44885252D01*
X42786259Y45076987D01*
X42536054Y45180882D01*
X42265135Y45181118D01*
X42014748Y45077661D01*
X41823013Y44886259D01*
X41719118Y44636054D01*
X41718882Y44365135D01*
X37431000Y44365135D01*
X37431000Y45090408D01*
X38834561Y46493969D01*
X38934865Y46493882D01*
X39185252Y46597339D01*
X39376987Y46788741D01*
X39480882Y47038946D01*
X39481118Y47309865D01*
X39377661Y47560252D01*
X39186259Y47751987D01*
X38936054Y47855882D01*
X38665135Y47856118D01*
X38414748Y47752661D01*
X38223013Y47561259D01*
X38119118Y47311054D01*
X38119030Y47209622D01*
X36567204Y45657796D01*
X36457517Y45493638D01*
X36419000Y45300000D01*
X36419000Y39232123D01*
X36348013Y39161259D01*
X36244118Y38911054D01*
X36243882Y38640135D01*
X29806000Y38640135D01*
X29806000Y41942877D01*
X29876987Y42013741D01*
X29980882Y42263946D01*
X29981057Y42465135D01*
X33768882Y42465135D01*
X33872339Y42214748D01*
X34063741Y42023013D01*
X34313946Y41919118D01*
X34584865Y41918882D01*
X34835252Y42022339D01*
X35026987Y42213741D01*
X35130882Y42463946D01*
X35131118Y42734865D01*
X35027661Y42985252D01*
X34836259Y43176987D01*
X34586054Y43280882D01*
X34315135Y43281118D01*
X34064748Y43177661D01*
X33873013Y42986259D01*
X33769118Y42736054D01*
X33768882Y42465135D01*
X29981057Y42465135D01*
X29981118Y42534865D01*
X29877661Y42785252D01*
X29686259Y42976987D01*
X29436054Y43080882D01*
X29165135Y43081118D01*
X28914748Y42977661D01*
X28723013Y42786259D01*
X28619118Y42536054D01*
X28618882Y42265135D01*
X25528296Y42265135D01*
X25576987Y42313741D01*
X25680882Y42563946D01*
X25681118Y42834865D01*
X25577661Y43085252D01*
X25386259Y43276987D01*
X25136054Y43380882D01*
X24865135Y43381118D01*
X24614748Y43277661D01*
X24423013Y43086259D01*
X24319118Y42836054D01*
X24319105Y42821487D01*
X23267080Y43873512D01*
X23385252Y43922339D01*
X23576987Y44113741D01*
X23680882Y44363946D01*
X23680883Y44365135D01*
X32118882Y44365135D01*
X32222339Y44114748D01*
X32413741Y43923013D01*
X32663946Y43819118D01*
X32934865Y43818882D01*
X33185252Y43922339D01*
X33376987Y44113741D01*
X33480882Y44363946D01*
X33481118Y44634865D01*
X33377661Y44885252D01*
X33186259Y45076987D01*
X32936054Y45180882D01*
X32665135Y45181118D01*
X32414748Y45077661D01*
X32223013Y44886259D01*
X32119118Y44636054D01*
X32118882Y44365135D01*
X23680883Y44365135D01*
X23681118Y44634865D01*
X23577661Y44885252D01*
X23386259Y45076987D01*
X23136054Y45180882D01*
X22865135Y45181118D01*
X22614748Y45077661D01*
X22423013Y44886259D01*
X22373521Y44767071D01*
X20906000Y46234592D01*
X20906000Y46542877D01*
X20976987Y46613741D01*
X21080882Y46863946D01*
X21081118Y47134865D01*
X21078941Y47140135D01*
X27693882Y47140135D01*
X27797339Y46889748D01*
X27988741Y46698013D01*
X28238946Y46594118D01*
X28509865Y46593882D01*
X28760252Y46697339D01*
X28951987Y46888741D01*
X29055882Y47138946D01*
X29056118Y47409865D01*
X28952661Y47660252D01*
X28761259Y47851987D01*
X28511054Y47955882D01*
X28240135Y47956118D01*
X27989748Y47852661D01*
X27798013Y47661259D01*
X27694118Y47411054D01*
X27693882Y47140135D01*
X21078941Y47140135D01*
X20977661Y47385252D01*
X20786259Y47576987D01*
X20536054Y47680882D01*
X20265135Y47681118D01*
X20014748Y47577661D01*
X19823013Y47386259D01*
X19719118Y47136054D01*
X19718882Y46865135D01*
X7415413Y46865135D01*
X5784253Y48497171D01*
X7402217Y50115135D01*
X15518882Y50115135D01*
X15622339Y49864748D01*
X15813741Y49673013D01*
X16063946Y49569118D01*
X16334865Y49568882D01*
X16585252Y49672339D01*
X16776987Y49863741D01*
X16880882Y50113946D01*
X16881118Y50384865D01*
X16777661Y50635252D01*
X16586259Y50826987D01*
X16336054Y50930882D01*
X16065135Y50931118D01*
X15814748Y50827661D01*
X15623013Y50636259D01*
X15519118Y50386054D01*
X15518882Y50115135D01*
X7402217Y50115135D01*
X9896832Y52609750D01*
X20345400Y52609750D01*
X20345400Y51892614D01*
X20403404Y51752580D01*
X20510581Y51645404D01*
X20650615Y51587400D01*
X21367750Y51587400D01*
X21463000Y51682650D01*
X21463000Y52705000D01*
X21717000Y52705000D01*
X21717000Y51682650D01*
X21812250Y51587400D01*
X22529385Y51587400D01*
X22669419Y51645404D01*
X22776596Y51752580D01*
X22834600Y51892614D01*
X22834600Y52609750D01*
X22739350Y52705000D01*
X21717000Y52705000D01*
X21463000Y52705000D01*
X20440650Y52705000D01*
X20345400Y52609750D01*
X9896832Y52609750D01*
X10143465Y52856383D01*
X22885400Y52856383D01*
X22885400Y52807617D01*
X22980140Y52331329D01*
X23249935Y51927552D01*
X23653712Y51657757D01*
X24130000Y51563017D01*
X24606288Y51657757D01*
X25010065Y51927552D01*
X25279860Y52331329D01*
X25374600Y52807617D01*
X25374600Y52856383D01*
X25425400Y52856383D01*
X25425400Y52807617D01*
X25520140Y52331329D01*
X25789935Y51927552D01*
X26193712Y51657757D01*
X26670000Y51563017D01*
X27146288Y51657757D01*
X27550065Y51927552D01*
X27819860Y52331329D01*
X27914600Y52807617D01*
X27914600Y52856383D01*
X27965400Y52856383D01*
X27965400Y52807617D01*
X28060140Y52331329D01*
X28329935Y51927552D01*
X28733712Y51657757D01*
X29210000Y51563017D01*
X29686288Y51657757D01*
X30090065Y51927552D01*
X30359860Y52331329D01*
X30454600Y52807617D01*
X30454600Y52856383D01*
X30505400Y52856383D01*
X30505400Y52807617D01*
X30600140Y52331329D01*
X30869935Y51927552D01*
X31273712Y51657757D01*
X31750000Y51563017D01*
X32226288Y51657757D01*
X32630065Y51927552D01*
X32899860Y52331329D01*
X32994600Y52807617D01*
X32994600Y52856383D01*
X33045400Y52856383D01*
X33045400Y52807617D01*
X33140140Y52331329D01*
X33409935Y51927552D01*
X33813712Y51657757D01*
X34290000Y51563017D01*
X34766288Y51657757D01*
X35170065Y51927552D01*
X35439860Y52331329D01*
X35534600Y52807617D01*
X35534600Y52856383D01*
X35585400Y52856383D01*
X35585400Y52807617D01*
X35680140Y52331329D01*
X35949935Y51927552D01*
X36353712Y51657757D01*
X36830000Y51563017D01*
X37306288Y51657757D01*
X37710065Y51927552D01*
X37979860Y52331329D01*
X38074600Y52807617D01*
X38074600Y52856383D01*
X38125400Y52856383D01*
X38125400Y52807617D01*
X38220140Y52331329D01*
X38489935Y51927552D01*
X38893712Y51657757D01*
X39370000Y51563017D01*
X39846288Y51657757D01*
X40250065Y51927552D01*
X40519860Y52331329D01*
X40614600Y52807617D01*
X40614600Y52856383D01*
X40519860Y53332671D01*
X40250065Y53736448D01*
X39846288Y54006243D01*
X39370000Y54100983D01*
X38893712Y54006243D01*
X38489935Y53736448D01*
X38220140Y53332671D01*
X38125400Y52856383D01*
X38074600Y52856383D01*
X37979860Y53332671D01*
X37710065Y53736448D01*
X37306288Y54006243D01*
X36830000Y54100983D01*
X36353712Y54006243D01*
X35949935Y53736448D01*
X35680140Y53332671D01*
X35585400Y52856383D01*
X35534600Y52856383D01*
X35439860Y53332671D01*
X35170065Y53736448D01*
X34766288Y54006243D01*
X34290000Y54100983D01*
X33813712Y54006243D01*
X33409935Y53736448D01*
X33140140Y53332671D01*
X33045400Y52856383D01*
X32994600Y52856383D01*
X32899860Y53332671D01*
X32630065Y53736448D01*
X32226288Y54006243D01*
X31750000Y54100983D01*
X31273712Y54006243D01*
X30869935Y53736448D01*
X30600140Y53332671D01*
X30505400Y52856383D01*
X30454600Y52856383D01*
X30359860Y53332671D01*
X30090065Y53736448D01*
X29686288Y54006243D01*
X29210000Y54100983D01*
X28733712Y54006243D01*
X28329935Y53736448D01*
X28060140Y53332671D01*
X27965400Y52856383D01*
X27914600Y52856383D01*
X27819860Y53332671D01*
X27550065Y53736448D01*
X27146288Y54006243D01*
X26670000Y54100983D01*
X26193712Y54006243D01*
X25789935Y53736448D01*
X25520140Y53332671D01*
X25425400Y52856383D01*
X25374600Y52856383D01*
X25279860Y53332671D01*
X25010065Y53736448D01*
X24606288Y54006243D01*
X24130000Y54100983D01*
X23653712Y54006243D01*
X23249935Y53736448D01*
X22980140Y53332671D01*
X22885400Y52856383D01*
X10143465Y52856383D01*
X11058468Y53771386D01*
X20345400Y53771386D01*
X20345400Y53054250D01*
X20440650Y52959000D01*
X21463000Y52959000D01*
X21463000Y53981350D01*
X21717000Y53981350D01*
X21717000Y52959000D01*
X22739350Y52959000D01*
X22834600Y53054250D01*
X22834600Y53771386D01*
X22776596Y53911420D01*
X22669419Y54018596D01*
X22529385Y54076600D01*
X21812250Y54076600D01*
X21717000Y53981350D01*
X21463000Y53981350D01*
X21367750Y54076600D01*
X20650615Y54076600D01*
X20510581Y54018596D01*
X20403404Y53911420D01*
X20345400Y53771386D01*
X11058468Y53771386D01*
X12054317Y54767235D01*
X15358982Y54767235D01*
X15462439Y54516848D01*
X15653841Y54325113D01*
X15904046Y54221218D01*
X16174965Y54220982D01*
X16425352Y54324439D01*
X16617087Y54515841D01*
X16720982Y54766046D01*
X16721218Y55036965D01*
X16714643Y55052880D01*
X20386995Y55052880D01*
X20600690Y54616801D01*
X20964999Y54295695D01*
X21270882Y54169007D01*
X21463000Y54229688D01*
X21463000Y55245000D01*
X21717000Y55245000D01*
X21717000Y54229688D01*
X21909118Y54169007D01*
X22215001Y54295695D01*
X22579310Y54616801D01*
X22793005Y55052880D01*
X22732865Y55245000D01*
X21717000Y55245000D01*
X21463000Y55245000D01*
X20447135Y55245000D01*
X20386995Y55052880D01*
X16714643Y55052880D01*
X16617761Y55287352D01*
X16508920Y55396383D01*
X22885400Y55396383D01*
X22885400Y55347617D01*
X22980140Y54871329D01*
X23249935Y54467552D01*
X23653712Y54197757D01*
X24130000Y54103017D01*
X24606288Y54197757D01*
X25010065Y54467552D01*
X25279860Y54871329D01*
X25374600Y55347617D01*
X25374600Y55396383D01*
X25425400Y55396383D01*
X25425400Y55347617D01*
X25520140Y54871329D01*
X25789935Y54467552D01*
X26193712Y54197757D01*
X26670000Y54103017D01*
X27146288Y54197757D01*
X27550065Y54467552D01*
X27819860Y54871329D01*
X27914600Y55347617D01*
X27914600Y55396383D01*
X27965400Y55396383D01*
X27965400Y55347617D01*
X28060140Y54871329D01*
X28329935Y54467552D01*
X28733712Y54197757D01*
X29210000Y54103017D01*
X29686288Y54197757D01*
X30090065Y54467552D01*
X30359860Y54871329D01*
X30454600Y55347617D01*
X30454600Y55396383D01*
X30505400Y55396383D01*
X30505400Y55347617D01*
X30600140Y54871329D01*
X30869935Y54467552D01*
X31273712Y54197757D01*
X31750000Y54103017D01*
X32226288Y54197757D01*
X32630065Y54467552D01*
X32899860Y54871329D01*
X32994600Y55347617D01*
X32994600Y55396383D01*
X33045400Y55396383D01*
X33045400Y55347617D01*
X33140140Y54871329D01*
X33409935Y54467552D01*
X33813712Y54197757D01*
X34290000Y54103017D01*
X34766288Y54197757D01*
X35170065Y54467552D01*
X35439860Y54871329D01*
X35534600Y55347617D01*
X35534600Y55396383D01*
X35585400Y55396383D01*
X35585400Y55347617D01*
X35680140Y54871329D01*
X35949935Y54467552D01*
X36353712Y54197757D01*
X36830000Y54103017D01*
X37306288Y54197757D01*
X37710065Y54467552D01*
X37979860Y54871329D01*
X38074600Y55347617D01*
X38074600Y55396383D01*
X38125400Y55396383D01*
X38125400Y55347617D01*
X38220140Y54871329D01*
X38489935Y54467552D01*
X38893712Y54197757D01*
X39370000Y54103017D01*
X39846288Y54197757D01*
X40250065Y54467552D01*
X40519860Y54871329D01*
X40614600Y55347617D01*
X40614600Y55365135D01*
X43968882Y55365135D01*
X44072339Y55114748D01*
X44263741Y54923013D01*
X44513946Y54819118D01*
X44784865Y54818882D01*
X45035252Y54922339D01*
X45226987Y55113741D01*
X45330882Y55363946D01*
X45331118Y55634865D01*
X45227661Y55885252D01*
X45036259Y56076987D01*
X44786054Y56180882D01*
X44515135Y56181118D01*
X44264748Y56077661D01*
X44073013Y55886259D01*
X43969118Y55636054D01*
X43968882Y55365135D01*
X40614600Y55365135D01*
X40614600Y55396383D01*
X40519860Y55872671D01*
X40250065Y56276448D01*
X39846288Y56546243D01*
X39370000Y56640983D01*
X38893712Y56546243D01*
X38489935Y56276448D01*
X38220140Y55872671D01*
X38125400Y55396383D01*
X38074600Y55396383D01*
X37979860Y55872671D01*
X37710065Y56276448D01*
X37306288Y56546243D01*
X36830000Y56640983D01*
X36353712Y56546243D01*
X35949935Y56276448D01*
X35680140Y55872671D01*
X35585400Y55396383D01*
X35534600Y55396383D01*
X35439860Y55872671D01*
X35170065Y56276448D01*
X34766288Y56546243D01*
X34290000Y56640983D01*
X33813712Y56546243D01*
X33409935Y56276448D01*
X33140140Y55872671D01*
X33045400Y55396383D01*
X32994600Y55396383D01*
X32899860Y55872671D01*
X32630065Y56276448D01*
X32226288Y56546243D01*
X31750000Y56640983D01*
X31273712Y56546243D01*
X30869935Y56276448D01*
X30600140Y55872671D01*
X30505400Y55396383D01*
X30454600Y55396383D01*
X30359860Y55872671D01*
X30090065Y56276448D01*
X29686288Y56546243D01*
X29210000Y56640983D01*
X28733712Y56546243D01*
X28329935Y56276448D01*
X28060140Y55872671D01*
X27965400Y55396383D01*
X27914600Y55396383D01*
X27819860Y55872671D01*
X27550065Y56276448D01*
X27146288Y56546243D01*
X26670000Y56640983D01*
X26193712Y56546243D01*
X25789935Y56276448D01*
X25520140Y55872671D01*
X25425400Y55396383D01*
X25374600Y55396383D01*
X25279860Y55872671D01*
X25010065Y56276448D01*
X24606288Y56546243D01*
X24130000Y56640983D01*
X23653712Y56546243D01*
X23249935Y56276448D01*
X22980140Y55872671D01*
X22885400Y55396383D01*
X16508920Y55396383D01*
X16436447Y55468981D01*
X16463452Y55480139D01*
X16655187Y55671541D01*
X16663316Y55691120D01*
X20386995Y55691120D01*
X20447135Y55499000D01*
X21463000Y55499000D01*
X21463000Y56514312D01*
X21717000Y56514312D01*
X21717000Y55499000D01*
X22732865Y55499000D01*
X22793005Y55691120D01*
X22579310Y56127199D01*
X22215001Y56448305D01*
X21909118Y56574993D01*
X21717000Y56514312D01*
X21463000Y56514312D01*
X21270882Y56574993D01*
X20964999Y56448305D01*
X20600690Y56127199D01*
X20386995Y55691120D01*
X16663316Y55691120D01*
X16759082Y55921746D01*
X16759318Y56192665D01*
X16655861Y56443052D01*
X16514241Y56584918D01*
X16642487Y56712941D01*
X16746382Y56963146D01*
X16746618Y57234065D01*
X16643161Y57484452D01*
X16451759Y57676187D01*
X16201554Y57780082D01*
X15930635Y57780318D01*
X15680248Y57676861D01*
X15488513Y57485459D01*
X15384618Y57235254D01*
X15384382Y56964335D01*
X15487839Y56713948D01*
X15629459Y56572082D01*
X15501213Y56444059D01*
X15397318Y56193854D01*
X15397082Y55922935D01*
X15500539Y55672548D01*
X15681853Y55490919D01*
X15654848Y55479761D01*
X15463113Y55288359D01*
X15359218Y55038154D01*
X15358982Y54767235D01*
X12054317Y54767235D01*
X17994282Y60707200D01*
X43016518Y60707200D01*
X60656400Y43067318D01*
M02*
